<svg width="130" height="137" viewBox="0 0 130 137" fill="none" xmlns="http://www.w3.org/2000/svg">
<rect x="1" y="1" width="128" height="135" rx="24" fill="white" stroke="#00CC00" stroke-width="2"/>
<path d="M102.971 47.6218C102.97 47.3161 102.9 47.0142 102.765 46.738C102.634 46.468 102.44 46.2312 102.198 46.0461C101.957 45.8611 101.674 45.7328 101.373 45.6713L66.3454 29.2002C66.0638 29.0684 65.7551 29 65.4424 29C65.1297 29 64.8211 29.0684 64.5395 29.2002L29.1688 45.8305C28.8298 45.9892 28.5418 46.2346 28.3359 46.5401C28.1299 46.8457 28.0138 47.2 28 47.5648V89.352C27.9986 89.7287 28.1078 90.0981 28.3147 90.417C28.5217 90.7358 28.8179 90.991 29.1688 91.1528L64.5395 107.783C64.5566 107.783 64.5566 107.783 64.5738 107.8C64.6282 107.815 64.6801 107.837 64.7282 107.866C64.7453 107.866 64.7625 107.883 64.7968 107.883L64.9511 107.933C64.9683 107.933 64.9854 107.949 65.0026 107.949C65.0197 107.949 65.1227 107.966 65.1741 107.983H65.2256C65.2942 107.983 65.3799 107.999 65.4486 107.999C65.5233 108.002 65.5981 107.996 65.6715 107.983H65.723C65.7815 107.98 65.8393 107.968 65.8945 107.949C65.9117 107.949 65.9288 107.933 65.946 107.933L66.1003 107.883C66.1175 107.883 66.1346 107.866 66.169 107.866C66.2233 107.851 66.2753 107.829 66.3233 107.8C66.3405 107.8 66.3405 107.8 66.3576 107.783L101.831 91.1124C102.18 90.9477 102.474 90.6918 102.68 90.3736C102.887 90.0554 102.998 89.6876 103 89.3116V47.6717C102.971 47.6456 102.971 47.6456 102.971 47.6218ZM65.4339 33.2176L96.1096 47.6456L84.8136 52.9649L54.1378 38.544L65.4339 33.2176ZM65.4339 62.0593L34.758 47.6456L49.4086 40.7559L80.0844 55.1767L65.4339 62.0593ZM32.1264 50.8552L63.3707 65.5421V102.763L32.1264 88.0833V50.8552ZM67.4995 102.763V65.5445L82.1672 58.6429V68.3835C82.1672 68.9141 82.3846 69.4229 82.7715 69.798C83.1584 70.1732 83.6832 70.3839 84.2304 70.3839C84.7776 70.3839 85.3024 70.1732 85.6893 69.798C86.0762 69.4229 86.2936 68.9141 86.2936 68.3835V56.6901L98.8467 50.7887V88.0168L67.4995 102.763Z" fill="#5FDE5F"/>
</svg>
