<svg width="130" height="137" viewBox="0 0 130 137" fill="none" xmlns="http://www.w3.org/2000/svg">
<rect x="1" y="1" width="128" height="135" rx="24" fill="white" stroke="#00CC00" stroke-width="2"/>
<path d="M83.0364 71.2048C85.2034 71.2048 86.9597 69.3207 86.9597 66.9961C86.9597 64.6719 85.2034 62.7878 83.0364 62.7878C80.8697 62.7878 79.113 64.6719 79.113 66.9961C79.113 69.3207 80.8697 71.2048 83.0364 71.2048Z" stroke="#00CC00" stroke-width="3" stroke-linecap="round" stroke-linejoin="round"/>
<path d="M94.0001 44.7333V51.7739C93.0834 51.6559 92.02 51.5773 90.8834 51.5773H75.19C67.3434 51.5773 64.74 54.3701 64.74 62.7873V82.8867H42.6667C30.9333 82.8867 28 79.74 28 67.1533V44.7333C28 32.1467 30.9333 29 42.6667 29H79.3334C91.0667 29 94.0001 32.1467 94.0001 44.7333Z" stroke="#00CC00" stroke-width="3" stroke-linecap="round" stroke-linejoin="round"/>
<path d="M53.6667 82.8867V99.7997" stroke="#00CC00" stroke-width="3" stroke-linecap="round" stroke-linejoin="round"/>
<path d="M28 67.9397H64.6667" stroke="#00CC00" stroke-width="3" stroke-linecap="round" stroke-linejoin="round"/>
<path d="M42.4832 99.8H64.6663" stroke="#00CC00" stroke-width="3" stroke-linecap="round" stroke-linejoin="round"/>
<path d="M83.0364 71.2048C85.2034 71.2048 86.9597 69.3207 86.9597 66.9961C86.9597 64.6719 85.2034 62.7878 83.0364 62.7878C80.8697 62.7878 79.113 64.6719 79.113 66.9961C79.113 69.3207 80.8697 71.2048 83.0364 71.2048Z" stroke="#00CC00" stroke-width="3" stroke-miterlimit="10" stroke-linecap="round" stroke-linejoin="round"/>
<path d="M94 51.774C93.0833 51.656 92.02 51.5774 90.8833 51.5774H75.19C67.3433 51.5774 64.74 54.3702 64.74 62.7874V96.4568C64.74 104.874 67.3433 107.667 75.19 107.667H90.8833C98.73 107.667 101.333 104.874 101.333 96.4568V62.7874C101.333 55.5896 99.4267 52.5214 94 51.774ZM83.0367 62.7874C85.2 62.7874 86.96 64.6754 86.96 66.9961C86.96 69.3168 85.2 71.2048 83.0367 71.2048C80.8733 71.2048 79.1133 69.3168 79.1133 66.9961C79.1133 64.6754 80.8733 62.7874 83.0367 62.7874ZM83.0367 96.4568C78.71 96.4568 75.19 92.6808 75.19 88.0394C75.19 86.1121 75.8133 84.3028 76.84 82.8868C78.27 80.9201 80.5067 79.6221 83.0367 79.6221C85.0167 79.6221 86.8133 80.4088 88.17 81.6674C89.82 83.2408 90.8833 85.5221 90.8833 88.0394C90.8833 92.6808 87.3633 96.4568 83.0367 96.4568Z" stroke="#00CC00" stroke-width="3" stroke-miterlimit="10" stroke-linecap="round" stroke-linejoin="round"/>
<path d="M90.8838 88.0392C90.8838 92.6805 87.3638 96.4565 83.0371 96.4565C78.7104 96.4565 75.1904 92.6805 75.1904 88.0392C75.1904 86.1118 75.8138 84.3025 76.8404 82.8865C78.2704 80.9198 80.5071 79.6218 83.0371 79.6218C85.0171 79.6218 86.8138 80.4085 88.1704 81.6672C89.8204 83.2405 90.8838 85.5218 90.8838 88.0392Z" stroke="#00CC00" stroke-width="3" stroke-miterlimit="10" stroke-linecap="round" stroke-linejoin="round"/>
<path d="M83.0364 71.2048C85.2034 71.2048 86.9597 69.3207 86.9597 66.9961C86.9597 64.6719 85.2034 62.7878 83.0364 62.7878C80.8697 62.7878 79.113 64.6719 79.113 66.9961C79.113 69.3207 80.8697 71.2048 83.0364 71.2048Z" stroke="#00CC00" stroke-width="3" stroke-miterlimit="10" stroke-linecap="round" stroke-linejoin="round"/>
</svg>
