<svg width="130" height="137" viewBox="0 0 130 137" fill="none" xmlns="http://www.w3.org/2000/svg">
<rect x="1" y="1" width="128" height="135" rx="24" fill="white" stroke="#00CC00" stroke-width="2"/>
<path d="M81.053 109.697L66.6606 105.328V78.6866C74.0546 78.1505 79.3687 72.5659 80.0297 64.3513V27.1622C80.0297 26.5206 79.5051 26 78.8587 26H52.1194C51.4729 26 50.9483 26.5206 50.9483 27.1622L50.9514 64.4442C51.6103 72.57 56.9234 78.1515 64.3174 78.6866V105.328L49.8292 109.726C49.5608 109.807 49.3306 109.982 49.1808 110.217C49.031 110.453 48.9714 110.734 49.0129 111.009C49.0544 111.285 49.1942 111.536 49.4069 111.718C49.6196 111.9 49.891 112 50.1717 112H80.8063C81.0993 112.005 81.3838 111.902 81.6036 111.709C81.8233 111.517 81.9624 111.25 81.9934 110.961C82.0244 110.672 81.945 110.381 81.7709 110.147C81.5968 109.913 81.3406 109.753 81.053 109.697ZM77.6876 28.3243L77.6897 43.3797C77.266 43.9489 75.5734 45.9984 72.8117 46.5284C70.558 46.9592 68.1065 46.265 65.5291 44.4613C63.1245 42.7795 60.8551 41.8291 58.7409 41.5781V33.3603C58.7319 33.0583 58.6046 32.7716 58.386 32.5611C58.1675 32.3506 57.8749 32.2328 57.5704 32.2328C57.2658 32.2328 56.9733 32.3506 56.7547 32.5611C56.5362 32.7716 56.4089 33.0583 56.3998 33.3603V41.6029C56.252 41.6246 56.1011 41.6328 55.9553 41.6638C55.003 41.8622 54.0981 42.241 53.2904 42.7795V28.3243H77.6876ZM53.2904 64.3513V45.8889C53.5798 45.4984 54.5771 44.3415 56.3998 43.951V58.1531C56.3998 58.4613 56.5232 58.7569 56.7428 58.9748C56.9624 59.1928 57.2603 59.3152 57.5709 59.3152C57.8815 59.3152 58.1794 59.1928 58.399 58.9748C58.6186 58.7569 58.742 58.4613 58.742 58.1531V43.92C60.3898 44.1751 62.2063 44.9809 64.181 46.3621C66.671 48.1027 69.1183 48.9787 71.4813 48.9787C72.0788 48.9787 72.6712 48.9219 73.2583 48.8103C75.133 48.4508 76.6154 47.5707 77.6907 46.6968L77.6928 64.2583C77.0942 71.6424 72.3047 76.415 65.4895 76.415C58.6754 76.415 53.8859 71.6434 53.2904 64.3513ZM58.006 109.675L65.4885 107.405L72.972 109.675H58.006Z" fill="#00CC00"/>
</svg>
