<svg xmlns="http://www.w3.org/2000/svg" viewBox="0 0 657.18 399.25"><defs><style>.cls-1{fill:#d7e5e6;}.cls-2{fill:#53a097;}.cls-3{fill:#78d097;}.cls-4{fill:#408797;}.cls-5{fill:#40d097;}.cls-6{fill:#61bb97;}.cls-7{fill:#40ad97;}.cls-8{fill:#e1d6e6;}.cls-10,.cls-9{fill:#fff;}.cls-10{font-size:12px;font-family:Roboto-Bold, Roboto Bold;font-weight:700;}.cls-11{letter-spacing:0em;}.cls-12{fill:#408f97;}.cls-13{fill:#5aa9e0;}.cls-14{fill:#75c7e0;}.cls-15{letter-spacing:-0.08em;}.cls-16{fill:#5a92e0;}.cls-17{fill:#ffad35;}.cls-18{fill:#ffd635;}.cls-19{fill:#eb8735;}.cls-20{fill:#c63a51;}.cls-21{fill:#973a51;}.cls-22{fill:#ee957c;}.cls-23{fill:#43365e;}.cls-24{fill:#d87e7c;}.cls-25{fill:#5c364b;}.cls-26{fill:#5a8fe0;}.cls-27{fill:#b76535;}.cls-28{fill:#9a5335;}.cls-29{fill:#c18b35;}.cls-30{fill:#a8a8c5;}.cls-31{fill:#c4c7e6;}.cls-32{fill:#e13a51;}.cls-33{fill:#c26f6b;}.cls-34{fill:#624746;}.cls-35{fill:#523f46;}.cls-36{fill:#978277;}.cls-37{fill:#823a51;}.cls-38{fill:#5c4346;}.cls-39{fill:#4b455e;}.cls-40{fill:#393548;}.cls-41{fill:#86e7ee;}.cls-42{fill:#8b5346;}.cls-43{fill:#724746;}.cls-44{fill:#97916b;}.cls-45{fill:#87776b;}.cls-46{fill:#b8a994;}.cls-47{fill:#613c3c;}.cls-48{fill:#ff4c58;}.cls-49{fill:#b24958;}.cls-50{fill:#ff6f58;}.cls-51{fill:#ffd041;}.cls-52{fill:#be6b67;}.cls-53{fill:#b6c6e6;}.cls-54{fill:#dae2f0;}.cls-55{fill:#6c6387;}.cls-56{fill:#332c47;}.cls-57{fill:#533752;}.cls-58{fill:#452f49;}.cls-59{fill:#383a4f;}.cls-60{fill:#2d2f40;}.cls-61{fill:#cb7d75;}.cls-62{fill:#b16c6d;}.cls-63{fill:#409a97;}.cls-64{fill:#337e7c;}.cls-65{fill:#b56c75;}.cls-66{fill:#ffdf4d;}.cls-67{fill:#e4e7ff;}.cls-68{fill:#c4c7db;}.cls-69{fill:#b26675;}.cls-70{fill:#915675;}.cls-71{fill:#453034;}.cls-72{fill:#ffcc35;}.cls-73{fill:#ffb54d;}.cls-74{fill:#ad8035;}.cls-75{fill:#9c4860;}</style></defs><g id="Layer_2" data-name="Layer 2"><g id="OBJECTS"><path class="cls-1" d="M635.07,294.25c-4.66-7.23-11.8-12.85-15.25-20.74-7.37-16.87,4.66-37.29-1.87-54.51C614,208.64,603.81,201.6,593,199s-22.1-1.31-33,.87c-27.15,5.46-56.18,16.29-81.34,4.72-28.85-13.28-39-50-62.82-71a40.71,40.71,0,0,0-30.56-9.9c-26.28,2.57-44,29.45-69.56,36.15-27.33,7.18-56.29-10.38-83.94-4.58-19.52,4.09-35,19.31-45.65,36.17s-17.62,35.79-27.45,53.15-23.45,33.79-42.17,40.68c-25.18,9.28-57,.56-77.23,18.2-9.39,8.19-14.1,20.82-14.7,33.27s2.55,24.78,6.78,36.5H629.18c4.94-11.24,9.61-31.35,11.66-43.45S641.72,304.57,635.07,294.25Z"/><path class="cls-1" d="M635.77,264a28.6,28.6,0,0,0,2.42,8.19c1.25,2.39,3.15,4.24,5.24,4.38,2.35.15,4.5-1.8,6.31-3.93a30,30,0,0,0,6-10.77c1.42-4.7,1.56-10,1.28-15.09-.6-10.67-6.83-28.87-16.48-21.56C632.49,231.3,634,253.81,635.77,264Z"/><path class="cls-1" d="M636.92,201.09c-2.68,2-8.07-.68-12-6s-5-11.24-2.29-13.24,8.07.68,12,6S639.61,199.09,636.92,201.09Z"/><path class="cls-1" d="M158.69,220.59c-2.63,2.8-5.78,5.34-9.54,6.12s-8.19-.72-9.81-4.21a10.82,10.82,0,0,1-.81-4.3c-.18-11.11,7.45-21.17,16.93-27,3.65-2.23,8-4,12.13-3,3,.71,6.18,8.68,3.32,14.06C167.42,208.82,163.88,215.1,158.69,220.59Z"/><path class="cls-1" d="M241.4,141.45c0,2.84-3.57,5.14-8,5.14s-8-2.3-8-5.14,3.57-5.15,8-5.15S241.4,138.6,241.4,141.45Z"/><path class="cls-1" d="M267.12,143.93c0,1.76-2.53,3.19-5.65,3.19s-5.65-1.43-5.65-3.19,2.53-3.2,5.65-3.2S267.12,142.16,267.12,143.93Z"/><path class="cls-2" d="M562.5,366.33s-1-24.34,7.71-35.3c0,0,13.79,18.87,13.79,28.4S562.5,366.33,562.5,366.33Z"/><path class="cls-3" d="M61.82,365.8S0,334.67,0,241.61c0,0,55.54,10.36,66.72,56.24S61.82,365.8,61.82,365.8Z"/><path class="cls-4" d="M65.7,347.68C60.09,337,53.07,324.49,45.84,312.09c.65-1.9,4.2-12.51,4.2-16.88H48.67c0,3.57-2.65,12-3.75,15.31C40.5,303,36,295.44,31.75,288.36c.68-1.72,3.4-8.86,3.77-13.45l-1.36-.11c-.3,3.74-2.33,9.49-3.3,12.08-6.55-10.84-12.53-20.53-16.93-27.6.19-.68,1.46-5.25,2-8.33l-.67-.12h0l-.67-.13c-.41,2.2-1.21,5.28-1.67,7C9,251.41,6.6,247.57,6.5,247.41l-1.15.74c.14.22,5.61,8.85,13.45,21.59a69.94,69.94,0,0,0-8.55-4.27l-.25.63h0l-.26.63a78.41,78.41,0,0,1,10.48,5.44l0-.06C25.09,280,30.7,289.2,36.47,298.88c-3.23-.32-11.46-1.21-15.26-2.48l-.22.65h0l-.21.65c4.5,1.5,14.55,2.45,16.55,2.63,4.29,7.22,8.65,14.67,12.83,22-3.33-.09-12.84-.5-18.37-2.28l-.42,1.29c6.36,2.06,17.38,2.34,19.58,2.37,4.94,8.66,9.59,17.07,13.53,24.63Z"/><path class="cls-2" d="M61.9,363.87s3.3-26.08,20.93-45.64,21.26-22,23.72-25.41c0,0-4.38,47.28-18.69,59.88S61.9,363.87,61.9,363.87Z"/><path class="cls-5" d="M94.91,315.05c3-5.16,5-8.32,5-8.39l-.86-.56s-1,1.53-2.51,4.08l-.45-1.43-1,.31.71,2.3c-1.37,2.31-3.1,5.29-5,8.77a22.16,22.16,0,0,1-1.25-2.77l-1,.35a25.85,25.85,0,0,0,1.62,3.5c-1.2,2.2-2.46,4.57-3.75,7.09l-.18.08.07.13c-.76,1.48-1.53,3-2.29,4.57A11.31,11.31,0,0,1,83,329.85c-.12-.62-.18-1.25-.25-1.88a22.52,22.52,0,0,0-.32-2.27l-1,.22a21,21,0,0,1,.3,2.15c.07.66.14,1.32.26,2a12.48,12.48,0,0,0,1.6,4.16c-1.06,2.19-2.12,4.44-3.16,6.75l.93.42c2-4.32,4-8.47,5.93-12.3l6-2.9-.44-.92-4.82,2.31c2.26-4.35,4.42-8.25,6.26-11.47h.11a31.69,31.69,0,0,0,3.66-.21l-.12-1C97,315,95.93,315,94.91,315.05Z"/><path class="cls-6" d="M397.86,305.12c2.17,26,10.5,58.79,10.5,58.79l17-.14C415.87,332.71,397.86,305.12,397.86,305.12Z"/><path class="cls-6" d="M478.14,368l6,1.14c27.26-14.48,34.64-92.29,34.64-92.29S477,306.11,478.14,368Z"/><path class="cls-3" d="M480.72,368.5l3.39.65c27.13-14.41,34.57-91.55,34.64-92.27Z"/><path class="cls-2" d="M485.34,323.84a112.38,112.38,0,0,1,14.48-27.17c.54-5.72.63-12.89-1.38-17.92,0,0-15,35.6-13.1,45.08Z"/><path class="cls-3" d="M256.21,331.26a3.45,3.45,0,0,0-2.22.7,2,2,0,0,0-.55,1.82,3.06,3.06,0,0,0,1.65,1.81,8.8,8.8,0,0,0,5.32.92c1.26-.16,6.45-1.49,3.8-3.41C262.11,331.58,258.72,331.14,256.21,331.26Z"/><path class="cls-3" d="M279.51,340.71s5.62-17.14,10.29-13.67S282.36,340.62,279.51,340.71Z"/><path class="cls-3" d="M267.55,318.27s8.9-3.7,7.4-11S267.27,312.65,267.55,318.27Z"/><path class="cls-3" d="M255.54,320s-8.95-3.88-11.56-.18S251.56,321.87,255.54,320Z"/><path class="cls-3" d="M258.6,315.43s-9.89-18.05-15.47-18.19-1.55,7.61,0,9.13C249.4,312.5,258.6,315.43,258.6,315.43Z"/><path class="cls-4" d="M284.07,335.47l-.65-.78c-3.07,2.57-6,9.11-7.08,11.7-1.08-2.9-2.31-5.9-3.71-9l.09-.07a2.26,2.26,0,0,0-.25-.28,111.8,111.8,0,0,0-6.73-12.5c.45-1.78,2.44-9,5.65-12.33l-.73-.71c-3,3.08-4.93,9.16-5.67,11.87a69,69,0,0,0-16.12-17.83l-.62.82a63.94,63.94,0,0,1,12.85,13.17,45.69,45.69,0,0,0-10.85.21l.19,1c4.26-.82,10.63-.22,11.45-.11q1.44,2,2.76,4.06v0h0a105.18,105.18,0,0,1,6,10.94c-1.9-1.17-5.27-2.5-10.59-2.25l0,1c7.14-.35,10.55,2.33,11.49,3.23a148.4,148.4,0,0,1,10.5,32.8l1-.17a145.74,145.74,0,0,0-6.28-22.52C276.93,347.66,280.51,338.46,284.07,335.47Z"/><path class="cls-4" d="M280.74,364.37c-.16-.18-16.28-18.15-32.36-22.56l.36-1.31c16.48,4.51,32.35,22.21,33,23Z"/><path class="cls-4" d="M268.11,359.21l-.21-1.35a16.47,16.47,0,0,0,5.24-1.76l.65,1.21A17.88,17.88,0,0,1,268.11,359.21Z"/><path class="cls-4" d="M268.12,352.7a9.78,9.78,0,0,0-1.2-4.43l1.19-.66a11,11,0,0,1,1.37,5.05Z"/><path class="cls-4" d="M258.76,352l-.32-1.33,1.58-.35a32.84,32.84,0,0,0,4.87-1.32l.51,1.27a35.41,35.41,0,0,1-5.09,1.38Z"/><path class="cls-4" d="M258.22,346c-.11-.79-.42-3.2-1.31-4.19l1-.91c1,1.16,1.42,3.24,1.64,4.92Z"/><rect class="cls-4" x="249.76" y="344.14" width="5.03" height="1.36" transform="translate(-128.09 150.22) rotate(-26.72)"/><path class="cls-4" d="M251,341.73l-1.36-.09.68.05-.68-.05a5.29,5.29,0,0,0-1.06-3.21l1.08-.84A6.53,6.53,0,0,1,251,341.73Z"/><path class="cls-3" d="M579.19,369h0c1,6.69,15.28,8.77,37.42-10.22s40.57-92.9,40.57-92.9c-26.93,10.77-46.57,31.93-59.2,49.7A103.82,103.82,0,0,0,579.19,369Z"/><path class="cls-4" d="M632.13,300.55c.27,0,6.65-.09,9.51-1.8l-.7-1.17c-1.92,1.15-6,1.48-7.82,1.57,8.34-11.35,14.56-19,14.71-19.23l-1.06-.86c-.1.12-3,3.67-7.37,9.44-1.06-1.65-2.29-3.93-2.18-4.92l-1.35-.15c-.2,1.74,1.85,5,2.65,6.22-3.55,4.67-8,10.6-12.72,17.29-.4-2.5-1.34-8.38-1.54-10.49l-1.36.12c.26,2.75,1.68,11.39,1.74,11.75l.21,0c-5.37,7.6-11.1,16.08-16.42,24.7-1.09-3.13-3.36-10.3-3.24-15.59l-1.37,0c-.14,6.29,2.84,14.81,3.69,17.1a232.47,232.47,0,0,0-13.52,25l1.24.56c5.39-11.95,13.46-25.37,21.68-37.76a116,116,0,0,0,15.62-3.86l-.44-1.29A110.57,110.57,0,0,1,618,320.71c4.89-7.32,9.79-14.22,14.17-20.21Z"/><path class="cls-4" d="M566.32,364.62l-1-.27c.25-.93,26-93,61.9-117.9l.58.85C592.22,272,566.57,363.69,566.32,364.62Z"/><path class="cls-2" d="M591,297.41s-.32-13.7-4.14-13.38S591,297.41,591,297.41Z"/><path class="cls-3" d="M582.41,316.52c-.49.82,17.36-4,17.68-9.08S585,312.22,582.41,316.52Z"/><path class="cls-3" d="M577.15,330.09s-.17-9.4-3.31-9.91S577.15,330.09,577.15,330.09Z"/><path class="cls-2" d="M574.17,339.3s15.76-1,15.86-5.88S580,332.82,574.17,339.3Z"/><path class="cls-3" d="M596.3,287.2s15.84-.42,15.43-5.51S596.3,287.2,596.3,287.2Z"/><path class="cls-2" d="M604.25,273.7c0-.34-.12-14.32-4.16-13.4S604.25,273.7,604.25,273.7Z"/><path class="cls-2" d="M613.26,261s10.28,3.12,11.79-.23S615.8,259.15,613.26,261Z"/><path class="cls-3" d="M620.43,252.33s.8-11.79-3.93-10.51S620.43,252.33,620.43,252.33Z"/><path class="cls-3" d="M626.55,247.36s10.86-6.24,11.44-1.62S628.86,248.86,626.55,247.36Z"/><path class="cls-2" d="M627.13,246.67s4.39-9.82.34-10S627.13,246.67,627.13,246.67Z"/><path class="cls-4" d="M152.2,303.71c.51,25.1,4.13,60.2,4.13,60.2h16C170.38,351.4,152.2,303.71,152.2,303.71Z"/><path class="cls-4" d="M347.78,363.91l15.69.46c4.48-4.75,5.48-26.78,5.48-26.78C360.38,342.76,347.78,363.91,347.78,363.91Z"/><path class="cls-3" d="M425.39,363.77c-9.52-31.06-27.53-58.65-27.53-58.65.12,1.45.26,2.94.42,4.43l20.19,54.28Z"/><rect class="cls-7" x="147.79" y="235.08" width="106.34" height="13.29"/><polygon class="cls-7" points="235.57 365.11 166.34 365.11 158.29 248.37 243.62 248.37 235.57 365.11"/><polygon class="cls-8" points="180.22 333.82 198.03 333.82 198.03 326.63 183.89 326.63 180.22 333.82"/><polygon class="cls-9" points="194.67 320.65 190.82 305.55 176.33 311.3 182.47 314.43 175.32 328.46 180.22 333.82 188.53 317.52 194.67 320.65"/><polygon class="cls-9" points="211.86 323.38 202.61 331.52 211.86 339.65 211.86 334.2 223.83 334.2 226.32 328.83 211.86 328.83 211.86 323.38"/><polygon class="cls-8" points="226.32 328.83 221.13 317.1 213.95 317.1 218.9 328.83 226.32 328.83"/><polygon class="cls-8" points="189.12 299.43 196.68 299.43 202.42 291.65 199.57 285.4 189.12 299.43"/><polygon class="cls-9" points="200.76 303.26 213.79 309.12 217.92 295.45 212.18 298.07 205.82 285.35 199.57 285.4 206.51 300.65 200.76 303.26"/><rect class="cls-5" x="151.63" y="248.37" width="98.64" height="7.92"/><text class="cls-10" transform="translate(174.95 274.87)">O<tspan class="cls-11" x="8.27" y="0">R</tspan><tspan x="14.76" y="0">GANIC</tspan></text><path class="cls-12" d="M243.07,256.29H158.84l.69,10.12c15.17-3.71,61.91-4.69,83.19-5.06l.35-5.06Z"/><rect class="cls-13" x="270.76" y="235.08" width="106.34" height="13.29"/><polygon class="cls-13" points="358.54 365.11 289.32 365.11 281.26 248.37 366.59 248.37 358.54 365.11"/><polygon class="cls-8" points="303.19 333.82 321 333.82 321 326.63 306.86 326.63 303.19 333.82"/><polygon class="cls-9" points="317.65 320.65 313.79 305.55 299.31 311.3 305.45 314.43 298.3 328.46 303.19 333.82 311.5 317.52 317.65 320.65"/><polygon class="cls-9" points="334.84 323.38 325.59 331.52 334.84 339.65 334.84 334.2 346.81 334.2 349.29 328.83 334.84 328.83 334.84 323.38"/><polygon class="cls-8" points="349.29 328.83 344.11 317.1 336.93 317.1 341.88 328.83 349.29 328.83"/><polygon class="cls-8" points="312.1 299.43 319.65 299.43 325.39 291.65 322.55 285.4 312.1 299.43"/><polygon class="cls-9" points="323.74 303.26 336.76 309.12 340.9 295.45 335.15 298.07 328.79 285.35 322.55 285.4 329.49 300.65 323.74 303.26"/><rect class="cls-14" x="274.61" y="248.37" width="98.64" height="7.92"/><text class="cls-10" transform="translate(308.2 274.87)"><tspan class="cls-15">P</tspan><tspan x="5.38" y="0">APER</tspan></text><path class="cls-16" d="M282.56,267.15c11.24-6,76.83-10.39,83.48-10.82v0H281.81Z"/><rect class="cls-17" x="397.86" y="235.08" width="106.34" height="13.29"/><polygon class="cls-17" points="485.64 365.11 416.41 365.11 408.36 248.37 493.69 248.37 485.64 365.11"/><polygon class="cls-8" points="430.29 333.82 448.1 333.82 448.1 326.63 433.96 326.63 430.29 333.82"/><polygon class="cls-9" points="444.74 320.65 440.89 305.55 426.4 311.3 432.54 314.43 425.39 328.46 430.29 333.82 438.6 317.52 444.74 320.65"/><polygon class="cls-9" points="461.93 323.38 452.69 331.52 461.93 339.65 461.93 334.2 473.91 334.2 476.39 328.83 461.93 328.83 461.93 323.38"/><polygon class="cls-8" points="476.39 328.83 471.2 317.1 464.02 317.1 468.97 328.83 476.39 328.83"/><polygon class="cls-8" points="439.19 299.43 446.75 299.43 452.49 291.65 449.64 285.4 439.19 299.43"/><polygon class="cls-9" points="450.84 303.26 463.86 309.12 468 295.45 462.25 298.07 455.89 285.35 449.64 285.4 456.58 300.65 450.84 303.26"/><rect class="cls-18" x="401.71" y="248.37" width="98.64" height="7.92"/><text class="cls-10" transform="translate(430.48 274.87)">PLASTIC</text><path class="cls-19" d="M408.91,256.29l1.42,20.57c4.44-19.54,82.81-20.57,82.81-20.57Z"/><path class="cls-20" d="M85.21,81.68S95.27,92.35,100.29,97s10.08,11.27,8,20-5.17,41.64-4.65,48.77c0,0-20.65,5.29-36.75-1.61,0,0,6.6-14.5,5.25-29s-8.7-40.48-3.41-52L71.51,78S79.38,81.93,85.21,81.68Z"/><path class="cls-21" d="M71.55,96.68s-2.34,3.57.68,39.47c1,14.15-5.33,28-5.33,28l.16.06,26.45-23.1Z"/><path class="cls-22" d="M102.75,49.12a11.44,11.44,0,0,0-.58,5.26,15.76,15.76,0,0,0,.69,2.11c.37,1,.67,2,1,3a1.71,1.71,0,0,1,.1.89,1.61,1.61,0,0,1-.7.83c-.69.52-1.41,1-2.14,1.46-1.09,2.94-1.38,6.56-3.33,9a3,3,0,0,1-1.18,1,3.81,3.81,0,0,1-1.93.11A37.44,37.44,0,0,1,87,71s-1.59,7.79-1.82,10.7c0,0-11.19.93-13.83-4.89-1.46-3.24,5-21.63,5-21.63s-7-4.46,1.55-18.25,24.4,1.22,25,5.88S102.75,49.12,102.75,49.12Z"/><path class="cls-23" d="M100.21,44.72a20.7,20.7,0,0,1-3.55,3.39,8,8,0,0,1-3.9,1.78,6.88,6.88,0,0,1,.27-3c-3,1.58-4.91,4.72-5.92,7.91-.35-2-.77-4-1.11-5.92-.14-.78-.37-1.67-1.1-2a1.72,1.72,0,0,0-.9-.08A3.5,3.5,0,0,0,81.85,48,5.16,5.16,0,0,0,81,52.43c.33,1.53,1,3,1.48,4.46.54,1.83-.14,3.62-.52,5.48a10.3,10.3,0,0,1-2-3.65s-1.08,16.54-7.11,25.89l-1.78-2.15a15.76,15.76,0,0,1-5.64,6L65.37,85l-2.3.6s4.55-16.48,4.76-22.35l-2.29,1.34s2.89-12.29.34-11.14c0,0-.8-21.17,10.94-26.58,8.8-4.06,23.84-.74,27.27,13.81a15.37,15.37,0,0,1,.37,4.22c-.07,1.57-.19,3.72-.37,4.91A9,9,0,0,1,100.21,44.72Z"/><path class="cls-24" d="M86,76.19c.48-2.7,1-5.21,1-5.21a42.31,42.31,0,0,1-5.63-2.61A15.26,15.26,0,0,0,86,76.19Z"/><path class="cls-25" d="M99,54.28c-.11,1-.6,1.72-1.09,1.67s-.8-.9-.68-1.88.6-1.73,1.09-1.67S99.12,53.3,99,54.28Z"/><path class="cls-25" d="M95.82,51.41a.37.37,0,0,1-.27-.13.35.35,0,0,1,.06-.48,4.89,4.89,0,0,1,2-.86,5.52,5.52,0,0,1,2-.19.34.34,0,0,1-.08.68,5.09,5.09,0,0,0-1.72.17,4.43,4.43,0,0,0-1.71.73A.32.32,0,0,1,95.82,51.41Z"/><path class="cls-25" d="M99.46,68.27c.1-.33.21-.67.3-1a9.22,9.22,0,0,1-2.59-2,.52.52,0,0,0-.72-.06.51.51,0,0,0-.06.72A10,10,0,0,0,99.46,68.27Z"/><path class="cls-24" d="M84.23,48.8a2.09,2.09,0,0,0-1.75,1.26,4.44,4.44,0,0,0,.06,3.18,3,3,0,0,0,1.73,1.63.72.72,0,0,1,.32-.71A1,1,0,0,1,85.4,54c0-.39,0-.79,0-1.18a9.07,9.07,0,0,0-.22-2.75A3.08,3.08,0,0,0,84.23,48.8Z"/><rect class="cls-7" x="121.11" y="73.83" width="3.3" height="17.58" transform="translate(-12.51 22.64) rotate(-10.03)"/><path class="cls-13" d="M136.27,75.38l5.35-7.92-1.92-1.3-5.35,7.92A2.13,2.13,0,0,1,133,75l-1.41.24A4.15,4.15,0,0,0,128.78,77L121.5,87.79l6.86,4.63,7.28-10.78a4.18,4.18,0,0,0,.62-3.22L136,77A2.16,2.16,0,0,1,136.27,75.38Z"/><rect class="cls-13" x="140.35" y="64.39" width="1.38" height="3.69" transform="translate(7.24 146.09) rotate(-55.99)"/><rect class="cls-26" x="127.1" y="78.48" width="5.76" height="8.28" transform="translate(-11.22 144.15) rotate(-55.99)"/><path class="cls-26" d="M140.7,79l2-9.34-2.26-.5-2,9.34a2.08,2.08,0,0,1-1,1.36l-1.22.75a4.16,4.16,0,0,0-1.9,2.67L131.57,96l8.09,1.76L142.43,85a4.21,4.21,0,0,0-.61-3.22L141,80.61A2.14,2.14,0,0,1,140.7,79Z"/><path class="cls-13" d="M180.69,91l6.51-7-1.69-1.58-7.13,7.66-3.61.05a1.19,1.19,0,0,0-.87.38L164.18,101l6,5.64L180,96.14a1.22,1.22,0,0,0,.32-.9l-.16-2.69A2.11,2.11,0,0,1,180.69,91Z"/><polygon class="cls-13" points="140.48 69.14 140.04 71.13 142.32 71.56 142.74 69.64 140.48 69.14"/><rect class="cls-27" x="101.06" y="97.74" width="70.38" height="58.47" transform="translate(-27.17 216.32) rotate(-71.65)"/><path class="cls-28" d="M144.76,139.9a18.49,18.49,0,0,0-9.6-.71c-2.32.53-5.33,1.95-6.52,4.15-1.52,2.82,2.26,3.63,4.19,4.53,5.13,2.41,10.34,5,14.3,9.17,1.91,2,3.54,4.41,5.94,5.82a10.52,10.52,0,0,0,1.81.81l5-15.1C155.2,145,150.33,141.66,144.76,139.9Z"/><rect class="cls-29" x="154.58" y="95.46" width="7.42" height="21.3" transform="translate(7.74 222.94) rotate(-71.65)"/><rect class="cls-29" x="87.57" y="117.56" width="70.38" height="9.88" transform="translate(-32.16 200.46) rotate(-71.65)"/><polygon class="cls-30" points="165.51 99.61 170.13 90.21 163.33 87.21 159.39 97.58 165.51 99.61"/><path class="cls-31" d="M152.48,90.21c.23-.16,2.27-2.34,2.27-2.34l2.2,1.95,2.43-1.95,2.28,3.4,2.84.33-1.38,1.22,1.71,2.51-2.41,3.25L151,94.8Z"/><path class="cls-32" d="M141.76,91.76l2.5-4.55,2.27,1.54,1.71-1,2,1.14V90.3l1.87-.58L154.41,91s-1.57,4.4-1.87,4.3Z"/><path class="cls-22" d="M164.76,147.13c.52.15,1.12-.15,1.19-1.19s-3.43-4.25-4.69-5.15a27.37,27.37,0,0,0-3.36-1.86,3.25,3.25,0,0,0-2.09-2.16c-1.86-.82-10.09,0-12.67.38s-10.31-.7-20.13-3.27-26.13-4.95-26.13-4.95c-.78-6.09-4.22-15.13-4.22-15.13h0c-2,1.65-7.1,5.4-13.17,5.1.83,4.29,3.22,14.7,7.36,19.1,6.23,6.62,50,7.57,51.58,7.71s2.69.53,5.37,2.32,7.46,1.26,9.48,1,4.77,1.64,5.59,1.87,1-1.5,1-1.5l1.49,1a2.57,2.57,0,0,0,1.72.51c.82-.17.74-1.18.74-1.18a5.14,5.14,0,0,0,1.27,1.12c.6.3,1.34-.67,1.34-1.34S164.76,147.13,164.76,147.13Z"/><path class="cls-24" d="M92.66,113.8h0c-2,1.65-7.1,5.4-13.17,5.1a82.23,82.23,0,0,0,2.34,9.2c3.18-5,8.72-9.42,11.79-11.61C93.06,114.86,92.66,113.8,92.66,113.8Z"/><path class="cls-32" d="M76.87,118.54S65.72,91,75.61,86.44C87.53,81,93.51,113,93.51,113S85.78,120.77,76.87,118.54Z"/><path class="cls-24" d="M141.66,144.51a3.37,3.37,0,0,1-.25-1c-.12-.95-.6-6.83-2.47-5.09-.77.72-.77,2.75-.92,3.73a22.43,22.43,0,0,0-.3,3.57l.71,0c1.57.15,2.69.53,5.37,2.32l.27.13,1,.22-2.83-3.08A3.42,3.42,0,0,1,141.66,144.51Z"/><path class="cls-33" d="M158.41,139.17l-.51-.24a1.76,1.76,0,0,0-.18-.49,32.26,32.26,0,0,0-6.7.15.35.35,0,0,0-.26.41.33.33,0,0,0,.33.27h.07A35.16,35.16,0,0,1,158.41,139.17Z"/><path class="cls-33" d="M164.12,149.61l-.06-.08a19.91,19.91,0,0,0-8.5-5.91.34.34,0,0,0-.2.65,19.4,19.4,0,0,1,8.1,5.61l.07.75a1.38,1.38,0,0,0,.26-.89s.16.19.38.42Z"/><path class="cls-33" d="M165.28,147.1l-.26-.19a19.62,19.62,0,0,0-6.42-4.79.35.35,0,0,0-.45.2.34.34,0,0,0,.2.44,19.38,19.38,0,0,1,6.21,4.65l1.15.83c-.45-.58-1-1.11-1-1.11A.84.84,0,0,0,165.28,147.1Z"/><path class="cls-33" d="M160.14,149.25l-.08-.06a15.15,15.15,0,0,0-4.5-2.76.34.34,0,0,0-.2.66,14.56,14.56,0,0,1,4.18,2.55l.16.51a5.23,5.23,0,0,0,.14-.71l.44.29Z"/><rect class="cls-34" x="132.34" y="139.95" width="10.63" height="2.99" transform="translate(-23.02 256.07) rotate(-81.28)"/><path class="cls-35" d="M140.47,141.45a2.81,2.81,0,1,1-2.81-2.81A2.81,2.81,0,0,1,140.47,141.45Z"/><path class="cls-36" d="M139.28,141.45a1.63,1.63,0,0,1-3.25,0,1.63,1.63,0,1,1,3.25,0Z"/><path class="cls-34" d="M68.69,164.82a36.25,36.25,0,0,0-3.42,22.67c2.4,14,5.06,17.43,6,34.1s5.87,32.1,3.09,41.66-11.11,20.37-14.82,46.61c0,0,5.07,5.86,15.66,6.48,0,0,7.71-25.68,12.84-32.6s7.18-16.14,8.46-30c1.21-13.08,8.32-71.34,6.11-87.78C98.39,166.88,82.3,169.82,68.69,164.82Z"/><path class="cls-35" d="M102.8,168.08c-.06-.76-.12-1.48-.21-2.11-4.2.91-20.29,3.85-33.9-1.15a36.2,36.2,0,0,0-3.66,21c1.85-2.12,3.73-4.2,5.69-6.22a20,20,0,0,1,5.3-4.29,21.69,21.69,0,0,1,4.48-1.44l13.83-3.36C97,169.83,100.18,169.36,102.8,168.08Z"/><path class="cls-20" d="M52,361.78s-.49-18.15,1.34-20.85,4.17,0,7.85,0,6.87-1.72,8-.25,1.19,4.88,2.45,4.91c3.17.08,26.37,9.94,26.74,11.9a41.35,41.35,0,0,1,.22,6.28h-26a8.77,8.77,0,0,0-9.91,0h-9A1.72,1.72,0,0,1,52,362Z"/><path class="cls-17" d="M55.4,362l12.51-2.24s-3.56-7.66-5.72-8c-1.52-.25-7.12,1.63-10.25,2.75,0,4,.05,7.28.05,7.28V362Z"/><path class="cls-37" d="M72.67,360.38a9,9,0,0,0-10.06,0H53.46a1.76,1.76,0,0,1-1.52-.88c0,1.4.05,2.28.05,2.28V362a1.72,1.72,0,0,0,1.72,1.77h9a8.77,8.77,0,0,1,9.91,0h26s.05-1.66,0-3.39Z"/><path class="cls-37" d="M90.62,356A6.6,6.6,0,0,0,94,354.55c-7-3.6-20-8.9-22.35-9a.72.72,0,0,1-.55-.29c-.87.94-2.6,2.94-2.71,3.94C68.2,350.58,87.28,356.52,90.62,356Z"/><path class="cls-17" d="M70.2,351.89a.59.59,0,0,1-.23-.05.53.53,0,0,1-.23-.69,18.14,18.14,0,0,1,4.81-6,.52.52,0,0,1,.72.1.51.51,0,0,1-.11.72,17.54,17.54,0,0,0-4.5,5.67A.51.51,0,0,1,70.2,351.89Z"/><path class="cls-17" d="M73.12,353a.46.46,0,0,1-.23-.06.52.52,0,0,1-.23-.69,18.33,18.33,0,0,1,4.78-6,.52.52,0,0,1,.72.11.5.5,0,0,1-.11.71,17.57,17.57,0,0,0-4.47,5.61A.51.51,0,0,1,73.12,353Z"/><path class="cls-17" d="M76,354.08a.46.46,0,0,1-.23-.05.51.51,0,0,1-.22-.69,18,18,0,0,1,4.75-5.91.51.51,0,0,1,.61.82,17.38,17.38,0,0,0-4.45,5.56A.52.52,0,0,1,76,354.08Z"/><path class="cls-17" d="M79,355a.53.53,0,0,1-.24-.06.51.51,0,0,1-.21-.69,18,18,0,0,1,4.63-5.68.5.5,0,0,1,.71.11.51.51,0,0,1-.1.71,17.43,17.43,0,0,0-4.34,5.34A.5.5,0,0,1,79,355Z"/><path class="cls-17" d="M82,356a.57.57,0,0,1-.25-.06.51.51,0,0,1-.2-.7,18,18,0,0,1,4.51-5.46.52.52,0,0,1,.72.1.51.51,0,0,1-.11.72,17.39,17.39,0,0,0-4.22,5.13A.53.53,0,0,1,82,356Z"/><path class="cls-17" d="M85.72,357.11a.41.41,0,0,1-.24-.06.51.51,0,0,1-.22-.69,19.35,19.35,0,0,1,4-5.2.51.51,0,0,1,.72,0,.52.52,0,0,1,0,.73,17.88,17.88,0,0,0-3.81,4.91A.49.49,0,0,1,85.72,357.11Z"/><path class="cls-20" d="M128,359.78s-4.6-17.57-3.42-20.62,4.06-.94,7.65-1.78,6.3-3.23,7.71-2,2.26,4.48,3.5,4.22c3.1-.64,27.94,3.7,28.74,5.52a42.25,42.25,0,0,1,1.64,6.07L148.54,357a8.77,8.77,0,0,0-9.64,2.24l-8.77,2a1.72,1.72,0,0,1-2.08-1.33Z"/><path class="cls-17" d="M131.39,359.21l11.67-5s-5.21-6.65-7.38-6.51c-1.55.1-6.57,3.21-9.37,5,.86,3.9,1.7,7.09,1.7,7.09l0,.21Z"/><path class="cls-37" d="M147.84,353.73A9,9,0,0,0,138,356l-8.91,2.07a1.73,1.73,0,0,1-1.68-.52c.33,1.36.56,2.22.56,2.22l0,.21a1.72,1.72,0,0,0,2.08,1.33l8.77-2a8.77,8.77,0,0,1,9.64-2.24l25.29-5.89s-.32-1.63-.76-3.3Z"/><path class="cls-37" d="M164.32,345.38a6.47,6.47,0,0,0,2.93-2.16c-7.61-1.93-21.53-4.13-23.8-3.66a.75.75,0,0,1-.6-.16c-.63,1.12-1.87,3.46-1.75,4.46C141.26,345.19,161.19,346.65,164.32,345.38Z"/><path class="cls-17" d="M143.39,346l-.12,0a.5.5,0,0,1-.38-.61,18.38,18.38,0,0,1,3.32-7,.52.52,0,0,1,.72-.06.51.51,0,0,1,.06.72,17.61,17.61,0,0,0-3.1,6.55A.52.52,0,0,1,143.39,346Z"/><path class="cls-17" d="M146.48,346.43l-.12,0a.51.51,0,0,1-.38-.62,18.42,18.42,0,0,1,3.3-6.89.52.52,0,0,1,.72-.06.5.5,0,0,1,.06.72A17.66,17.66,0,0,0,147,346,.52.52,0,0,1,146.48,346.43Z"/><path class="cls-17" d="M149.57,346.84h-.13a.52.52,0,0,1-.37-.63,18.22,18.22,0,0,1,3.29-6.83.51.51,0,1,1,.78.66,17.45,17.45,0,0,0-3.07,6.42A.51.51,0,0,1,149.57,346.84Z"/><path class="cls-17" d="M152.71,347.06l-.13,0a.51.51,0,0,1-.37-.62,18,18,0,0,1,3.22-6.58.52.52,0,0,1,.72-.06.5.5,0,0,1,.06.72,17.53,17.53,0,0,0-3,6.18A.51.51,0,0,1,152.71,347.06Z"/><path class="cls-17" d="M155.84,347.31l-.14,0a.51.51,0,0,1-.35-.63,18,18,0,0,1,3.16-6.35.51.51,0,0,1,.78.66,17.37,17.37,0,0,0-2.95,6A.52.52,0,0,1,155.84,347.31Z"/><path class="cls-17" d="M159.69,347.6l-.13,0a.51.51,0,0,1-.37-.63,19.05,19.05,0,0,1,2.75-6,.51.51,0,0,1,.71-.13.52.52,0,0,1,.13.72,18,18,0,0,0-2.6,5.65A.51.51,0,0,1,159.69,347.6Z"/><path class="cls-22" d="M60.77,311l-5.08,28.72c1.45.15,3.21,1.18,5.49,1.18,3.12,0,5.88-1.23,7.32-.71l5.43-24A24.33,24.33,0,0,1,60.77,311Z"/><path class="cls-24" d="M60.13,314.67A94,94,0,0,0,71.41,327.4l2.52-11.17A24.33,24.33,0,0,1,60.77,311Z"/><path class="cls-38" d="M126.1,271c-.26-9.3,2.26-23.3-2.75-34.35C113.08,214,102.82,182.9,102.82,182.9h0c-.66,16.17-2.9,38.25-4.57,54,4.94,6.07,7.85,12.69,8.35,26.3.58,15.7,9,49.71,9,49.71,6.11.88,15.12-3.78,15.12-3.78S126.37,280.32,126.1,271Z"/><path class="cls-22" d="M129.86,309.53c-2.14,1-7.83,3.43-12.55,3.45,1.31,4.74,4.81,17.08,8,25.12,1.43-1.39,4,0,7-.72,2.47-.57,4.53-1.89,6-2.26C136.4,329.63,132.48,318.05,129.86,309.53Z"/><path class="cls-35" d="M102.82,182.9h0c-.66,16.17-2.9,38.25-4.57,54,.79,1,1.52,2,2.2,3,1-15.15,5.93-33.49,7.37-42.48C105.63,191.12,102.82,182.9,102.82,182.9Z"/><path class="cls-24" d="M130.6,311.91l-.74-2.38c-2.14,1-7.83,3.43-12.55,3.45.51,1.86,1.36,4.88,2.4,8.36l.07-.09a57.27,57.27,0,0,1,7.21-6.89C128,313.53,129.46,312.8,130.6,311.91Z"/><path class="cls-39" d="M567.33,153.76a55,55,0,0,1,8.48,24.39c1,13.64,1.44,32,6.2,42,0,0-19.85,7-33.49,5.37l-1.85-3.74s-15.46,7.68-24.82.65l-2.22-26,4.25-43.7Z"/><path class="cls-40" d="M575.81,178.15a55,55,0,0,0-8.48-24.39l-43.45-1.09-.69,7.09c2.61.26,5.19.29,7.21.34a26,26,0,0,1,14.53,3.83l9.78,4.94c5.15,2.6,10.34,5.23,14.92,8.75a61.38,61.38,0,0,1,6.55,5.94C576.06,181.7,575.94,179.88,575.81,178.15Z"/><path class="cls-13" d="M557.17,58.08s-7.25-3.9-9.83-4.08S529,63.06,529,63.06s-4.34,12.45-4.91,19.3.43,62.22,1.83,71.48c0,0,15.47,4.68,28.24,1.26,0,0-1.17-63,1-73.8A134.25,134.25,0,0,0,557.17,58.08Z"/><path class="cls-41" d="M543.54,65.37a18.58,18.58,0,0,1-13.25,4.22,4.09,4.09,0,0,1-1.51-.33,3.13,3.13,0,0,1-1.57-3,7,7,0,0,1,1.27-3.34,21.72,21.72,0,0,1,11.91-8.74c2.13-.67,5.14-1.57,7.37-1,2.64.65,1.79,3.06,1,5A18.54,18.54,0,0,1,543.54,65.37Z"/><path class="cls-42" d="M557.17,58.08s-3,9.72-6.57,19.6c-5.49,15.43-2.48,43.4-.29,52.17a78,78,0,0,0-9,6.65s5,7.61,5.51,13.11c0,0,2.93-.82,4.67-1.37l-.18,15.32a22.57,22.57,0,0,0,10.92,0c5.23-1.56,11.1-.74,12-.92s-2.66-19.08-1.83-25.32c0,0,13.22-6.43,15.05-10.81s-.7-17.35-3.38-23.84-4.66-27.79-11.71-34.43A59.68,59.68,0,0,0,557.17,58.08Z"/><path class="cls-43" d="M551.51,148.24h0c10.39.15,18.87,6.37,22.55,9.58-.71-6.08-2.19-16.24-1.63-20.5Z"/><polygon class="cls-43" points="551.51 148.24 551.51 148.24 551.51 148.24 551.51 148.24"/><path class="cls-43" d="M550.31,129.85s14.1-9.39,21-12.67c0,0-11.51-22.42-13.3-34.82a86.54,86.54,0,0,0,9.28,33.11l-17,14.38"/><path class="cls-42" d="M507.86,152c-.54-30.86,2.26-70,6.25-76.9S528.48,62.9,528.48,62.9s-7.22,17.46-1.28,93.45L516,153.72v10.53l-8.2-2Z"/><path class="cls-43" d="M515.93,86.09v60.37l2.86,3C519.68,129.76,515.93,86.09,515.93,86.09Z"/><path class="cls-44" d="M559.57,59.26c-1.48-.77-2.4-1.18-2.4-1.18s-3,9.72-6.57,19.6c-5.49,15.43-2.48,43.4-.29,52.17,0,0-2.43,1.54-5.06,3.48l7.59-5.14c-6.85-32.34-1.1-48.86,1.93-55.27A89.3,89.3,0,0,0,559.57,59.26Z"/><path class="cls-44" d="M554.61,164.12V146.6l-3.18,1.66.08,0-.18,15.32A22.73,22.73,0,0,0,554.61,164.12Z"/><path class="cls-45" d="M554.61,148.47v-1.85l-3.1,1.62A26.13,26.13,0,0,1,554.61,148.47Z"/><path class="cls-40" d="M541.32,223.79a39.23,39.23,0,0,0,5.35-2s-7.32-22-8.61-32.76C538.06,189,539.65,214,541.32,223.79Z"/><path class="cls-22" d="M622.56,316.49s-7.42-14.86-12.29-28.18-18.22-25.87-20.82-31.07c-2.26-4.52-8.29-29.75-9.85-36.34-5.28,1.66-18.25,5.31-28.7,4.78l-.08,0c6.92,26.5,24.14,40.63,29.33,47.78s29.69,47.55,29.69,47.55a9.74,9.74,0,0,1,.12,3.38c.5,2.26,4.52.88,9.16,0S622.56,316.49,622.56,316.49Z"/><path class="cls-42" d="M623.82,317a.77.77,0,0,0-1.3.29,10.26,10.26,0,0,1-9.66,6.65c-1.14,0-2.56-.14-3.12.85a3.3,3.3,0,0,0-.25,1.53c-.15,4.14-2,8-3.88,11.69s-4.07,7.27-5.32,11.22a8.71,8.71,0,0,0-.25,5.69c1,2.69,4.14,4,7,4.3a11.43,11.43,0,0,0,3.55-.16c3.75-.83,6.52-4.11,8.13-7.61,2.47-5.39,3-11.76,6.65-16.4,1.24-1.56,2.81-2.89,3.64-4.69a12.71,12.71,0,0,0,.89-4.7,5.15,5.15,0,0,0-.11-1.71,5,5,0,0,0-1.23-1.82C627.13,320.51,625.38,318.65,623.82,317Z"/><path class="cls-46" d="M629.81,323.92a5,5,0,0,0-1.23-1.82l-.13-.14v.09a12.87,12.87,0,0,1-.89,4.7c-.83,1.81-2.4,3.14-3.64,4.69-3.68,4.65-4.18,11-6.65,16.4-1.61,3.5-4.38,6.78-8.14,7.62-1.16.25-2.64-1.58-3.75-2-3.76-1.38-4.45-.69-5.71-.42a5.85,5.85,0,0,0,.37,1.84c1,2.69,4.14,4,7,4.3a11.43,11.43,0,0,0,3.55-.16c3.75-.83,6.52-4.11,8.13-7.61,2.47-5.39,3-11.76,6.65-16.4,1.24-1.56,2.81-2.89,3.64-4.69a12.71,12.71,0,0,0,.89-4.7A5.15,5.15,0,0,0,629.81,323.92Z"/><path class="cls-47" d="M616.82,329.1a.78.78,0,0,0-.64-.14,20.48,20.48,0,0,1-5.07,0,6.39,6.39,0,0,0-1.9-.26,33.34,33.34,0,0,1-3.6,9.32c-.72,1.37-1.47,2.74-2.19,4.11.3.89,1.38,1.32,2.33,1.51a6.8,6.8,0,0,0,4.63-.34,6.38,6.38,0,0,0,2.7-3.54c.54-1.42.83-2.92,1.43-4.31.83-1.91,2.24-3.64,2.44-5.71A.77.77,0,0,0,616.82,329.1Z"/><path class="cls-46" d="M617.3,332.33h0a67.08,67.08,0,0,1-9.61-1.21.51.51,0,0,1-.4-.6.5.5,0,0,1,.6-.4,70.15,70.15,0,0,0,9.43,1.19.51.51,0,0,1,0,1Z"/><path class="cls-46" d="M616.65,334.7h0a66.85,66.85,0,0,1-9.61-1.21.51.51,0,1,1,.2-1,68.82,68.82,0,0,0,9.42,1.18.52.52,0,0,1,.51.52A.53.53,0,0,1,616.65,334.7Z"/><path class="cls-46" d="M615.7,337.07h0a68.18,68.18,0,0,1-9.61-1.21.5.5,0,0,1-.4-.6.49.49,0,0,1,.6-.4,68.58,68.58,0,0,0,9.42,1.18.52.52,0,0,1,.51.52A.53.53,0,0,1,615.7,337.07Z"/><path class="cls-46" d="M614.46,339.44h0a68.18,68.18,0,0,1-9.61-1.21.5.5,0,0,1-.4-.6.5.5,0,0,1,.6-.41,66.35,66.35,0,0,0,9.42,1.19.52.52,0,0,1,0,1Z"/><path class="cls-46" d="M613.44,341.81h0a68.64,68.64,0,0,1-9.61-1.21.51.51,0,0,1,.2-1,66.81,66.81,0,0,0,9.43,1.19.51.51,0,0,1,.5.52A.52.52,0,0,1,613.44,341.81Z"/><path class="cls-22" d="M550.2,225.64c-.56,0-1.13-.09-1.68-.16l-1.85-3.74s-12.3,6.1-21.6,2.43a69.32,69.32,0,0,0,2.6,17.44c3.48,13.4,9.43,90.07,8.19,100.74l.17,3.51,14.79-1.5s-2-16.33,0-28.16,2.8-40.34,0-58C549,246.35,549.58,233.11,550.2,225.64Z"/><path class="cls-42" d="M533.71,344c2.55-1.91,8,.79,11.09,0,1.77-.44,3.48-1.26,5.31-1.28a1.78,1.78,0,0,1,1.18.32,1.69,1.69,0,0,1,.47.94,8.36,8.36,0,0,1,0,3.23c-.84,4.9,1.25,9.92.76,14.75a2,2,0,0,1-2,1.76H538.42s-1.93-2.1-6.76,0h-28a2,2,0,0,1-2-2.27c.39-2.43,1.63-6,5.49-6.38C513.06,354.51,527.35,348.77,533.71,344Z"/><path class="cls-46" d="M551.55,359.83H539.16s-2-2.1-6.9,0h-28.6a2,2,0,0,1-1.42-.58,11.74,11.74,0,0,0-.59,2.25,2,2,0,0,0,2,2.27h28c4.83-2.1,6.76,0,6.76,0h12.15a2,2,0,0,0,2-1.76,16.79,16.79,0,0,0,0-2.46A2,2,0,0,1,551.55,359.83Z"/><path class="cls-47" d="M531.81,345.31h0a86.88,86.88,0,0,1-17.12,7.91,2,2,0,0,0,.22.7,1.57,1.57,0,0,0,.65.65,2.47,2.47,0,0,0,1.24.16c5.53-.2,11.33-.61,16-3.56a5.23,5.23,0,0,0,1.54-1.34,2.25,2.25,0,0,0,.38-1.93C534.36,346.82,532.79,345.8,531.81,345.31Z"/><path class="cls-46" d="M534.8,352.35a.59.59,0,0,1-.25-.07,16.34,16.34,0,0,1-5.88-6.18.51.51,0,0,1,.91-.47,15.64,15.64,0,0,0,5.47,5.76.5.5,0,0,1,.2.69A.51.51,0,0,1,534.8,352.35Z"/><path class="cls-46" d="M531.5,353.52a.54.54,0,0,1-.25-.06,16.4,16.4,0,0,1-5.89-6.19.51.51,0,0,1,.91-.46,15.62,15.62,0,0,0,5.48,5.75.52.52,0,0,1,.19.7A.49.49,0,0,1,531.5,353.52Z"/><path class="cls-46" d="M527.7,354.73a.49.49,0,0,1-.3-.1,16.85,16.85,0,0,1-4.88-5.55.51.51,0,0,1,.92-.46,16,16,0,0,0,4.55,5.17.52.52,0,0,1-.29.94Z"/><path class="cls-46" d="M523.74,355.64a.5.5,0,0,1-.31-.1,17,17,0,0,1-4.5-5.28.51.51,0,1,1,.91-.47,16.26,16.26,0,0,0,4.21,4.93.52.52,0,0,1,.1.72A.51.51,0,0,1,523.74,355.64Z"/><path class="cls-46" d="M519.39,356.05a.51.51,0,0,1-.37-.15,17.38,17.38,0,0,1-2.93-3.91.51.51,0,0,1,.22-.69.52.52,0,0,1,.69.22,16.42,16.42,0,0,0,2.75,3.66.51.51,0,0,1-.36.87Z"/><path class="cls-22" d="M508.43,26.61s-1.29,3,0,5.45,3.42,6.18,3.42,9.13-.92,4.89,0,5.17,2.77.19,3.14,1,4.79,10.7,8.3,10.52,6-3.23,6-3.23.83,8.58.74,11.62c0,0,12.88-.09,17.31-12.29l-2.26-10s.41-6.64,1.33-9.26-1-17.82-6.68-18.74-28.17,3.28-29.22,4.85S508.43,26.61,508.43,26.61Z"/><path class="cls-25" d="M510.85,15.91c-3,1.45-5.77,3.9-6.14,7.55a5.62,5.62,0,0,0,1,3.73,3.17,3.17,0,0,0,1.48,1.3,2.72,2.72,0,0,0,1,.11c2.05-.16,3.57-1.91,4.83-3.53a6.14,6.14,0,0,0,5.14,4.18,6.86,6.86,0,0,0,6.08-2.74,8.54,8.54,0,0,0,4.16,3.93,5.16,5.16,0,0,0,5.37-.9,35.41,35.41,0,0,0,3,7.59.72.72,0,0,0,1.33-.34c.07-1.74.16-3.68.2-5.14a13.75,13.75,0,0,0-.06-2.13,2.43,2.43,0,0,1,2.63-2.76A3.24,3.24,0,0,1,543.33,29a5.1,5.1,0,0,1-.29,3.56,7.33,7.33,0,0,1-2.66,3.17c-.3,2.87,1.5,5.79,3.76,7.58a4.09,4.09,0,0,0,3.6,1.08.67.67,0,0,0,.4-.27.69.69,0,0,0,.1-.37,19.49,19.49,0,0,0-.07-4.25s8.67-8.74-2-19.47c0,0,2-9.89-5.21-12.48a10.91,10.91,0,0,0-9.48,1.11s-3-6.59-10.26-5.37C510.82,5.06,510.85,15.91,510.85,15.91Z"/><path class="cls-24" d="M535.15,47.66c-.62,1.88-4.76,6-5.86,7,0,.27.41,4.3.62,7.75C533.67,59.13,535.15,47.66,535.15,47.66Z"/><path class="cls-25" d="M517.69,37.31c.37,1,.34,2-.06,2.11s-1-.56-1.4-1.58-.35-2,.06-2.12S517.31,36.29,517.69,37.31Z"/><path class="cls-25" d="M513.27,34.66a.51.51,0,0,1-.35-.88,5,5,0,0,1,5.13-1.05.51.51,0,0,1,.3.66.52.52,0,0,1-.66.3,4,4,0,0,0-4.07.83A.52.52,0,0,1,513.27,34.66Z"/><path class="cls-25" d="M519.43,52.52a.52.52,0,0,1-.51-.48.51.51,0,0,1,.48-.54,4.43,4.43,0,0,0,2.37-1,12.18,12.18,0,0,0,1.94-2,.51.51,0,1,1,.79.65,14.08,14.08,0,0,1-2.09,2.2,5.49,5.49,0,0,1-2.94,1.23Z"/><path class="cls-24" d="M540.7,28.41a1.76,1.76,0,0,1,1.14.63,1.72,1.72,0,0,1,.26,1.09,6,6,0,0,1-1,2.55c-.08.15-.19.32-.36.34s-.15,0-.23,0-.31.29-.35.51a1.4,1.4,0,0,1-.17.57.39.39,0,0,1-.52.13c-.11-1.38-.16-2.78-.33-4.15,0-.42-.23-.75,0-1.14A1.38,1.38,0,0,1,540.7,28.41Z"/><path class="cls-48" d="M537.88,189.16l-29.71,18.93a3.18,3.18,0,0,1-4.14-.66l-46.52-56.26,50.19-32L539,185.13A3.17,3.17,0,0,1,537.88,189.16Z"/><path class="cls-49" d="M507.7,119.19l-50.19,32,11.95,14.45c10.73-18.67,33.1-39.88,38.84-45.17Z"/><polygon class="cls-50" points="512.26 116.29 452.49 154.37 447.69 148.47 508.97 111.19 512.26 116.29"/><path class="cls-9" d="M521.52,165.07l-8.11-4.6-1.64,2.9,8,4.51L512.19,173l.24-3.37-3.32-.23-.57,8.06,7.68,2.51,1-3.16-3.21-1.05,7.68-5.16a3.22,3.22,0,0,0-.21-5.49Z"/><path class="cls-9" d="M503.43,158.65l-3.12.82.84,3.22,7.82-2.05-.1-8.09-3.33,0,0,3.45-9-5.1a3.23,3.23,0,0,0-4.79,3.23l1.21,9.42,3.31-.43-1.19-9.22Z"/><path class="cls-9" d="M497.7,174l2.76,1.6,1.67-2.88-7-4.06-5.63,5.8,2.39,2.32,2.47-2.55,1.09,8.4a3.23,3.23,0,0,0,5,2.27l6.9-4.64-1.85-2.77L498.74,182Z"/><path class="cls-30" d="M469.7,132.78l1.6-13.59,3.8-1.3,2.6,3.76,5.21-2.46s3.39-13.7,4-13.7h11.54l4.61,9.3L471.1,134.3Z"/><polygon class="cls-31" points="456.71 142.99 454.18 137.53 457.51 135.99 461.19 127.12 464.42 127.86 464.42 130.71 470.89 129.45 473.49 132.78 456.71 142.99"/><path class="cls-31" d="M491,122.14v-4.38s4.09.87,4.09,0v-3.47l5.27-3.12h4.14l.53,2.41Z"/><path class="cls-22" d="M541.85,137.32s-6.41,4.09-9.11,3.8-8.13-2-10.84-2.71-4.93-2.28-6.21-2.42l3.69,7.77s-3.71,3.86-8.19,4.67a39.45,39.45,0,0,1-7,.76s-1.61-.21-1.92.75a1.83,1.83,0,0,0,1.56,2.56,7,7,0,0,1-2.84,0c-1-.36-2.14,1.69-.58,2.7a10.44,10.44,0,0,0,4.25,1.15s-.76,1.76.25,2.27a17.14,17.14,0,0,0,7.25,1s-1.08.62-1.08,1.26.55,1.39,2.2,1.58,9.69.14,12.42-1.2,10-6.8,13.54-9.47a21.27,21.27,0,0,1,7.43-3.38C545.9,144.22,543,139.25,541.85,137.32Z"/><path class="cls-24" d="M539.24,151.82a16,16,0,0,1,2.07-1.32,3.71,3.71,0,0,0-.59-1.62,68.2,68.2,0,0,1-3.74-7.57,2.73,2.73,0,0,0-.78-1c-.34.14-.67.27-1,.38,0,.08,0,.13-.05.23-.15,1.4.68,3.18.87,4.59a29.32,29.32,0,0,1-.19,8.87Z"/><path class="cls-51" d="M542,151.77h0a1.25,1.25,0,0,1-1.67-.59l-5.14-10.78a1.24,1.24,0,0,1,.59-1.67h0a1.24,1.24,0,0,1,1.67.59l5.14,10.77A1.26,1.26,0,0,1,542,151.77Z"/><path class="cls-52" d="M503.75,153a19.49,19.49,0,0,0,2.89.19,20.16,20.16,0,0,0,12.15-3.75.51.51,0,1,0-.62-.81c-6,4.62-14.18,3.37-14.28,3.36l-1.35-.17a2.45,2.45,0,0,0,1.29.68,7,7,0,0,1-2.84,0,.7.7,0,0,0-.61.08Z"/><path class="cls-52" d="M522.93,157.11a22.61,22.61,0,0,1-9.81,2.06c-.63,0-1,0-1,0l-2.55.45a22.63,22.63,0,0,0,2.64.05,3.66,3.66,0,0,0-.8.65l.76-.14c.26,0,6.31.42,11.28-2.15a.51.51,0,1,0-.47-.9Z"/><path class="cls-52" d="M504.48,156.9l.19,0a27.92,27.92,0,0,0,16.54-3.5.53.53,0,0,0,.18-.71.52.52,0,0,0-.7-.18,27.26,27.26,0,0,1-16,3.36h-.17l-1.51.3a13.85,13.85,0,0,0,1.61.21A3.89,3.89,0,0,0,504.48,156.9Z"/><path class="cls-24" d="M549.58,239.78c0-5.52.32-10.51.62-14.14-.56,0-1.13-.09-1.68-.16l-1.85-3.74s-12.3,6.1-21.6,2.43c0,1,0,2.26.16,3.81,1.55.49,3.64.56,4.8.87a46.07,46.07,0,0,1,14,6.46A44.65,44.65,0,0,1,549.58,239.78Z"/><path class="cls-24" d="M579.6,220.9c-5.28,1.66-18.25,5.31-28.7,4.78l-.08,0c.22.86.48,1.66.73,2.48a5.75,5.75,0,0,0,2.29.51c5.55.31,11.21,0,16.78,0a36.32,36.32,0,0,1,9.08.83,18.86,18.86,0,0,1,2.16.72C580.87,226.24,580.05,222.8,579.6,220.9Z"/><rect class="cls-53" x="14.09" y="363.77" width="628.09" height="10.44"/><path class="cls-54" d="M291,382.75a5.6,5.6,0,0,0,1.2,10.14,35.75,35.75,0,0,0,9.53,1.55c11.66.4,23.14-3.69,34.79-4.51,23.13-1.64,45.85,9.6,69,9.32,3.6-.05,7.41-.46,10.38-3.18a7.33,7.33,0,0,0,2.51-5.82c-.31-3.54-3.5-5.08-6.16-5.68-10-2.24-20.21-1.86-30.36-1.66q-26.26.54-52.55-.57c-8.8-.38-17.71-.49-26.49-1.54C298.57,380.29,294.59,380.71,291,382.75Z"/><path class="cls-39" d="M377.39,361.68a5.6,5.6,0,0,0,.77-.08c3.58-.61,13.16.06,17.35,0,0,2,.21,6.41.88,8.47.9,2.73,7.56,10.06,9.45,14.49s-3.38,6-3.38,6H391.78c-5.32.11-9-4.67-11.3-6.79s-2.2-7.79-2.07-14.13-1-8-1-8Z"/><path class="cls-55" d="M378.41,369.69c.13-6.35-1-8-1-8h0a5.6,5.6,0,0,0,.77-.08,26.4,26.4,0,0,1,4-.25c.73,2.21,2.89,9,3.07,12.81.15,3.3-2.57,7.92-4,10.35q-.37-.37-.72-.69C378.15,381.71,378.28,376,378.41,369.69Z"/><path class="cls-56" d="M387.48,385.2c3.64-.34,5.65-3.06,10.69-1.4s6.88,2.39,7.55.54c0,.09.09.18.12.27,1.89,4.43-3.38,6-3.38,6H391.78c-5.32.11-9-4.67-11.3-6.79-1.32-1.2-1.85-3.55-2-6.52C379.81,379.27,384.41,385.48,387.48,385.2Z"/><path class="cls-55" d="M390.78,361.53c1.84.07,3.52.12,4.73.12,0,2,.21,6.41.88,8.47.45,1.37,2.36,3.9,4.38,6.64a.5.5,0,0,1-.18.42.77.77,0,0,1-.48.1,7,7,0,0,1-4.85-2.42,12,12,0,0,1-2.29-4.52,32.26,32.26,0,0,1-1.05-4.55,12.21,12.21,0,0,0-.61-3.39A6.76,6.76,0,0,0,390.78,361.53Z"/><path class="cls-1" d="M383.61,374.29a.39.39,0,0,1-.17-.75c4.68-2.22,11.84-1.05,12.14-1a.39.39,0,0,1,.33.45.4.4,0,0,1-.46.33c-.07,0-7.22-1.18-11.67.93A.38.38,0,0,1,383.61,374.29Z"/><path class="cls-1" d="M383,370.81a.39.39,0,0,1-.17-.75c4.68-2.22,11.84-1.05,12.14-1a.4.4,0,0,1,.33.46.4.4,0,0,1-.46.32c-.07,0-7.22-1.18-11.67.93A.38.38,0,0,1,383,370.81Z"/><path class="cls-1" d="M382.08,368.3a.4.4,0,0,1-.36-.22.41.41,0,0,1,.19-.53c4.69-2.22,11.84-1.05,12.15-1a.4.4,0,0,1,.32.46.38.38,0,0,1-.45.32c-.07,0-7.22-1.18-11.68.93A.33.33,0,0,1,382.08,368.3Z"/><path class="cls-1" d="M381.76,365.2a.41.41,0,0,1-.36-.23.39.39,0,0,1,.19-.53c4.68-2.22,11.84-1,12.14-1a.39.39,0,0,1,.33.45.41.41,0,0,1-.46.33c-.07,0-7.22-1.18-11.68.93A.47.47,0,0,1,381.76,365.2Z"/><path class="cls-39" d="M330.74,361.68a5.74,5.74,0,0,1-.78-.08c-3.57-.61-13.15.06-17.35,0,0,2-.2,6.41-.88,8.47-.89,2.73-7.56,10.06-9.45,14.49s3.38,6,3.38,6h10.68c5.32.11,9-4.67,11.3-6.79s2.21-7.79,2.08-14.13,1-8,1-8Z"/><path class="cls-55" d="M329.72,369.69c-.13-6.35,1-8,1-8h0a5.74,5.74,0,0,1-.78-.08,26.3,26.3,0,0,0-4-.25c-.73,2.21-2.89,9-3.07,12.81-.15,3.3,2.57,7.92,4,10.35q.38-.37.72-.69C330,381.71,329.85,376,329.72,369.69Z"/><path class="cls-56" d="M320.65,385.2c-3.64-.34-5.66-3.06-10.69-1.4s-6.89,2.39-7.55.54l-.13.27c-1.89,4.43,3.38,6,3.38,6h10.68c5.32.11,9-4.67,11.3-6.79,1.33-1.2,1.86-3.55,2.05-6.52C328.31,379.27,323.72,385.48,320.65,385.2Z"/><path class="cls-55" d="M317.34,361.53c-1.84.07-3.51.12-4.73.12,0,2-.2,6.41-.88,8.47-.45,1.37-2.35,3.9-4.38,6.64a.5.5,0,0,0,.18.42.81.81,0,0,0,.49.1,7,7,0,0,0,4.84-2.42,12.12,12.12,0,0,0,2.3-4.52,30.9,30.9,0,0,0,1-4.55,11.87,11.87,0,0,1,.62-3.39A6.66,6.66,0,0,1,317.34,361.53Z"/><path class="cls-9" d="M324.52,374.29a.33.33,0,0,1-.17,0c-4.46-2.11-11.61-.94-11.68-.93a.39.39,0,0,1-.45-.33.39.39,0,0,1,.32-.45c.3-.05,7.47-1.22,12.15,1a.39.39,0,0,1,.18.52A.38.38,0,0,1,324.52,374.29Z"/><path class="cls-9" d="M325.1,370.81a.33.33,0,0,1-.17,0c-4.46-2.11-11.61-.94-11.68-.93a.39.39,0,0,1-.45-.32.4.4,0,0,1,.32-.46c.3-.05,7.46-1.22,12.15,1a.39.39,0,0,1,.18.53A.38.38,0,0,1,325.1,370.81Z"/><path class="cls-9" d="M326,368.3a.35.35,0,0,1-.17,0c-4.46-2.11-11.6-.94-11.67-.93a.4.4,0,1,1-.13-.78c.3-.05,7.46-1.22,12.14,1a.39.39,0,0,1-.17.75Z"/><path class="cls-9" d="M326.37,365.2a.47.47,0,0,1-.17,0c-4.46-2.11-11.6-.94-11.68-.93a.4.4,0,0,1-.45-.33.39.39,0,0,1,.32-.45c.31-.05,7.47-1.22,12.15,1a.4.4,0,0,1-.17.76Z"/><path class="cls-57" d="M366.75,288.94c.37,2.48.68,5.16.94,8.09,1.54,18,9.36,51.87,9.11,56.76s-3.09,9-1,10,10.54-2.31,16.71-1,4.62-3.59,3.34-6.16-4-22.58-4.49-30.29-3.67-72.54-5.61-82.22-2.54-57-7.47-63.66S347.09,175,347.09,175l-26.89,5.49S319,251,317.85,270.11s-1.1,72.64-4,81.45-3.72,10-1,10.29,14.36-.8,18.34,0,3.35-2.87,3-4.62-2.39-3.67-2.23-5.9,7.73-48.39,7.73-66.13,8-79.43,11.31-80.2,5.91,37.79,8.48,51.67c2.15,11.62,5.39,19.46,7.29,32.27"/><path class="cls-58" d="M328.66,348.1a23,23,0,0,1-7.79,5.43c2.76,1.23,6,.06,9,.75a18.89,18.89,0,0,0,3.43.85,7,7,0,0,1-1.32-3.8c0-.52.47-3.35,1.1-7.62C331,344.14,330,346.63,328.66,348.1Z"/><path class="cls-58" d="M376.73,354.58a12.43,12.43,0,0,1,3.67-1.19,38.1,38.1,0,0,0,4.29-.55.92.92,0,0,0,.43-.21.63.63,0,0,0-.1-.85,1.87,1.87,0,0,0-.86-.38,23.63,23.63,0,0,1-4.87-1.56c-1-.49-2-1.46-3.12-1.65a35.78,35.78,0,0,1,.63,5.6C376.78,354.06,376.76,354.32,376.73,354.58Z"/><path class="cls-58" d="M374.7,300.56a1.31,1.31,0,0,0,.4-1.08c.28-6.62-3-12.81-6-18.7-1-2-5.05-12.21-7.69-15.3,1.86,7.44,3.95,14.13,5.34,23.46.37,2.48.68,5.16.94,8.09l.06.72a10.18,10.18,0,0,0,6.09,2.95A1.27,1.27,0,0,0,374.7,300.56Z"/><path class="cls-58" d="M349.65,207.56a2.85,2.85,0,0,0-.5-.85c-3.77-4.25-6.14,6.42-6.38,8.67q-2.26,21.15-3.86,42.38c-.38,5.16-.74,10.41.36,15.47q.66-1.56,1.26-3.15C342.37,248.78,346.75,216.76,349.65,207.56Z"/><path class="cls-58" d="M378.25,180.45c-4.93-6.62-31.16-5.49-31.16-5.49l-26.89,5.49s-.11,6.2-.3,15.41a6.13,6.13,0,0,0,1.53.12c5.19-.2,11.07-2.69,16.2-3.76q8.1-1.68,16.28-3c8.87-1.4,18.26-2.35,26.86-.35C380.07,184.85,379.25,181.8,378.25,180.45Z"/><path class="cls-59" d="M274.3,165.28c1.4.38,2.86,1.11,3.87.07.5-.52.84-1.29,1.54-1.47a1.44,1.44,0,0,1,1.52.67,2.66,2.66,0,0,1,.32,1.71c-.21,2.24-1.93,4-2.88,6-1.26,2.67-.9,5.72-.38,8.63a12.94,12.94,0,0,0,1.08,3.62c.4.64,6.28,5.59,7.61,8.68,0,0,17.55,32,10.56,56s-31.66,15.71-36.92,9c-6.64-8.54-6.77-23.15,2-39.75,0,0,12.11-20.84,11.62-29s-1.44-11.08-5.62-12.69-6.58-2.25-6.58-4.82,1.83-1.85,3.73-1.48,3.43-.29,4.45-2.48S272.43,164.78,274.3,165.28Z"/><path class="cls-60" d="M297.54,249.21c2.56-8.81,1.82-18.67-.14-27.65a48.87,48.87,0,0,1-1.35,9.85c-2.41,9.67-9.2,18.89-18.88,21.27-7,1.71-14.23-.33-20.68-3.68a22.67,22.67,0,0,0,4.13,9.16C265.88,264.92,290.55,273.23,297.54,249.21Z"/><path class="cls-60" d="M280.07,198.56a3,3,0,0,0,.36-3.82,2.63,2.63,0,0,0,1.63-3.1,6.19,6.19,0,0,0-2.15-3.13c-1.31-1.16-4.18-3.76-6-3.26.14,1.2.25,2.57.34,4.13.18,3-1.31,7.62-3.27,12.32a9.36,9.36,0,0,0,1.63,3,4.65,4.65,0,0,0,2,1.51,2.46,2.46,0,0,0,2.41-.44c1.51-1.43.06-4.31,1.39-5.92A16.54,16.54,0,0,1,280.07,198.56Z"/><path class="cls-61" d="M274.46,196.67a11.46,11.46,0,0,1-4.64-3.92s-1.5,2.29-.35,3.93,3.41,2.78,4.23,2.54,1.13-2,.76-2.55Z"/><path class="cls-61" d="M271.61,178.66s-2.64,4.51-1.51,7.61,6.8,8,8.27,7.93,1.81-2,1.38-3.19-5.09-5.34-5.6-7.67A13.19,13.19,0,0,0,271.61,178.66Z"/><path class="cls-61" d="M277.49,193.94c-2.14-1-6.44-5-7.39-7.67,0,0-1.64,4.31-.28,6.48s5.11,4.92,6.44,4a3.44,3.44,0,0,0,1.24-2.8Z"/><path class="cls-62" d="M277.5,194h0c-2.14-1-6.44-5-7.39-7.67a11.33,11.33,0,0,0-.36,1.15,20.24,20.24,0,0,0,7.16,7.18h0a3.91,3.91,0,0,1-.52,2A3.55,3.55,0,0,0,277.5,194Z"/><path class="cls-62" d="M274.5,197.44h0a1.12,1.12,0,0,1,.09.22,1.54,1.54,0,0,0-.13-1h0a11.46,11.46,0,0,1-4.64-3.92,5.55,5.55,0,0,0-.3.56A12.73,12.73,0,0,0,274.5,197.44Z"/><path class="cls-7" d="M333.77,66.49s-24.33,8.38-29.28,15.16-7,29.43-10.17,38.58c0,0,4.76,6.53,19.72,6.27,0,0,4.27-12,6.1-12.26S324,177.1,324,177.1s32.56,3.5,51.47,0c0,0,1.75-74.67,3.85-75S394.5,114,394.5,114s10.83-3.56,17-12.9a57.6,57.6,0,0,1-6.83-5.61c-2.89-2.89-15.13-18.76-19.54-19.92s-25.45-9.88-28.1-10.19S333.77,66.49,333.77,66.49Z"/><path class="cls-3" d="M316.66,119.88a30.94,30.94,0,0,1-6-1,30,30,0,0,1-3.76-1.44,69.66,69.66,0,0,1-10.45-5.8c-.22,1.08-.45,2.13-.67,3.12a69.63,69.63,0,0,0,10.86,6.08,31.71,31.71,0,0,0,3.76,1.45,27.8,27.8,0,0,0,4.88.91C315.7,122.15,316.17,121,316.66,119.88Z"/><path class="cls-63" d="M382.79,91.59A22.37,22.37,0,0,1,388,80.37a16.37,16.37,0,0,1,1.72-1.56c-1.85-1.74-3.48-3-4.6-3.29-.85-.22-2.29-.71-4.1-1.37a13.29,13.29,0,0,0-4.67,7.2,26.63,26.63,0,0,0-.46,6q0,7.25.11,14.5a5.42,5.42,0,0,0,.65,3.06,3,3,0,0,0,1.78,1.21c.27-2.48.55-3.94.84-4,.51-.07,1.68.6,3.15,1.64A52.7,52.7,0,0,1,382.79,91.59Z"/><path class="cls-63" d="M325.15,113.41a6,6,0,0,0,.05-3.52,74.4,74.4,0,0,0-2-7.49Q321.28,96.11,319,90c-1.57-4.23-3.31-8.47-6.11-12a6.51,6.51,0,0,0-1.66-1.57,34.91,34.91,0,0,0-4.6,3.11,2.49,2.49,0,0,0,.09.37c1.18,2.86,2.72,5.54,3.78,8.48,3.53,9.73,5.63,20.13,4.84,30.46a26,26,0,0,0-.14,4.66c1.4-3.57,3.73-9,5-9.23.26,0,.52,1.25.79,3.46.63-.62,1.27-1.23,2-1.79A7.28,7.28,0,0,0,325.15,113.41Z"/><path class="cls-64" d="M347.09,75.72c0,.7,1.81,70.36,1.19,102.87l1.18,0c.63-32.55-1.16-102.23-1.18-102.93Z"/><path class="cls-61" d="M356.25,69.28a43,43,0,0,1-.85-16.5H337.72a43,43,0,0,1-.85,16.5s6.06,8.79,9.69,8.6S356.25,69.28,356.25,69.28Z"/><path class="cls-65" d="M337.72,52.78a41.75,41.75,0,0,1,.33,9.08,26.9,26.9,0,0,1,7.9-3.11c1.53-.33,3.08-.52,4.64-.7l4.41-.54a35.57,35.57,0,0,1,.41-4.73Z"/><path class="cls-3" d="M337.76,61.35a10.31,10.31,0,0,0,3.43,2.92c.37.17.75.33,1.12.48l1.95.78a28.29,28.29,0,0,1-4.53,7.58,12.69,12.69,0,0,1-6-6.62A16.29,16.29,0,0,1,337.76,61.35Z"/><path class="cls-3" d="M355.37,61.35a10.31,10.31,0,0,1-3.43,2.92c-.37.17-.75.33-1.13.48l-1.94.78a28.29,28.29,0,0,0,4.53,7.58,12.73,12.73,0,0,0,6-6.62A16.43,16.43,0,0,0,355.37,61.35Z"/><path class="cls-17" d="M326.64,69.17s4.65,20.48,17.62,32.55c0,0,1.92,68.57,0,82.19,0,0-19.44,1.17-24.06-3.46,0,0,2-60.53,0-65.48s-9.12-33.24-13.14-35.84C307.06,79.13,317.8,70.24,326.64,69.17Z"/><path class="cls-17" d="M354.11,100.86c11.93-12,15.59-31.69,15.59-31.69l15.45,6.35s-6.32,26.33-6.71,30.7-.34,61.94.46,71.36c0,0,2,5.44-.79,5.44h-24Z"/><path class="cls-66" d="M345.05,143.49c-.05-5.16-.13-10.3-.21-15.13-2.54.24-4.93.34-7.15.36.25-14.54.24-28-.34-35.18a74.49,74.49,0,0,1-7.73-15c-.14,8.14-.52,28.43-1.27,49.76a60.94,60.94,0,0,1-7.32-1.23c.06,4.43.06,9.68,0,15.14a57.23,57.23,0,0,0,6.73,1.16c-.66,15.37-1.53,29.92-2.64,39.41A55,55,0,0,0,336,184c.27-6.65.9-22.88,1.34-40.13C339.74,143.86,342.3,143.75,345.05,143.49Z"/><path class="cls-66" d="M378.25,145c0-5.75-.05-11.58,0-16.92q-2.93.67-5.9,1.08c.16-26,1.31-49.31,1.8-58.13l-4.41-1.81a78.19,78.19,0,0,1-7.5,20.57c-.17,9.51-.53,24.57-.93,40a68.69,68.69,0,0,1-7.16-.49v17.49a57.92,57.92,0,0,0,6.7.5c-.41,15.43-.8,29.22-1,35.76H374c-1-11.43-1.43-24.07-1.6-36.68A56.41,56.41,0,0,0,378.25,145Z"/><path class="cls-3" d="M390,109.88c.85.74,1.63,1.44,2.3,2,7.62-3.12,14.87-9.42,17.67-12-.69-.53-1.55-1.19-2.45-1.94C402.94,101.61,394.28,107.17,390,109.88Z"/><path class="cls-61" d="M295.68,121.57h0a35.28,35.28,0,0,1-3.91,13.07c-3.39,6-12.75,25.33-14.2,30.66s.85,17.39,1.56,18.74,3.12,1.28,3.89.71.08-9.72,0-10.86a5.16,5.16,0,0,1,.59-2.36c5.25-4.58,21.34-27.77,23.45-29.81,1.72-1.65,4.17-11.58,5-15.24C302.78,126.26,297.83,123.34,295.68,121.57Z"/><path class="cls-65" d="M295.68,121.57h0a26.68,26.68,0,0,1-.36,2.65,28.07,28.07,0,0,1,6.26,2.51,36.09,36.09,0,0,1,8.61,7.17c.82-2.86,1.53-5.77,1.91-7.42C302.78,126.26,297.83,123.34,295.68,121.57Z"/><path class="cls-61" d="M362.22,28.82s0,16.72-4.14,22.16-6.76,5.85-8.61,5.85H344c-1.86,0-4.47-.41-8.61-5.85s-4.15-22.16-4.15-22.16V24l2-1.6a21.86,21.86,0,0,1,26.92,0l2,1.6Z"/><path class="cls-67" d="M360.73,44.13c-2.47-1.88-8.78-6.39-13.27-6.84-4.68-.47-12.17,5-14.67,7a17.89,17.89,0,0,0,2.62,6.7c4.14,5.44,6.75,5.85,8.61,5.85h5.45c1.78,0,4.29-.4,8.18-5.3l1.51-2.4A25.17,25.17,0,0,0,360.73,44.13Z"/><path class="cls-68" d="M344.1,46.26c-.17-.55-3.7.05-5.48.51-.62.16-4.08.95-4.42,2.09.11.24.22.48.34.71,1,.32,3.9-1.79,4.6-2C340.78,47,344.1,47.37,344.1,46.26Z"/><path class="cls-68" d="M357.35,51.89l-.75-.06c-1.65-.17-3.32-.28-5-.32-.8,0-1.59,0-2.39,0-.56,0-.72.85,3,.88a11.1,11.1,0,0,1,2.22.61,9.86,9.86,0,0,0,1.72.21C356.58,52.81,357,52.37,357.35,51.89Z"/><path class="cls-68" d="M351.56,43.13a4.21,4.21,0,0,1,2,.81,5.26,5.26,0,0,1-1.94.19c-1.83-.07-3.67-.24-5.5-.4-.4,0-1.24-.35-.81-.88.27-.32,1.14-.19,1.5-.18A30.32,30.32,0,0,1,351.56,43.13Z"/><path class="cls-69" d="M331.33,31.67c-1.21-1-3.15-2.14-4.19-.7-1.41,1.94.81,8.06,4.87,8.78C331.6,36.7,331.42,33.74,331.33,31.67Z"/><path class="cls-70" d="M331.59,33.26c-.94-.74-2.42-1.64-3.23-.54-1.08,1.49.62,6.19,3.74,6.75C331.79,37.12,331.65,34.85,331.59,33.26Z"/><path class="cls-69" d="M362.13,31.67c1.21-1,3.15-2.14,4.19-.7,1.41,1.94-.8,8.06-4.87,8.78C361.86,36.7,362,33.74,362.13,31.67Z"/><path class="cls-70" d="M362,33.44c.95-.76,2.46-1.68,3.28-.55,1.1,1.51-.63,6.3-3.81,6.86C361.77,37.37,361.91,35.05,362,33.44Z"/><path class="cls-71" d="M329.55,25.91s.93,9.49,2.65,9.43,3.78-12.47,3.33-12.9S329.55,25.91,329.55,25.91Z"/><path class="cls-71" d="M363.94,25.91s-.94,9.49-2.65,9.43-3.78-12.47-3.33-12.9S363.94,25.91,363.94,25.91Z"/><path class="cls-17" d="M346.74,2.61c-16.28.94-16.09,15.45-16.09,15.45h32.19S363,3.55,346.74,2.61Z"/><path class="cls-72" d="M352.67,18.06a44.62,44.62,0,0,0-5.33-15.4l-.6-.05-.49.05c-1.13,1.63-4,6.43-6.07,15.4Z"/><path class="cls-66" d="M362.22,17.33s8,6.34,5.56,9.13c-1.42,1.64-9.48-3.7-21-3.59-11.55-.11-19.62,5.23-21,3.59-2.4-2.79,5.56-9.13,5.56-9.13h0a56.55,56.55,0,0,1,31,0Z"/><path class="cls-73" d="M367.78,24.82c-1.42,1.64-9.48-3.7-21-3.59-11.55-.11-19.62,5.23-21,3.59a2,2,0,0,1-.29-.5,2.18,2.18,0,0,0,.29,2.14c1.42,1.64,9.49-3.7,21-3.59,11.56-.11,19.62,5.23,21,3.59a2.16,2.16,0,0,0,.3-2.14A1.75,1.75,0,0,1,367.78,24.82Z"/><path class="cls-74" d="M348.21,1.38a1.47,1.47,0,0,1-2.94,0,1.47,1.47,0,0,1,2.94,0Z"/><ellipse class="cls-71" cx="339.52" cy="33.44" rx="1.05" ry="1.89"/><ellipse class="cls-71" cx="353.99" cy="33.44" rx="1.05" ry="1.89"/><path class="cls-71" d="M336.1,30.5a.51.51,0,0,1-.48-.39.56.56,0,0,1,.32-.7A10.84,10.84,0,0,1,342.1,29a.56.56,0,0,1,.36.68.51.51,0,0,1-.62.41,10,10,0,0,0-5.58.34Z"/><path class="cls-71" d="M357.66,30.5a.51.51,0,0,1-.17,0,10.75,10.75,0,0,0-5.8-.34.53.53,0,0,1-.64-.41.57.57,0,0,1,.38-.68,11.76,11.76,0,0,1,6.39.37.56.56,0,0,1,.34.7A.54.54,0,0,1,357.66,30.5Z"/><path class="cls-61" d="M421.52,115.82A117.36,117.36,0,0,0,410,103.17s-6.35,7.49-13.36,9.94A58.63,58.63,0,0,0,406,122s-9.3,12.58-13.43,17.75-8.52,6.32-9.94,6.2a35.2,35.2,0,0,1-4.38-1s-.14,4.84-1.68,5.87-12.12,9.06-14.15,10.29-1.39,3.85,0,4.16c0,0-2.62,1.89-5.23,3.4-1.62.93-.35,3.49,1.49,3.4s4.66-2.29,4.66-2.29a2.15,2.15,0,0,0-.2,2.13,2.63,2.63,0,0,0,3.05.84,20,20,0,0,0,3.63-2.37s-.18,1.54.56,1.94,3.7.12,6.13-1.69,8.44-5.34,10.76-8.55,3.75-6.91,9.53-10.77S422,134.12,424,128.89,425.09,120.33,421.52,115.82Z"/><path class="cls-75" d="M362.41,165.64a.38.38,0,0,0,.19,0,130.17,130.17,0,0,0,11-7.41.37.37,0,1,0-.46-.59,126.89,126.89,0,0,1-10.82,7.31h-.53a1.35,1.35,0,0,0,.63.37l-.53.37Z"/><path class="cls-75" d="M378,164.28a.37.37,0,0,0-.53,0,53.26,53.26,0,0,1-7.85,5.78.57.57,0,0,0-.11.11l-.62.92c.54-.4.93-.71.93-.71a4.87,4.87,0,0,0,0,.67l.27-.39a53.68,53.68,0,0,0,7.92-5.85A.39.39,0,0,0,378,164.28Z"/><path class="cls-75" d="M363.33,169.78a3,3,0,0,0-.39,1l.64-.71c.65-.42,8.71-5.72,13-9.28a.39.39,0,0,0,0-.53.37.37,0,0,0-.52,0c-4.38,3.67-12.84,9.21-12.93,9.26l-.07.06-1,1.15C362.78,170.21,363.33,169.78,363.33,169.78Z"/><rect class="cls-57" x="389.54" y="142.09" width="3.65" height="13.03" rx="0.98" transform="translate(-13.02 256.87) rotate(-35.78)"/><path class="cls-65" d="M403.25,119.82a51.2,51.2,0,0,1,1.51-5.57,27.33,27.33,0,0,1,3.86-7.25,18,18,0,0,1,2.54-2.71c-.4-.39-.81-.78-1.2-1.12,0,0-6.35,7.49-13.36,9.94A70.09,70.09,0,0,0,403.25,119.82Z"/></g></g></svg>