<svg width="130" height="137" viewBox="0 0 130 137" fill="none" xmlns="http://www.w3.org/2000/svg">
<rect x="1" y="1" width="128" height="135" rx="24" fill="white" stroke="#00CC00" stroke-width="2"/>
<path d="M42.5 32V96.75H45V35.0833H92.5V67.5685V100.054C92.5 101.635 91.4606 102.917 90.1786 102.917H39.8214C38.5394 102.917 37.5 101.635 37.5 100.054V44.3333H40V41.25H35V100.054C35 103.332 37.163 106 39.8214 106H90.1784C92.837 106 95 103.332 95 100.054V32H42.5Z" fill="#00CC00"/>
<path d="M52.1428 45.282H70.4285V48.1874H52.1428V45.282ZM52.1428 59.8092H86.4285V62.7147H52.1428V59.8092ZM52.1428 74.3365H79.5714V77.2419H52.1428V74.3365ZM52.1428 88.8637H86.4285V91.7692H52.1428V88.8637Z" fill="#00CC00"/>
</svg>
