<svg xmlns="http://www.w3.org/2000/svg" viewBox="0 0 172.45 198.85"><defs><style>.cls-1{fill:#9976ae;}.cls-2{fill:#e4ae7c;}.cls-10,.cls-11,.cls-12,.cls-13,.cls-2,.cls-3,.cls-4,.cls-5,.cls-6,.cls-7,.cls-8,.cls-9{fill-rule:evenodd;}.cls-3{fill:#d67f54;}.cls-4{fill:#39271f;}.cls-5{fill:#da9077;}.cls-6{fill:#3f2716;}.cls-7{fill:#fff;}.cls-8{fill:#2e1e11;}.cls-9{fill:#4e3832;}.cls-10{fill:#f1d3a4;}.cls-11{fill:#35253d;}.cls-12{fill:#23142b;}.cls-13{fill:#ddba8a;}</style></defs><g id="Layer_2" data-name="Layer 2"><g id="OBJECTS"><rect class="cls-1" y="18.44" width="172.45" height="172.45" rx="29.34"/><path class="cls-2" d="M86.22,198.11h71.45c0-67.2-53.29-30.94-53.29-86.92H67.81c0,56-53,19.72-53,86.92Z"/><path class="cls-2" d="M47.15,77.14C47,75.25,39.21,73,36.63,79.21s2.07,15,10.86,15.7,6.22-.86,6.22-.86Z"/><path class="cls-2" d="M125.49,77.14c.17-1.89,7.93-4.14,10.52,2.07s-2.07,15-10.87,15.7-6.21-.86-6.21-.86Z"/><path class="cls-3" d="M104.67,109.62s-.09,2.6,0,6.38c-6.42,16.11-30,16.71-36.84.73.09-4.17,0-7.11,0-7.11Z"/><path class="cls-2" d="M86.22,119c-45.77,1.1-68.88-111.78,0-108.88C155.11,7.19,132,120.07,86.22,119Z"/><path class="cls-4" d="M65.58,69.41a1.24,1.24,0,0,1-2.46.24,5.35,5.35,0,0,1,.16-1.91,5.34,5.34,0,0,1,4.31-3.88,5.34,5.34,0,0,1,4,.94,5.32,5.32,0,0,1,2.2,4.69,1.24,1.24,0,1,1-2.47-.16A3,3,0,0,0,71,67.91a2.78,2.78,0,0,0-.92-1.1A2.82,2.82,0,0,0,68,66.3a2.9,2.9,0,0,0-2.31,2.08A3,3,0,0,0,65.58,69.41Z"/><path class="cls-5" d="M65.79,79.37c2.33,1.8,2.44,4.42.23,5.87s-5.9,1.16-8.24-.63-2.43-4.42-.22-5.87S63.45,77.58,65.79,79.37Z"/><path class="cls-5" d="M106.91,79.37c-2.33,1.8-2.44,4.42-.22,5.87s5.89,1.16,8.23-.63,2.44-4.42.23-5.87S109.25,77.58,106.91,79.37Z"/><path class="cls-6" d="M72.64,53.36l-.46-.19A12.13,12.13,0,0,0,62.05,54c-.74.48-3.63,2.82-2.81,3.68.33.09,3.21-1.38,4-1.65a11.47,11.47,0,0,1,3.78-.51,10.07,10.07,0,0,1,3.46.71,2.24,2.24,0,0,1,.29.12c2.42,1.17,2.2,1.93,3.85.8C77.2,55.82,74.59,54.37,72.64,53.36Z"/><path class="cls-6" d="M99.81,53.36l.46-.19A12.13,12.13,0,0,1,110.4,54c.74.48,3.63,2.82,2.81,3.68-.33.09-3.21-1.38-4.06-1.65a11.38,11.38,0,0,0-3.77-.51,10.07,10.07,0,0,0-3.46.71,2.34,2.34,0,0,0-.3.12c-2.41,1.17-2.19,1.93-3.84.8C95.25,55.82,97.86,54.37,99.81,53.36Z"/><path class="cls-7" d="M74.35,89q6.33-.08,12.62-.08c4.21,0,8.41,0,12.63.08,0,6.62-6.53,9-12.6,9h0C80.88,97.93,74.35,95.57,74.35,89Z"/><path class="cls-3" d="M84.07,101.88a.5.5,0,0,1-.17-.68.48.48,0,0,1,.67-.18,4.85,4.85,0,0,0,2.42.6,4.72,4.72,0,0,0,2.38-.59.5.5,0,0,1,.68.16.49.49,0,0,1-.17.68,5.58,5.58,0,0,1-2.89.75A5.89,5.89,0,0,1,84.07,101.88Z"/><path class="cls-3" d="M85.85,79.87a.5.5,0,0,1,0-1,25,25,0,0,0,3.71-.19c.91-.16,1.57-.4,1.57-.81,0-1.43-1.45-10.31-1.45-10.33a.5.5,0,0,1,.41-.57.5.5,0,0,1,.57.41s1.46,9,1.46,10.49c0,1-1,1.55-2.39,1.78A25,25,0,0,1,85.85,79.87Z"/><path class="cls-3" d="M133.19,84.11a.5.5,0,1,1-1,0,4.78,4.78,0,0,0-.68-3,1.2,1.2,0,0,0-.92-.47,2.84,2.84,0,0,0-1.35.42,8.91,8.91,0,0,0-3.4,4,18.75,18.75,0,0,0-.85,2.3,3.56,3.56,0,0,1,2.32-.67,2.25,2.25,0,0,1,1.07.38,1.77,1.77,0,0,1,.66.94,3.24,3.24,0,0,1-.68,2.69.51.51,0,0,1-.69.13.5.5,0,0,1-.13-.69,2.33,2.33,0,0,0,.55-1.85.76.76,0,0,0-.29-.41,1.34,1.34,0,0,0-.59-.21,2.78,2.78,0,0,0-2.12.89,1,1,0,0,1-.5.32.54.54,0,0,1-.72-.48v0a1.9,1.9,0,0,1,0-.58,15.8,15.8,0,0,1,1-3.13,9.94,9.94,0,0,1,3.82-4.47,3.59,3.59,0,0,1,1.86-.54,2.13,2.13,0,0,1,1.67.82A5.67,5.67,0,0,1,133.19,84.11Z"/><path class="cls-3" d="M40.25,84.11a.5.5,0,0,1-.5.5.5.5,0,0,1-.5-.5,5.67,5.67,0,0,1,.91-3.59,2.13,2.13,0,0,1,1.67-.82,3.59,3.59,0,0,1,1.86.54,9.93,9.93,0,0,1,3.81,4.47,16,16,0,0,1,1.06,3.13,1.9,1.9,0,0,1,0,.58v0a.53.53,0,0,1-.71.48,1,1,0,0,1-.51-.32,2.74,2.74,0,0,0-2.11-.89,1.29,1.29,0,0,0-.59.21.83.83,0,0,0-.3.41,2.39,2.39,0,0,0,.56,1.85.5.5,0,0,1-.82.56,3.29,3.29,0,0,1-.69-2.69,1.84,1.84,0,0,1,.67-.94,2.25,2.25,0,0,1,1.07-.38,3.52,3.52,0,0,1,2.31.67,17.06,17.06,0,0,0-.84-2.3,9,9,0,0,0-3.4-4,2.84,2.84,0,0,0-1.35-.42,1.2,1.2,0,0,0-.92.47A4.78,4.78,0,0,0,40.25,84.11Z"/><path class="cls-4" d="M101.41,69.41a1.24,1.24,0,0,1-2.46.24,5.13,5.13,0,0,1,.15-1.91A5.46,5.46,0,0,1,99.93,66a5.36,5.36,0,0,1,7.46-1.2,5.36,5.36,0,0,1,2.21,4.69,1.24,1.24,0,0,1-2.48-.16A2.85,2.85,0,0,0,106,66.81a2.88,2.88,0,0,0-4.46,1.57A2.77,2.77,0,0,0,101.41,69.41Z"/><path class="cls-8" d="M121.55,36c-8.28-3.57-9.93-7.62-12.16-12.29-4.35-9.12-2.07-19.15,6.38-22.35,16.38-6.2,30.1,9.56,28,22.29C142.22,32.69,132.38,40.7,121.55,36Z"/><path class="cls-8" d="M51.1,36c8.28-3.57,9.93-7.62,12.16-12.29,4.34-9.12,2.07-19.15-6.38-22.35-16.38-6.2-30.1,9.56-28,22.29C30.43,32.69,40.27,40.7,51.1,36Z"/><path class="cls-9" d="M47.23,86.07C49,84.22,45.8,74.9,48.31,62s33-28.53,37.93-35.57c5,7,35.42,22.67,37.93,35.57s1.1,15.91,2.91,17.76c1.39,1.42,19.37-71.88-40.84-71.35C21.17,8.41,47,86.27,47.23,86.07Z"/><path class="cls-10" d="M86.11,25.05c2,12.1-22.88,18.63-28,50.92-4.54,28.81,3.49,57.35,3.49,57.35.39,1.6-1.45.81-3.18-2.79-2.63-5.47-18.28-34.95-12.68-61.9S72.91,29.3,86.11,25.05Z"/><path class="cls-10" d="M86.34,25.05c-2,12.1,22.88,18.63,28,50.92,4.53,28.81-3.49,57.35-3.49,57.35-.39,1.6,1.45.81,3.18-2.79,2.63-5.47,18.28-34.95,12.67-61.9S99.54,29.3,86.34,25.05Z"/><path class="cls-11" d="M105.72,124.75c-10.26,6.79-29.37,7.46-39.19-.27A35.84,35.84,0,0,1,64,132.12c12.25,7.75,31.75,7.25,44.25.1A35.51,35.51,0,0,1,105.72,124.75Z"/><path class="cls-11" d="M14.78,198.11H157.67c0-26.85-8.51-37.18-18.73-43.48-28.81,34.92-75.87,34.7-104.45-.65C23.85,160.23,14.78,170.32,14.78,198.11Z"/><path class="cls-12" d="M34.46,177.57a.75.75,0,0,1,.75-.74.73.73,0,0,1,.73.75l-.18,20.54a.74.74,0,0,1-1.48,0Z"/><path class="cls-12" d="M136.69,177.57a.74.74,0,0,1,.74-.74.75.75,0,0,1,.74.75L138,198.12a.75.75,0,0,1-1.49,0Z"/><path class="cls-13" d="M58.79,122a.51.51,0,0,1-.23.66.5.5,0,0,1-.67-.23,75.87,75.87,0,0,1-5.51-50.32c3.77-15.71,12.77-30,27-39.5a.49.49,0,0,1,.68.14.5.5,0,0,1-.14.69c-14,9.34-22.91,23.42-26.61,38.9A74.75,74.75,0,0,0,58.79,122Z"/><path class="cls-13" d="M114.55,122.44a.49.49,0,0,1-.66.23.5.5,0,0,1-.23-.66,74.87,74.87,0,0,0,5.44-49.66c-3.7-15.48-12.57-29.56-26.62-38.9a.5.5,0,1,1,.55-.83c14.27,9.49,23.27,23.79,27,39.5A75.81,75.81,0,0,1,114.55,122.44Z"/></g></g></svg>