<svg xmlns="http://www.w3.org/2000/svg" viewBox="0 0 172.45 185.46"><defs><style>.cls-1{fill:#d68119;}.cls-2{fill:#e4ae7c;}.cls-10,.cls-11,.cls-12,.cls-13,.cls-2,.cls-3,.cls-4,.cls-5,.cls-6,.cls-7,.cls-8,.cls-9{fill-rule:evenodd;}.cls-3{fill:#d67f54;}.cls-4{fill:#575756;}.cls-5{fill:#383546;}.cls-6{fill:#784928;}.cls-7{fill:#20201e;}.cls-8{fill:#da9077;}.cls-9{fill:#3f2716;}.cls-10{fill:#2e1e11;}.cls-11{fill:#fff;}.cls-12{fill:#231a11;}.cls-13{fill:#d57b19;}</style></defs><g id="Layer_2" data-name="Layer 2"><g id="OBJECTS"><rect class="cls-1" y="5.05" width="172.45" height="172.45" rx="29.34"/><path class="cls-2" d="M86.22,184.72h-71c-.82-36.3,27.11-57.37,51.09-65.23,1.94-10.13,1.44-23.27,1.44-23.27h36.9s-.49,13.14,1.45,23.27c24,7.86,51.91,28.93,51.09,65.23Z"/><path class="cls-3" d="M104.92,109.25c-2.31,4.41-10.36,8.63-18.7,8.7-8,.06-16.39-3.87-18.69-8.11.23-3.33.3-6.47.32-8.89h36.79C104.65,103.23,104.72,106.14,104.92,109.25Z"/><path class="cls-2" d="M47.15,67.11C47,65.21,39.21,63,36.63,69.18s2.07,15,10.86,15.7S53.71,84,53.71,84Z"/><path class="cls-4" d="M86.22,184.72h-71c-.67-29.42,17.55-48.84,37.25-59.32l2.64-1.35a85.58,85.58,0,0,1,11.2-4.56L66.6,118c8,3.54,23,7.45,39.33.47.06.36.12.71.19,1.07A86.72,86.72,0,0,1,117.18,124c.9.47,1.87,1,2.9,1.48,19.65,10.51,37.79,29.9,37.13,59.26h-71Z"/><path class="cls-2" d="M125.49,67.11c.17-1.9,7.93-4.14,10.52,2.07s-2.07,15-10.87,15.7-6.21-.86-6.21-.86Z"/><path class="cls-2" d="M86.22,108.94C40.45,110,17.34-2.84,86.22.05,155.11-2.84,132,110,86.22,108.94Z"/><path class="cls-3" d="M133.19,74.08a.5.5,0,1,1-1,0,4.83,4.83,0,0,0-.68-3,1.18,1.18,0,0,0-.92-.46,2.73,2.73,0,0,0-1.35.42,8.91,8.91,0,0,0-3.4,4,18.75,18.75,0,0,0-.85,2.3,3.56,3.56,0,0,1,2.32-.67,2.25,2.25,0,0,1,1.07.38,1.73,1.73,0,0,1,.66.94,3.21,3.21,0,0,1-.68,2.68.49.49,0,1,1-.82-.55,2.33,2.33,0,0,0,.55-1.85.76.76,0,0,0-.29-.41,1.34,1.34,0,0,0-.59-.21,2.78,2.78,0,0,0-2.12.89,1,1,0,0,1-.5.32.54.54,0,0,1-.72-.48v0a1.9,1.9,0,0,1,0-.58,15.8,15.8,0,0,1,1-3.13,9.94,9.94,0,0,1,3.82-4.47,3.7,3.7,0,0,1,1.86-.55,2.15,2.15,0,0,1,1.67.83A5.67,5.67,0,0,1,133.19,74.08Z"/><path class="cls-3" d="M40.25,74.08a.5.5,0,0,1-.5.5.5.5,0,0,1-.5-.5,5.67,5.67,0,0,1,.91-3.59,2.15,2.15,0,0,1,1.67-.83,3.7,3.7,0,0,1,1.86.55,9.93,9.93,0,0,1,3.81,4.47,16,16,0,0,1,1.06,3.13,1.9,1.9,0,0,1,0,.58v0a.53.53,0,0,1-.71.48,1,1,0,0,1-.51-.32,2.74,2.74,0,0,0-2.11-.89,1.29,1.29,0,0,0-.59.21.83.83,0,0,0-.3.41,2.39,2.39,0,0,0,.56,1.85.51.51,0,0,1-.13.69.5.5,0,0,1-.69-.14A3.26,3.26,0,0,1,43.39,78a1.8,1.8,0,0,1,.67-.94,2.25,2.25,0,0,1,1.07-.38,3.52,3.52,0,0,1,2.31.67,17.06,17.06,0,0,0-.84-2.3,9,9,0,0,0-3.4-4,2.73,2.73,0,0,0-1.35-.42,1.18,1.18,0,0,0-.92.46A4.83,4.83,0,0,0,40.25,74.08Z"/><path class="cls-5" d="M34.46,164.17a.74.74,0,0,1,1.48,0l-.18,20.53a.75.75,0,0,1-.75.74.73.73,0,0,1-.73-.75Z"/><path class="cls-5" d="M136.69,164.17a.73.73,0,0,1,.74-.73.75.75,0,0,1,.74.75L138,184.72a.75.75,0,1,1-1.49,0Z"/><path class="cls-6" d="M43.9,58.81c.6-2.38,1.61-9.24,1.67-8.17,1.08,20.86,9.25,34.55,16.78,40.54S58.21,76.51,85.47,76.79H87c27.27-.28,15.7,20.31,23.13,14.39s15.7-19.68,16.78-40.54c.06-1.07,1.06,5.79,1.66,8.17-4.3,26-20.8,50.65-42.32,50.13C64.71,109.46,48.2,84.79,43.9,58.81Z"/><path class="cls-6" d="M45.52,66.39c.56-1.63.9-5,.84-9.4-.08-6.09,8.35-9.09,7.34-17.81-3-25.6,16.88-16.93,32.52-16.92V.05h0C46.54-1.61,37.39,35.14,45.52,66.39Z"/><path class="cls-6" d="M127.07,65.84a43.38,43.38,0,0,1-1-8.85c-.24-6.08-8.35-9.09-7.35-17.81,3-25.6-16.88-16.93-32.52-16.92V.05C125.67-1.6,134.94,34.71,127.07,65.84Z"/><path class="cls-7" d="M70.84,56.55a4.1,4.1,0,1,1-5.73.92A4.09,4.09,0,0,1,70.84,56.55Z"/><path class="cls-7" d="M101.86,56.55a4.1,4.1,0,1,0,5.73.92A4.09,4.09,0,0,0,101.86,56.55Z"/><path class="cls-8" d="M65.79,71.43c2.33,1.79,2.44,4.42.23,5.87s-5.9,1.16-8.24-.63-2.43-4.42-.22-5.87S63.45,69.64,65.79,71.43Z"/><path class="cls-8" d="M106.91,71.43c-2.33,1.79-2.44,4.42-.22,5.87s5.89,1.16,8.23-.63,2.44-4.42.23-5.87S109.25,69.64,106.91,71.43Z"/><path class="cls-9" d="M72.64,45.42l-.46-.19a11.76,11.76,0,0,0-5.24-.68,11.51,11.51,0,0,0-4.89,1.53c-.74.48-3.63,2.82-2.81,3.68.33.09,3.21-1.38,4-1.65a11.47,11.47,0,0,1,3.78-.51,10.31,10.31,0,0,1,3.46.7l.29.12c2.42,1.18,2.2,1.93,3.85.8C77.2,47.87,74.59,46.43,72.64,45.42Z"/><path class="cls-9" d="M99.81,45.42l.46-.19a11.76,11.76,0,0,1,5.24-.68,11.55,11.55,0,0,1,4.89,1.53c.74.48,3.63,2.82,2.81,3.68-.33.09-3.21-1.38-4.06-1.65a11.38,11.38,0,0,0-3.77-.51,10.31,10.31,0,0,0-3.46.7l-.3.12c-2.41,1.18-2.19,1.93-3.84.8C95.25,47.87,97.86,46.43,99.81,45.42Z"/><path class="cls-3" d="M84.07,93.93a.49.49,0,0,1-.17-.67.48.48,0,0,1,.67-.18,4.85,4.85,0,0,0,2.42.6,4.62,4.62,0,0,0,2.38-.6.5.5,0,0,1,.68.17.49.49,0,0,1-.17.68,5.58,5.58,0,0,1-2.89.74A5.79,5.79,0,0,1,84.07,93.93Z"/><path class="cls-3" d="M85.85,76a.5.5,0,0,1-.5-.49.51.51,0,0,1,.5-.5,25,25,0,0,0,3.71-.19c.91-.16,1.57-.4,1.57-.81,0-1.43-1.45-10.31-1.45-10.33a.5.5,0,0,1,1-.16s1.46,9,1.46,10.49c0,1-1,1.55-2.39,1.78A25,25,0,0,1,85.85,76Z"/><path class="cls-10" d="M67.41,47.06A14.68,14.68,0,1,1,57,51.36a14.59,14.59,0,0,1,10.37-4.3Zm8.62,6a12.19,12.19,0,1,0,3.57,8.62A12.18,12.18,0,0,0,76,53.11Z"/><path class="cls-10" d="M105,47.06a14.68,14.68,0,1,1-10.37,4.3A14.61,14.61,0,0,1,105,47.06Zm8.62,6a12.22,12.22,0,1,0,3.56,8.62A12.2,12.2,0,0,0,113.66,53.11Z"/><path class="cls-10" d="M53.54,60.53a1,1,0,1,1,.67,1.86l-8.74,3.15a1,1,0,1,1-.66-1.86Z"/><path class="cls-10" d="M118.28,62.39a1,1,0,0,1,.66-1.86l8.74,3.15a1,1,0,0,1,.6,1.26,1,1,0,0,1-1.27.6Z"/><path class="cls-10" d="M81.05,60.59a1,1,0,1,1-1.69-1s1.69-2.86,6.86-2.86,6.86,2.85,6.86,2.86a1,1,0,0,1-.33,1.36,1,1,0,0,1-1.36-.33s-1.11-1.9-5.17-1.9S81.06,60.58,81.05,60.59Z"/><path class="cls-11" d="M101.75,80.67C95.52,83,76.58,82.94,70.7,81,74,92.79,98.59,92.6,101.75,80.67Z"/><path class="cls-12" d="M47,22.92c3,.51,8.84.59,11.83-.51,6.51-3.44,13.68,1,27.35.87,6.26,0,22.88-1.37,28.64-8.13,2.86-3.36,1.36,2.48-4.21,6.27,3.3,1.22,10.78,2.6,14.83,1.66C119.6,9,107.17-.83,86.22.05h0C65.36-.82,53,8.93,47,22.92Z"/><path class="cls-13" d="M60.5,121.26a1.49,1.49,0,1,1,3,0A53.66,53.66,0,0,0,71.06,148c4.13,6.74,9.52,11.43,15.16,11.43S97.46,154.81,101.6,148A53.11,53.11,0,0,0,109,121.26a1.49,1.49,0,0,1,3,0,56.21,56.21,0,0,1-7.81,28.32c-4.67,7.63-11,12.78-17.92,12.78s-13-5.27-17.69-12.86A56.76,56.76,0,0,1,60.5,121.26Z"/></g></g></svg>