<svg width="130" height="137" viewBox="0 0 130 137" fill="none" xmlns="http://www.w3.org/2000/svg">
<rect x="1" y="1" width="128" height="135" rx="24" fill="white" stroke="#00CC00" stroke-width="2"/>
<path d="M73.2935 32.0621V36.2803C73.3803 36.8096 74.4851 37.5521 75.8739 38.4842C79.9931 41.2331 85.9587 45.2301 83.3705 56.5497C83.3201 56.7595 83.223 56.9552 83.0863 57.1221C82.9496 57.289 82.777 57.4228 82.5814 57.5134C82.2393 57.7722 82.0125 58.1552 81.9501 58.5798C81.8486 59.0037 81.8219 59.4422 81.8712 59.8753C81.901 60.2509 82 60.6178 82.1631 60.9575C82.2578 61.1392 82.3446 61.2577 82.4078 61.2734C82.7194 61.3464 82.9974 61.5227 83.1965 61.7736C83.3955 62.0245 83.5041 62.3354 83.5046 62.6558V87.7516C83.504 88.0364 83.4189 88.3145 83.2601 88.5508C83.1014 88.787 82.8761 88.9708 82.6129 89.0787C82.4201 89.1907 82.266 89.3587 82.171 89.5606C81.9395 90.054 81.8286 90.5956 81.8475 91.1404C81.8446 91.7457 81.9655 92.3451 82.2026 92.9019C82.3002 93.1949 82.4881 93.4493 82.7392 93.6287C82.9735 93.747 83.171 93.9274 83.3101 94.1502C83.4492 94.3731 83.5247 94.6298 83.5283 94.8925V110.422C83.536 110.525 83.536 110.628 83.5283 110.73C83.3732 112.026 82.8586 113.253 82.0426 114.27C81.2267 115.288 80.1421 116.057 78.912 116.489C77.9781 116.816 76.987 116.948 76.0002 116.876C75.0202 116.819 74.0643 116.55 73.1988 116.086C72.4857 115.689 71.8603 115.152 71.3602 114.506C70.4916 115.424 69.4061 116.109 68.2038 116.497C66.1528 117.168 63.9419 117.168 61.8909 116.497C60.7054 116.11 59.6361 115.431 58.7818 114.522C58.2806 115.144 57.661 115.659 56.959 116.039C56.0959 116.501 55.1428 116.771 54.1655 116.829C53.1913 116.89 52.2148 116.756 51.2932 116.434C50.0445 115.997 48.9462 115.213 48.1271 114.173C47.308 113.134 46.8022 111.882 46.669 110.565C46.6651 110.501 46.6651 110.438 46.669 110.375V94.9241C46.6673 94.6572 46.7403 94.3951 46.8798 94.1675C47.0193 93.94 47.2196 93.756 47.4581 93.6366C47.6828 93.4501 47.8543 93.2076 47.9552 92.9335C48.1923 92.3767 48.3132 91.7773 48.3103 91.172C48.3254 90.6275 48.2147 90.0868 47.9868 89.5922C47.8846 89.3763 47.7159 89.1991 47.5054 89.0866C47.2193 88.9991 46.9685 88.8224 46.7897 88.5823C46.6108 88.3422 46.5132 88.0512 46.5112 87.7516V62.6558C46.5094 62.3351 46.6161 62.0232 46.8138 61.7708C47.0115 61.5184 47.2886 61.3404 47.6001 61.2656C47.6911 61.1782 47.7636 61.0734 47.8132 60.9575C47.9755 60.617 48.077 60.2508 48.1131 59.8753C48.1544 59.442 48.1278 59.0049 48.0341 58.5798C48 58.3618 47.9222 58.1529 47.8057 57.9656C47.6891 57.7783 47.536 57.6165 47.3555 57.4897C47.1746 57.3918 47.0165 57.2568 46.8914 57.0934C46.7663 56.9301 46.677 56.7421 46.6295 56.5418C44.0413 45.2222 50.0069 41.2252 54.1261 38.4684C55.5386 37.5205 56.6591 36.7701 56.7065 36.2487V32.0621C56.2676 31.9954 55.8614 31.7907 55.5465 31.4776C55.5465 31.4302 55.4597 31.3828 55.4281 31.3354C55.1114 30.9629 54.9379 30.4895 54.9389 30.0004V23.9496C54.9397 23.4481 55.0389 22.9516 55.2308 22.4883C55.4109 22.0298 55.679 21.6112 56.0199 21.256L56.1067 21.1612C56.4741 20.7923 56.9108 20.4998 57.3915 20.3005C57.8723 20.1012 58.3877 19.9991 58.9081 20H71.1077C71.6247 20.0018 72.1365 20.1038 72.6149 20.3002C73.0942 20.4988 73.5289 20.7916 73.8933 21.1612L73.988 21.2639C74.6692 21.9923 75.0498 22.9518 75.0533 23.9496V30.0004C75.0517 30.2744 74.9958 30.5454 74.8888 30.7976C74.7817 31.0499 74.6258 31.2783 74.4299 31.4697C74.1198 31.7808 73.7192 31.9854 73.2856 32.0542L73.2935 32.0621ZM49.3599 83.1938H80.6638V67.2295H49.3599V83.1938ZM80.6638 85.9901H49.3599V86.9775C49.7693 87.3279 50.1069 87.7544 50.3541 88.2335C50.8029 89.1497 51.0274 90.1597 51.0091 91.1799C51.0043 92.1784 50.8032 93.1661 50.4173 94.0868C50.1688 94.6645 49.8095 95.1879 49.3599 95.6272V110.367C49.4494 111.143 49.753 111.878 50.2367 112.491C50.7203 113.103 51.3649 113.569 52.0981 113.835C52.66 114.032 53.2559 114.112 53.8499 114.072C54.4244 114.038 54.9846 113.879 55.4912 113.606C56.0324 113.301 56.4734 112.845 56.7606 112.294C57.0478 111.743 57.1688 111.12 57.1089 110.501C57.0995 110.124 57.2401 109.759 57.4998 109.486C57.7595 109.212 58.1171 109.053 58.4938 109.044C58.8705 109.035 59.2355 109.175 59.5086 109.435C59.7816 109.695 59.9403 110.053 59.9497 110.43V110.596C60.0073 111.365 60.3037 112.097 60.7976 112.689C61.2914 113.281 61.9579 113.704 62.7037 113.898C63.4313 114.14 64.1938 114.26 64.9605 114.254C65.7302 114.257 66.4952 114.134 67.2253 113.89C68.7641 113.361 69.9714 112.255 70.0503 110.588V110.43C70.0447 110.236 70.0789 110.042 70.151 109.862C70.2231 109.681 70.3314 109.517 70.4693 109.38C70.6073 109.243 70.7718 109.136 70.9528 109.065C71.1337 108.994 71.3273 108.961 71.5215 108.968C71.7157 108.975 71.9064 109.022 72.0818 109.106C72.2571 109.19 72.4135 109.308 72.5411 109.455C72.6688 109.602 72.765 109.773 72.8238 109.959C72.8827 110.144 72.9029 110.339 72.8832 110.533C72.825 111.152 72.9477 111.775 73.2362 112.326C73.5247 112.877 73.9668 113.333 74.5088 113.637C75.0075 113.909 75.5597 114.068 76.1264 114.103C76.7333 114.143 77.342 114.063 77.9177 113.866C78.6484 113.597 79.2904 113.131 79.7723 112.519C80.2543 111.907 80.5574 111.173 80.648 110.399V95.6272C80.1959 95.1899 79.8363 94.6661 79.5906 94.0868C79.2011 93.1672 78.9998 92.1788 78.9988 91.1799C78.9737 90.1599 79.1957 89.1489 79.6459 88.2335C79.8985 87.7558 80.2384 87.3297 80.648 86.9775V85.9901H80.6638ZM49.3599 64.4331H80.6638V63.501C80.2466 63.1677 79.9073 62.7471 79.6695 62.2688C79.3368 61.61 79.1307 60.8946 79.0619 60.1597C78.984 59.4092 79.0321 58.6509 79.204 57.9163C79.4251 56.9228 79.9657 56.0293 80.7427 55.3727C82.5892 46.3676 77.7125 43.1052 74.3273 40.8461C72.2598 39.4558 70.6185 38.3578 70.4843 36.4462C70.4804 36.3831 70.4804 36.3197 70.4843 36.2566V32.0858H59.5788V36.2566C59.5394 38.2709 57.8586 39.4163 55.7359 40.8145C52.3506 43.0815 47.4739 46.3439 49.3125 55.349C50.0864 56.0117 50.6146 56.9161 50.8118 57.9163C50.9871 58.653 51.0378 59.414 50.9617 60.1676C50.8941 60.9027 50.6879 61.6183 50.3541 62.2767C50.1139 62.7534 49.7749 63.1735 49.3599 63.5089V64.441V64.4331ZM57.8112 29.2342H72.2046V23.9496C72.2074 23.8087 72.1805 23.6687 72.1257 23.5389C72.08 23.4222 72.0131 23.3151 71.9284 23.2229L71.881 23.1597C71.7801 23.0526 71.6575 22.9684 71.5214 22.9125C71.3853 22.8567 71.2389 22.8305 71.0919 22.8358H58.9081C58.7611 22.8305 58.6147 22.8567 58.4786 22.9125C58.3425 22.9684 58.2199 23.0526 58.119 23.1597C58.0169 23.2594 57.9387 23.3809 57.8901 23.5152C57.8382 23.6431 57.8114 23.7799 57.8112 23.918V29.2026V29.2342Z" fill="#5FDE5F"/>
</svg>
