<svg xmlns="http://www.w3.org/2000/svg" viewBox="0 0 436.72 453.88"><defs><style>.cls-1,.cls-13,.cls-14,.cls-15{fill:none;}.cls-1{stroke:#c5d852;stroke-linejoin:round;stroke-width:10px;}.cls-1,.cls-13,.cls-14{stroke-linecap:round;}.cls-2{font-size:14.69px;}.cls-11,.cls-2,.cls-3,.cls-6{fill:#505329;}.cls-2,.cls-3,.cls-6{font-family:PaytoneOne-Regular, PaytoneOne Regular;}.cls-3{font-size:27.99px;}.cls-4{letter-spacing:0em;}.cls-5{letter-spacing:0em;}.cls-6{font-size:27.31px;}.cls-7{letter-spacing:-0.02em;}.cls-8{fill:#c5d852;}.cls-9{fill:#fff;}.cls-10{fill:#eae6ab;}.cls-12{fill:#d8d08b;}.cls-13,.cls-14{stroke:#505329;}.cls-13,.cls-14,.cls-15{stroke-miterlimit:10;}.cls-13{stroke-width:0.5px;}.cls-15{stroke:#fff;}.cls-16{fill:#bfb871;}</style></defs><g id="Layer_2" data-name="Layer 2"><g id="OBJECTS"><g id="MANUFACTURING"><path class="cls-1" d="M302.34,188.36a102.05,102.05,0,0,0-163.64,0"/><path class="cls-1" d="M127.45,207.45A102.08,102.08,0,0,0,208.87,350.7"/><path class="cls-1" d="M232.27,350.69a102.1,102.1,0,0,0,81.32-143.24"/><polyline class="cls-1" points="301.63 167.83 303.55 189 281.67 185.87"/><polyline class="cls-1" points="249.98 360.63 230.87 351.29 244.89 334.21"/><polyline class="cls-1" points="110.96 215.41 129.88 205.72 135.15 227.18"/><text class="cls-2" transform="translate(164.15 147.46) rotate(-26.21)">m</text><text class="cls-2" transform="translate(175 142.22) rotate(-21.51)">a</text><text class="cls-2" transform="translate(181.45 139.66) rotate(-17.79)">n</text><text class="cls-2" transform="matrix(0.97, -0.24, 0.24, 0.97, 189.05, 137.21)">u</text><text class="cls-2" transform="translate(196.8 135.35) rotate(-10.83)">f</text><text class="cls-2" transform="matrix(0.99, -0.14, 0.14, 0.99, 200.89, 134.53)">a</text><text class="cls-2" transform="matrix(1, -0.08, 0.08, 1, 207.78, 133.56)">c</text><text class="cls-2" transform="matrix(1, -0.03, 0.03, 1, 214.4, 133.03)">t</text><text class="cls-2" transform="translate(219.13 132.82) rotate(1.13)">u</text><text class="cls-2" transform="translate(227.1 133.02) rotate(4.22)">r</text><text class="cls-2" transform="translate(231.87 133.39) rotate(6.23)">i</text><text class="cls-2" transform="matrix(0.99, 0.16, -0.16, 0.99, 235.18, 133.69)">n</text><text class="cls-2" transform="matrix(0.97, 0.23, -0.23, 0.97, 243.07, 134.93)">g</text><text class="cls-2" transform="translate(144.58 336.51) rotate(-137.75)">r</text><text class="cls-2" transform="translate(141.18 333.47) rotate(-134.89)">e</text><text class="cls-2" transform="matrix(-0.66, -0.75, 0.75, -0.66, 136.09, 328.35)">c</text><text class="cls-2" transform="translate(131.64 323.33) rotate(-128.16)">y</text><text class="cls-2" transform="translate(127.54 318.11) rotate(-124.98)">c</text><text class="cls-2" transform="translate(123.85 312.79) rotate(-122.56)">l</text><text class="cls-2" transform="matrix(-0.51, -0.86, 0.86, -0.51, 122.03, 309.93)">i</text><text class="cls-2" transform="translate(120.26 307.09) rotate(-118.07)">n</text><text class="cls-2" transform="matrix(-0.41, -0.91, 0.91, -0.41, 116.5, 300.06)">g</text><text class="cls-2" transform="translate(331.04 285.73) rotate(110.46)">u</text><text class="cls-2" transform="matrix(-0.4, 0.91, -0.91, -0.4, 328.23, 293.19)">s</text><text class="cls-2" transform="matrix(-0.45, 0.89, -0.89, -0.45, 325.96, 298.39)">e</text><text class="cls-3" transform="translate(152.98 248.61)">CI<tspan class="cls-4" x="22.92" y="0">R</tspan><tspan class="cls-5" x="38.06" y="0">CULAR</tspan></text><text class="cls-6" transform="translate(153.85 273.28)">E<tspan class="cls-7" x="13.44" y="0">C</tspan><tspan x="28.7" y="0">ONOMY</tspan></text><path class="cls-8" d="M151.14,89.54s-7.39,1.79-10.4-5.1-.44-16.14-.44-16.14a28.89,28.89,0,0,1,10.27,8.25C154.65,82.07,152.93,87.31,151.14,89.54Z"/><path class="cls-8" d="M154.52,92.19a.37.37,0,0,1,0,.14.27.27,0,0,1-.35.08,27.78,27.78,0,0,1-10.59-15.72.25.25,0,1,1,.49-.13A27.26,27.26,0,0,0,154.4,92,.26.26,0,0,1,154.52,92.19Z"/><path class="cls-9" d="M143.72,76.38a.24.24,0,0,0-.18.31,29.06,29.06,0,0,0,7.29,12.91l.31-.06.15-.2A28.42,28.42,0,0,1,144,76.56.24.24,0,0,0,143.72,76.38Z"/><path class="cls-8" d="M224,21.41s-5.21-5.54-.71-11.56S237.09,1.5,237.09,1.5a28.86,28.86,0,0,1-2.1,13C232.21,20.78,226.8,21.87,224,21.41Z"/><path class="cls-8" d="M223.34,25.66a.21.21,0,0,1-.13,0,.26.26,0,0,1-.25-.26,27.78,27.78,0,0,1,8.44-17,.25.25,0,0,1,.36.36,27.19,27.19,0,0,0-8.29,16.63A.23.23,0,0,1,223.34,25.66Z"/><path class="cls-9" d="M231.76,8.46a.25.25,0,0,0-.36,0,29.07,29.07,0,0,0-7.63,12.71c.13.16.21.24.21.24a2.13,2.13,0,0,0,.25,0,28.33,28.33,0,0,1,7.53-12.62A.25.25,0,0,0,231.76,8.46Z"/><path class="cls-8" d="M140.83,100.1s.07-3.93-3.74-4.67S128.9,97,128.9,97a14.88,14.88,0,0,0,5.32,4.25A5.45,5.45,0,0,0,140.83,100.1Z"/><path class="cls-8" d="M142.55,101.51s0,0,.06,0a.12.12,0,0,0,0-.18,14.37,14.37,0,0,0-9.13-3.57.13.13,0,0,0-.13.13.12.12,0,0,0,.12.13,14.09,14.09,0,0,1,9,3.49A.11.11,0,0,0,142.55,101.51Z"/><path class="cls-9" d="M133.36,97.85a.13.13,0,0,1,.13-.13,15,15,0,0,1,7.34,2.22v.16a.39.39,0,0,1-.08.1A14.78,14.78,0,0,0,133.48,98,.12.12,0,0,1,133.36,97.85Z"/><path class="cls-8" d="M243.79,16.87s.42-3.91,4.29-4.17S256,15.3,256,15.3a14.82,14.82,0,0,1-5.8,3.55A5.46,5.46,0,0,1,243.79,16.87Z"/><path class="cls-8" d="M241.91,18.05l-.06,0a.14.14,0,0,1,0-.19,14.31,14.31,0,0,1,9.49-2.41.13.13,0,0,1,.12.14.13.13,0,0,1-.14.12A14.06,14.06,0,0,0,242,18,.13.13,0,0,1,241.91,18.05Z"/><path class="cls-9" d="M251.49,15.55a.13.13,0,0,0-.12-.14,15,15,0,0,0-7.55,1.3l0,.16.07.11a14.72,14.72,0,0,1,7.49-1.31A.13.13,0,0,0,251.49,15.55Z"/><path class="cls-8" d="M280.61,102.78s-2.61-4.4,1.23-7.69,10.3-3.45,10.3-3.45a19.4,19.4,0,0,1-3.29,8.22C286.1,103.58,282.39,103.5,280.61,102.78Z"/><path class="cls-8" d="M279.57,105.48h-.1a.18.18,0,0,1-.12-.21,18.71,18.71,0,0,1,8-9.9.16.16,0,0,1,.23,0,.18.18,0,0,1-.05.24,18.33,18.33,0,0,0-7.88,9.7A.17.17,0,0,1,279.57,105.48Z"/><path class="cls-9" d="M287.61,95.42a.16.16,0,0,0-.23,0,19.49,19.49,0,0,0-6.87,7.23,1.85,1.85,0,0,0,.1.18l.16.06a19.13,19.13,0,0,1,6.79-7.18A.18.18,0,0,0,287.61,95.42Z"/><polygon class="cls-8" points="189.93 112.3 180.21 24.97 168.04 26.79 165.08 112.3 189.93 112.3"/><polygon class="cls-10" points="185.98 112.3 267.46 112.3 270.5 40.24 244.67 55.75 240.71 35.08 206.35 56.36 203.01 40.24 180.21 56.05 185.98 112.3"/><polygon class="cls-11" points="245.09 56.45 244.26 55.05 271.38 37.24 272.21 40.26 245.09 56.45"/><polygon class="cls-11" points="206.78 57.05 205.92 55.67 241.27 32.01 242.12 35 206.78 57.05"/><polygon class="cls-11" points="179.44 57.03 178.54 55.69 203.62 37.27 204.52 40.23 179.44 57.03"/><polygon class="cls-11" points="166.14 20.94 166.14 28.61 181.95 28.61 181.04 19.49 166.14 20.94"/><polygon class="cls-9" points="200.27 77.68 192.67 77.68 191.05 68.86 200.27 67.3 200.27 77.68"/><polygon class="cls-9" points="237.55 77.65 229.95 77.65 228.33 68.83 237.55 67.27 237.55 77.65"/><polygon class="cls-9" points="218.66 77.68 209.44 77.68 209.44 67.24 218.66 68.92 218.66 77.68"/><polygon class="cls-9" points="259.37 78.91 250.15 78.91 250.15 68.47 259.37 70.15 259.37 78.91"/><polygon class="cls-12" points="244.05 85.09 209.44 86 211.11 112.3 241.83 112.3 244.05 85.09"/><polygon class="cls-13" points="244.05 85.09 209.44 86 211.11 112.3 241.83 112.3 244.05 85.09"/><line class="cls-14" x1="115.66" y1="112.3" x2="317.85" y2="112.3"/><path class="cls-13" d="M297.36,112.3s-.44-2,.48-3.07"/><path class="cls-13" d="M292.14,112.3a7.15,7.15,0,0,0-.38-1.8"/><path class="cls-13" d="M269.44,112.3s-.17-3.24,1.36-4.29"/><path class="cls-13" d="M271,112.3s0-2.23.92-2.15"/><path class="cls-13" d="M157.38,112.3a9.14,9.14,0,0,0-1-3.86"/><path class="cls-13" d="M160.92,112.12s-.26-1.84.53-2.58"/><path class="cls-13" d="M128.9,112.3a3.23,3.23,0,0,0-1.36-2.89"/><circle class="cls-10" cx="126.06" cy="86.57" r="2.16"/><circle class="cls-10" cx="152.18" cy="101.1" r="0.9"/><circle class="cls-10" cx="284.26" cy="75.27" r="3.75"/><circle class="cls-10" cx="306.41" cy="84.04" r="1.05"/><circle class="cls-10" cx="253.12" cy="36.71" r="1.63"/><circle class="cls-10" cx="190.73" cy="40.59" r="0.8"/><path class="cls-8" d="M183.89,5.71A5.44,5.44,0,0,0,178.51,0a5.71,5.71,0,0,0-5.71,5.71A5.71,5.71,0,0,0,167.1,0a5.44,5.44,0,0,0-5.38,5.71,5.33,5.33,0,0,0,.09,1h0a1.11,1.11,0,0,1,0,.13c0,.23.11.46.18.68.62,2,2.62,7,10.79,9.18C181,14.47,183,9.46,183.6,7.5c.07-.22.13-.45.18-.68a1.11,1.11,0,0,1,0-.13h0A5.33,5.33,0,0,0,183.89,5.71Z"/><circle class="cls-8" cx="153.72" cy="57.58" r="3.44"/><circle class="cls-8" cx="155.31" cy="69.1" r="0.8"/><circle class="cls-8" cx="140.05" cy="45.31" r="0.78"/><circle class="cls-8" cx="307.46" cy="103.17" r="0.78"/><circle class="cls-8" cx="191.72" cy="17.95" r="1.78"/><circle class="cls-8" cx="248.28" cy="4.83" r="1.62"/><circle class="cls-8" cx="234.65" cy="25.71" r="0.82"/><circle class="cls-8" cx="292.45" cy="64.94" r="1.17"/><circle class="cls-8" cx="275.76" cy="64.57" r="0.81"/><line class="cls-13" x1="224.3" y1="108.91" x2="227.99" y2="108.91"/><circle class="cls-11" cx="372.92" cy="302.94" r="3.63"/><line class="cls-14" x1="382.3" y1="245.02" x2="385.68" y2="246.41"/><line class="cls-14" x1="407.89" y1="263.96" x2="402.79" y2="276.34"/><rect class="cls-8" x="366.3" y="247.96" width="34.99" height="57.13" rx="1.52" transform="translate(134.26 -125.34) rotate(22.39)"/><path class="cls-10" d="M400,257.7h0a1.43,1.43,0,0,1-1.86.78l-11.56-4.77a1.43,1.43,0,0,1-.78-1.86h0A1.41,1.41,0,0,0,385,250l-2.77-1.14a1.9,1.9,0,0,0-2.5,1l-17.6,42.71a1.93,1.93,0,0,0,1.05,2.51l22.19,9.14a1.92,1.92,0,0,0,2.51-1l17.59-42.71a1.92,1.92,0,0,0-1-2.51l-2.6-1.07A1.43,1.43,0,0,0,400,257.7Z"/><polygon class="cls-9" points="387.78 264.75 393.16 269.96 384.48 274.88 388.81 277.72 377.9 285.68 382.45 278.39 378.6 274.39 387.78 264.75"/><circle class="cls-9" cx="389.25" cy="252.03" r="1.03"/><line class="cls-15" x1="392.39" y1="253.33" x2="398.17" y2="255.71"/><path class="cls-13" d="M372.93,302.94s-11.54,21.62,4.49,36.11c12.05,10.88,30.25-7.73,23.92-13.56-4-3.68-14.53.92-25.29,24.18-7.48,16.17-17.48,3.54-25.77-11.45s-16.1-8.14-19.81-2"/><path class="cls-11" d="M331.83,333.47c-1.63-.64-3.79,1-4.82,3.58l5.9,2.33C333.94,336.76,333.46,334.11,331.83,333.47Z"/><line class="cls-13" x1="326.93" y1="340.31" x2="329.47" y2="336.41"/><line class="cls-13" x1="330.68" y1="340.64" x2="331.24" y2="337.15"/><path class="cls-13" d="M366,359.14a6.21,6.21,0,0,0,7.12-1.57"/><path class="cls-13" d="M396.47,322.3a5.58,5.58,0,0,1,6.23.48"/><path class="cls-11" d="M274.67,382.7l20.94,42.13a2.34,2.34,0,0,0,2.9,1.16l58.56-21.39a2.32,2.32,0,0,0,1.43-2.84l-14.35-48.33a2.35,2.35,0,0,0-3.16-1.5l-65,27.24A2.58,2.58,0,0,0,274.67,382.7Z"/><path class="cls-10" d="M280.42,384.24,294,412.61a1.24,1.24,0,0,0,1.55.63l55.4-20.46a1.25,1.25,0,0,0,.75-1.55L341.4,359.16c-.24-.9-1.44-1.27-2.57-.81l-57.05,23.37C280.57,382.21,280,383.37,280.42,384.24Z"/><circle class="cls-10" cx="308.12" cy="368.47" r="0.54"/><line class="cls-14" x1="319.17" y1="430.05" x2="345.75" y2="419.94"/><rect class="cls-11" x="325.31" y="413.69" width="10.14" height="11.68" transform="translate(-127.52 144.78) rotate(-20.81)"/><line class="cls-15" x1="284.45" y1="383.91" x2="290.68" y2="381.54"/><line class="cls-15" x1="286.68" y1="387.38" x2="317.82" y2="375.54"/><line class="cls-15" x1="287.85" y1="390.45" x2="302.85" y2="384.74"/><line class="cls-15" x1="289.66" y1="393.37" x2="315.32" y2="383.62"/><line class="cls-15" x1="291.55" y1="396.77" x2="296.38" y2="394.93"/><polygon class="cls-15" points="310.06 390.24 315.26 401.01 343.66 391.22 339.88 378.9 310.06 390.24"/><polygon class="cls-8" points="385.96 382.81 381.59 416.8 396.11 419.59 404.74 385.05 398.63 377.31 393.1 376.25 385.96 382.81"/><polygon class="cls-11" points="391.06 376.76 400.88 378.64 402.46 373 391.52 372.12 391.06 376.76"/><polygon class="cls-11" points="384.72 387.01 381.94 407.84 398.74 411.06 404.01 390.71 384.72 387.01"/><path class="cls-9" d="M389,401.72a3.83,3.83,0,0,1,.79-4.81c2.4-2.05,6.45-2.14,6.45-2.14a12.2,12.2,0,0,1-2.08,5.14A4.44,4.44,0,0,1,389,401.72Z"/><path class="cls-9" d="M388.34,403.4a.06.06,0,0,1-.06,0,.11.11,0,0,1-.08-.13,11.69,11.69,0,0,1,5-6.18.11.11,0,0,1,.15,0,.1.1,0,0,1,0,.14,11.5,11.5,0,0,0-4.94,6.06A.12.12,0,0,1,388.34,403.4Z"/><path class="cls-11" d="M393.39,397.13a.11.11,0,0,0-.15,0,12.21,12.21,0,0,0-4.31,4.51l.06.12.1,0a12,12,0,0,1,4.26-4.48A.1.1,0,0,0,393.39,397.13Z"/><circle class="cls-8" cx="316.54" cy="353.31" r="2.62"/><circle class="cls-8" cx="317.85" cy="340.69" r="1.31"/><circle class="cls-8" cx="407.38" cy="309.94" r="3.37"/><circle class="cls-8" cx="414.06" cy="367.59" r="3.31"/><circle class="cls-8" cx="370.9" cy="383.25" r="4.35"/><circle class="cls-8" cx="278.48" cy="445.89" r="1.78"/><circle class="cls-8" cx="302.28" cy="448.05" r="3.94"/><circle class="cls-8" cx="249.08" cy="386.17" r="1.43"/><circle class="cls-10" cx="384.91" cy="367.58" r="3.32"/><circle class="cls-10" cx="283.47" cy="426.67" r="3.21"/><circle class="cls-10" cx="293.85" cy="436.97" r="1.5"/><circle class="cls-10" cx="410.68" cy="440.07" r="1.6"/><circle class="cls-10" cx="354.44" cy="251.79" r="2.73"/><path class="cls-10" d="M31.67,375.55l-1.3-7.69a1.48,1.48,0,0,1,1.05-1.66l28.38-7.95a1.48,1.48,0,0,1,1.75.83l2.8,6.54Z"/><polygon class="cls-16" points="36.78 374.56 35.72 368.31 57.18 362.29 59.48 367.65 36.78 374.56"/><path class="cls-8" d="M29.81,378.12l12.84,45.45a1.57,1.57,0,0,0,1.8,1.12l27.61-5a1.58,1.58,0,0,0,1.28-1.76l-6.65-49.5Z"/><polygon class="cls-11" points="27.01 376.08 28.74 380.94 68.69 371.25 67.47 363.7 27.01 376.08"/><path class="cls-9" d="M60.53,391.47a.48.48,0,0,1-.41-.1,9.24,9.24,0,0,0-14.46,3.33.48.48,0,0,1-.87-.39,10.21,10.21,0,0,1,15.94-3.67.48.48,0,0,1-.2.83Z"/><path class="cls-9" d="M55.32,408.55h0a10.2,10.2,0,0,1-11.15-12.13.47.47,0,1,1,.93.18,9.45,9.45,0,0,0,.06,3.89,9.25,9.25,0,0,0,10,7.11.48.48,0,0,1,.53.42A.47.47,0,0,1,55.32,408.55Z"/><path class="cls-9" d="M57.5,408.05a.48.48,0,0,1-.56-.31.48.48,0,0,1,.29-.61,9.25,9.25,0,0,0,4.27-14.3.48.48,0,1,1,.76-.58A10.21,10.21,0,0,1,57.55,408Z"/><path class="cls-9" d="M60.66,391.5h-.07l-2.1.18a.47.47,0,0,1-.51-.44.46.46,0,0,1,.43-.51l1.5-.13-.44-1.35a.47.47,0,0,1,.3-.6.47.47,0,0,1,.6.3l.63,1.93a.46.46,0,0,1,0,.41A.5.5,0,0,1,60.66,391.5Z"/><path class="cls-9" d="M59.35,408.59a.37.37,0,0,1-.21,0l-2-.46a.47.47,0,0,1-.32-.26.49.49,0,0,1,0-.41l.94-1.89a.48.48,0,0,1,.86.42L58,407.34l1.38.32a.48.48,0,0,1,0,.93Z"/><path class="cls-9" d="M45.83,398.65a.47.47,0,0,1-.53-.25l-.68-1.34-1.09.92a.48.48,0,1,1-.61-.73l1.55-1.31a.48.48,0,0,1,.4-.1.49.49,0,0,1,.33.25l.95,1.88a.48.48,0,0,1-.21.64Z"/><path class="cls-10" d="M95.91,380.42l-6.54-4.25a1.47,1.47,0,0,1-.51-1.9L102.23,348a1.47,1.47,0,0,1,1.8-.72l6.71,2.37Z"/><polygon class="cls-11" points="98.63 375.99 93.32 372.54 103.43 352.67 108.94 354.61 98.63 375.99"/><path class="cls-10" d="M96.54,383.54l42.13,21.34a1.58,1.58,0,0,0,2-.57l15-23.72a1.57,1.57,0,0,0-.43-2.13l-40.92-28.63Z"/><polygon class="cls-8" points="93.14 384.2 97.89 386.22 117.81 350.28 111.44 346.06 93.14 384.2"/><path class="cls-11" d="M127.17,370a.5.5,0,0,1-.36.23,9.25,9.25,0,0,0-7.34,12.89.48.48,0,0,1-.25.63.48.48,0,0,1-.63-.24,10.21,10.21,0,0,1,8.1-14.22.48.48,0,0,1,.54.41A.51.51,0,0,1,127.17,370Z"/><path class="cls-11" d="M136.2,385.38l0,0a10.19,10.19,0,0,1-13.28,2.84,10,10,0,0,1-3.19-2.85.48.48,0,1,1,.77-.56,9.06,9.06,0,0,0,2.89,2.58,9.23,9.23,0,0,0,12-2.57.48.48,0,0,1,.67-.1A.47.47,0,0,1,136.2,385.38Z"/><path class="cls-11" d="M137.3,383.44a.46.46,0,0,1-.6.2.47.47,0,0,1-.25-.62,9.27,9.27,0,0,0-7.63-12.84.47.47,0,1,1,.09-.94,10.06,10.06,0,0,1,4.08,1.29,10.2,10.2,0,0,1,4.34,12.86Z"/><path class="cls-11" d="M127.28,369.91l0,0L126,371.63a.48.48,0,0,1-.76-.59l.93-1.19-1.3-.59a.47.47,0,1,1,.4-.86l1.84.84a.51.51,0,0,1,.27.32A.53.53,0,0,1,127.28,369.91Z"/><path class="cls-11" d="M139,382.44a.43.43,0,0,1-.14.16l-1.68,1.14a.46.46,0,0,1-.41.06.44.44,0,0,1-.3-.28l-.75-2a.47.47,0,0,1,.27-.61.48.48,0,0,1,.62.27l.53,1.41,1.18-.81a.48.48,0,0,1,.66.13A.46.46,0,0,1,139,382.44Z"/><path class="cls-11" d="M122.49,385.66a.48.48,0,0,1-.54.22l-1.45-.41-.06,1.42a.49.49,0,0,1-.5.46.48.48,0,0,1-.45-.5l.09-2a.44.44,0,0,1,.19-.36.46.46,0,0,1,.41-.07l2,.57a.48.48,0,0,1,.33.59A.54.54,0,0,1,122.49,385.66Z"/><path class="cls-10" d="M49.41,279l3.39-7a1.47,1.47,0,0,1,1.82-.74l27.74,9.93a1.47,1.47,0,0,1,1,1.69l-1.5,6.95Z"/><polygon class="cls-16" points="54.15 281.11 56.91 275.4 77.89 282.91 76.66 288.62 54.15 281.11"/><path class="cls-11" d="M46.4,280l-15.83,44.5a1.58,1.58,0,0,0,.82,1.95l25.43,11.88a1.59,1.59,0,0,0,2.07-.69L82.1,293.4Z"/><polygon class="cls-8" points="45.31 276.7 43.91 281.66 82.09 296.87 85.47 290.02 45.31 276.7"/><path class="cls-9" d="M63.74,308.65a.48.48,0,0,1-.29-.33,9.26,9.26,0,0,0-13.71-5.65.48.48,0,1,1-.49-.82,10.2,10.2,0,0,1,15.13,6.24.49.49,0,0,1-.35.58A.57.57,0,0,1,63.74,308.65Z"/><path class="cls-9" d="M49.6,319.56l-.05,0a10.22,10.22,0,0,1-2.07-16.35.47.47,0,0,1,.67,0,.46.46,0,0,1,0,.67A9.28,9.28,0,0,0,50,318.7a.48.48,0,0,1-.41.86Z"/><path class="cls-9" d="M51.66,320.41a.47.47,0,0,1-.27-.57.48.48,0,0,1,.59-.33A9.24,9.24,0,0,0,63,314.13a9.13,9.13,0,0,0,.7-3.82.48.48,0,0,1,.95,0,10.19,10.19,0,0,1-13,10.15Z"/><path class="cls-9" d="M63.82,308.75l-.06,0-1.82-1.07a.48.48,0,0,1,.49-.83l1.29.77.42-1.36a.49.49,0,0,1,.6-.32.48.48,0,0,1,.31.6l-.59,1.94a.48.48,0,0,1-.29.3A.47.47,0,0,1,63.82,308.75Z"/><path class="cls-9" d="M52.86,321.93a.52.52,0,0,1-.17-.13l-1.35-1.51a.52.52,0,0,1-.11-.4.49.49,0,0,1,.25-.34l1.85-1a.48.48,0,0,1,.65.19.49.49,0,0,1-.2.65l-1.32.71.94,1.06a.48.48,0,0,1-.54.76Z"/><path class="cls-9" d="M47.59,306a.48.48,0,0,1-.29-.51l.22-1.49-1.42.12a.48.48,0,0,1-.51-.44.47.47,0,0,1,.44-.51l2-.17a.46.46,0,0,1,.38.15.47.47,0,0,1,.13.39l-.32,2.09a.47.47,0,0,1-.54.4Z"/><path class="cls-10" d="M86.14,321.08a.47.47,0,0,1-.35.24,9.25,9.25,0,0,0-7.35,12.89.48.48,0,0,1-.24.63.48.48,0,0,1-.63-.25,10.21,10.21,0,0,1,8.1-14.22.48.48,0,0,1,.53.42A.49.49,0,0,1,86.14,321.08Z"/><path class="cls-10" d="M95.18,336.48l0,0a10.2,10.2,0,0,1-16.48,0,.48.48,0,0,1,.77-.56,9.25,9.25,0,0,0,14.94,0,.47.47,0,0,1,.66-.11A.48.48,0,0,1,95.18,336.48Z"/><path class="cls-10" d="M96.28,334.55a.49.49,0,0,1-.6.2.48.48,0,0,1-.25-.63,9.24,9.24,0,0,0-7.64-12.83.47.47,0,0,1-.42-.52.46.46,0,0,1,.51-.43A10.19,10.19,0,0,1,96.3,334.5Z"/><path class="cls-10" d="M86.25,321a.21.21,0,0,1,0,.06l-1.29,1.66a.48.48,0,0,1-.67.09.49.49,0,0,1-.08-.67l.92-1.19-1.29-.59a.48.48,0,0,1,.39-.87l1.85.84a.48.48,0,0,1,.21.67Z"/><path class="cls-10" d="M97.94,333.55a.56.56,0,0,1-.15.16l-1.67,1.14a.49.49,0,0,1-.41.06.52.52,0,0,1-.31-.29l-.75-2a.48.48,0,0,1,.28-.62.47.47,0,0,1,.61.28l.54,1.4,1.18-.8a.48.48,0,0,1,.66.12A.49.49,0,0,1,97.94,333.55Z"/><path class="cls-10" d="M81.47,336.76a.48.48,0,0,1-.55.22l-1.44-.41L79.41,338a.48.48,0,1,1-1,0l.09-2a.48.48,0,0,1,.61-.44l2,.58a.47.47,0,0,1,.33.59A.42.42,0,0,1,81.47,336.76Z"/><path class="cls-8" d="M32,278.84a.47.47,0,0,1-.24-.35,9.26,9.26,0,0,0-13-7.09.47.47,0,1,1-.4-.86,10.19,10.19,0,0,1,14.37,7.82.47.47,0,0,1-.4.54A.51.51,0,0,1,32,278.84Z"/><path class="cls-8" d="M16.74,288.18l0,0a10.19,10.19,0,0,1-3.1-13.22,10.06,10.06,0,0,1,2.79-3.25.48.48,0,0,1,.67.09.47.47,0,0,1-.1.66,9.28,9.28,0,0,0,.28,14.94.47.47,0,0,1,.12.66A.49.49,0,0,1,16.74,288.18Z"/><path class="cls-8" d="M18.7,289.24a.48.48,0,0,1,.41-.86,9.25,9.25,0,0,0,12.68-7.88.48.48,0,0,1,1,.07,10.2,10.2,0,0,1-14,8.7Z"/><path class="cls-8" d="M32,279l-.06,0-1.69-1.25a.49.49,0,0,1-.1-.67.48.48,0,0,1,.67-.1l1.21.9.56-1.31a.48.48,0,1,1,.88.38l-.81,1.86a.44.44,0,0,1-.31.27A.47.47,0,0,1,32,279Z"/><path class="cls-8" d="M19.73,290.88a.43.43,0,0,1-.16-.14l-1.17-1.65a.46.46,0,0,1-.07-.41.46.46,0,0,1,.28-.31l1.95-.79a.48.48,0,0,1,.36.88l-1.4.57.83,1.16a.48.48,0,0,1-.62.69Z"/><path class="cls-8" d="M16.2,274.48a.5.5,0,0,1-.24-.54l.39-1.46-1.43,0a.48.48,0,0,1,0-1l2,.05a.52.52,0,0,1,.37.19.47.47,0,0,1,.08.41l-.54,2a.47.47,0,0,1-.58.34Z"/><path class="cls-11" d="M28.78,428.46a.48.48,0,0,1-.25-.35,9.25,9.25,0,0,0-13-7.09.48.48,0,0,1-.4-.87A10.21,10.21,0,0,1,29.48,428a.49.49,0,0,1-.41.54A.41.41,0,0,1,28.78,428.46Z"/><path class="cls-11" d="M13.55,437.79l0,0a10.21,10.21,0,0,1-.31-16.48.48.48,0,0,1,.58.76A9.1,9.1,0,0,0,11.25,425a9.24,9.24,0,0,0,2.8,12,.47.47,0,0,1-.5.8Z"/><path class="cls-11" d="M15.51,438.86a.48.48,0,0,1,.41-.86,9.25,9.25,0,0,0,12.68-7.88.48.48,0,0,1,.95.07,10.2,10.2,0,0,1-14,8.69Z"/><path class="cls-11" d="M28.85,428.57l-.06,0-1.69-1.26a.49.49,0,0,1-.1-.67.48.48,0,0,1,.67-.09l1.21.9.56-1.31a.48.48,0,1,1,.88.38l-.81,1.86a.49.49,0,0,1-.31.27A.47.47,0,0,1,28.85,428.57Z"/><path class="cls-11" d="M16.54,440.5a.7.7,0,0,1-.16-.14l-1.17-1.66a.46.46,0,0,1-.07-.41.44.44,0,0,1,.28-.3l2-.8a.48.48,0,0,1,.62.27.48.48,0,0,1-.26.62l-1.4.56.83,1.16a.49.49,0,0,1-.11.67A.49.49,0,0,1,16.54,440.5Z"/><path class="cls-11" d="M13,424.09a.48.48,0,0,1-.24-.54l.39-1.45-1.43,0a.47.47,0,0,1-.46-.49.47.47,0,0,1,.49-.46l2,.05a.45.45,0,0,1,.37.19.47.47,0,0,1,.08.41l-.53,2a.48.48,0,0,1-.59.33Z"/><circle class="cls-8" cx="84.71" cy="359.11" r="3.18"/><circle class="cls-8" cx="74.56" cy="348.62" r="1.2"/><circle class="cls-8" cx="173.53" cy="370.85" r="4.71"/><circle class="cls-8" cx="103.97" cy="428.97" r="2.84"/><circle class="cls-8" cx="84.86" cy="406.65" r="1.34"/><circle class="cls-8" cx="19.79" cy="399.13" r="2.36"/><circle class="cls-8" cx="9.01" cy="313.32" r="1.99"/><circle class="cls-8" cx="82.44" cy="252.57" r="3.86"/><circle class="cls-10" cx="30.28" cy="349.33" r="3.27"/><circle class="cls-10" cx="73.38" cy="438.76" r="1.79"/><circle class="cls-10" cx="175.88" cy="402.59" r="2.35"/><circle class="cls-10" cx="107.97" cy="409.31" r="4.01"/><circle class="cls-10" cx="93.74" cy="308.84" r="1.5"/><circle class="cls-10" cx="68.98" cy="262.79" r="2.61"/><path class="cls-8" d="M364.27,219.55s-5.21-5.53-.71-11.56,13.82-8.35,13.82-8.35a28.79,28.79,0,0,1-2.11,13C372.49,218.92,367.09,220,364.27,219.55Z"/><path class="cls-8" d="M363.63,223.8a.22.22,0,0,1-.14,0,.24.24,0,0,1-.24-.26,27.73,27.73,0,0,1,8.43-17,.25.25,0,0,1,.36.36,27.21,27.21,0,0,0-8.28,16.63A.28.28,0,0,1,363.63,223.8Z"/><path class="cls-9" d="M372,206.6a.25.25,0,0,0-.36,0,28.94,28.94,0,0,0-7.62,12.71c.13.16.21.24.21.24l.24,0A28.57,28.57,0,0,1,372,207,.25.25,0,0,0,372,206.6Z"/><path class="cls-8" d="M351,433.53s2.61-7.15,10-5.83,13.67,8.61,13.67,8.61a28.84,28.84,0,0,1-12.56,3.95C355.26,440.59,351.86,436.25,351,433.53Z"/><path class="cls-8" d="M346.93,434.86a.24.24,0,0,1-.09-.11.24.24,0,0,1,.12-.33,27.77,27.77,0,0,1,19-.08.25.25,0,0,1-.17.48,27.24,27.24,0,0,0-18.58.06A.23.23,0,0,1,346.93,434.86Z"/><path class="cls-9" d="M366.07,434.66a.24.24,0,0,0-.15-.32,29,29,0,0,0-14.79-1.11l-.12.3c0,.07.06.15.08.23a28.45,28.45,0,0,1,14.66,1.06A.24.24,0,0,0,366.07,434.66Z"/><path class="cls-8" d="M434.29,336.88s2.85,7.05-3.53,11-15.92,2.77-15.92,2.77a28.87,28.87,0,0,1,6.68-11.35C426.4,334.48,431.83,335.43,434.29,336.88Z"/><path class="cls-8" d="M436.43,333.15a.36.36,0,0,1,.14,0,.26.26,0,0,1,.13.34,27.86,27.86,0,0,1-14,12.75.26.26,0,0,1-.34-.13.27.27,0,0,1,.14-.34,27.16,27.16,0,0,0,13.75-12.49A.28.28,0,0,1,436.43,333.15Z"/><path class="cls-9" d="M422.34,346.13a.26.26,0,0,0,.34.13,29.08,29.08,0,0,0,11.72-9.08l-.11-.3-.22-.12a28.39,28.39,0,0,1-11.59,9A.27.27,0,0,0,422.34,346.13Z"/><path class="cls-8" d="M262.36,406.1s1.49,3.71-1.86,5.81-8.37,1.45-8.37,1.45a15.21,15.21,0,0,1,3.51-6A5.57,5.57,0,0,1,262.36,406.1Z"/><path class="cls-8" d="M263.48,404.15a.09.09,0,0,1,.07,0,.12.12,0,0,1,.07.17,14.58,14.58,0,0,1-7.37,6.71.14.14,0,1,1-.11-.25,14.3,14.3,0,0,0,7.24-6.57A.11.11,0,0,1,263.48,404.15Z"/><path class="cls-9" d="M256.07,411a.14.14,0,0,0,.18.07,15.24,15.24,0,0,0,6.16-4.78l-.05-.16-.12-.06a14.91,14.91,0,0,1-6.1,4.75A.14.14,0,0,0,256.07,411Z"/><path class="cls-8" d="M388.42,221.37s2.65-3,6-.93,5,6.84,5,6.84a15.12,15.12,0,0,1-6.91-.48A5.57,5.57,0,0,1,388.42,221.37Z"/><path class="cls-8" d="M386.17,221.24a.09.09,0,0,1,0-.07.13.13,0,0,1,.13-.14,14.62,14.62,0,0,1,9.29,3.6.13.13,0,0,1,0,.19.14.14,0,0,1-.19,0,14.25,14.25,0,0,0-9.11-3.53A.11.11,0,0,1,386.17,221.24Z"/><path class="cls-9" d="M395.58,224.82a.13.13,0,0,0,0-.19,15.24,15.24,0,0,0-7-3.38,1.06,1.06,0,0,0-.12.12v.13a15.11,15.11,0,0,1,7,3.33A.14.14,0,0,0,395.58,224.82Z"/><path class="cls-8" d="M156.14,423.4s4.55-5.15,10.34-1.6,8.65,11.74,8.65,11.74a26,26,0,0,1-11.86-.81C157.38,430.74,156,426,156.14,423.4Z"/><path class="cls-8" d="M152.26,423.17a.34.34,0,0,1,0-.12.25.25,0,0,1,.22-.24,25.14,25.14,0,0,1,16,6.19.23.23,0,1,1-.29.35,24.65,24.65,0,0,0-15.64-6.08A.22.22,0,0,1,152.26,423.17Z"/><path class="cls-9" d="M168.43,429.32a.22.22,0,0,0,0-.32,26.14,26.14,0,0,0-12.06-5.81l-.2.21a1.62,1.62,0,0,0,0,.22,25.67,25.67,0,0,1,12,5.73A.22.22,0,0,0,168.43,429.32Z"/><path class="cls-8" d="M3.18,364.93S-2.2,360.66,1,354.69s11.27-9.26,11.27-9.26a26,26,0,0,1-.19,11.89C10.45,363.3,5.76,365,3.18,364.93Z"/><path class="cls-8" d="M3.16,368.81a.31.31,0,0,1-.12.05.23.23,0,0,1-.25-.21,25.08,25.08,0,0,1,5.33-16.26.24.24,0,0,1,.32-.05.24.24,0,0,1,.05.33,24.71,24.71,0,0,0-5.25,15.94A.22.22,0,0,1,3.16,368.81Z"/><path class="cls-9" d="M8.44,352.34a.24.24,0,0,0-.32.05A26.18,26.18,0,0,0,3,364.74a1.63,1.63,0,0,0,.22.19H3.4a25.68,25.68,0,0,1,5.09-12.26A.24.24,0,0,0,8.44,352.34Z"/><path class="cls-8" d="M59.13,247.26a3.86,3.86,0,0,1-1-4.82c1.52-2.82,5.31-4.37,5.31-4.37a12.22,12.22,0,0,1-.09,5.6A4.51,4.51,0,0,1,59.13,247.26Z"/><path class="cls-8" d="M59.12,249.09l-.06,0a.11.11,0,0,1-.12-.1,11.83,11.83,0,0,1,2.52-7.66.1.1,0,0,1,.15,0,.1.1,0,0,1,0,.15A11.55,11.55,0,0,0,59.16,249,.12.12,0,0,1,59.12,249.09Z"/><path class="cls-9" d="M61.61,241.33a.1.1,0,0,0-.15,0A12.32,12.32,0,0,0,59,247.17l.11.09h.1a12.19,12.19,0,0,1,2.4-5.78A.1.1,0,0,0,61.61,241.33Z"/><path class="cls-8" d="M51.8,445.23A3.87,3.87,0,0,0,47.22,447c-1.51,2.82-.72,6.84-.72,6.84a12.26,12.26,0,0,0,4.62-3.16A4.49,4.49,0,0,0,51.8,445.23Z"/><path class="cls-8" d="M53.32,444.21a.11.11,0,0,0,0,0,.11.11,0,0,0-.15-.05,11.85,11.85,0,0,0-5,6.32.1.1,0,0,0,.06.13.11.11,0,0,0,.14-.06,11.65,11.65,0,0,1,4.91-6.2A.1.1,0,0,0,53.32,444.21Z"/><path class="cls-9" d="M48.21,450.56a.1.1,0,0,1-.06-.13,12.38,12.38,0,0,1,3.52-5.24l.13,0,.06.09a12.07,12.07,0,0,0-3.51,5.18A.11.11,0,0,1,48.21,450.56Z"/><path class="cls-8" d="M40.73,231.38s5.38-4.27,2.14-10.24-11.27-9.26-11.27-9.26a26,26,0,0,0,.19,11.89C33.46,229.75,38.15,231.43,40.73,231.38Z"/><path class="cls-8" d="M40.75,235.26a.22.22,0,0,0,.12.05.23.23,0,0,0,.25-.21,25.08,25.08,0,0,0-5.33-16.26.25.25,0,0,0-.33-.05.24.24,0,0,0,0,.33,24.59,24.59,0,0,1,5.24,15.94A.22.22,0,0,0,40.75,235.26Z"/><path class="cls-9" d="M35.46,218.79a.25.25,0,0,1,.33.05A26.29,26.29,0,0,1,41,231.19l-.22.19h-.22a25.68,25.68,0,0,0-5.09-12.26A.24.24,0,0,1,35.46,218.79Z"/></g></g></g></svg>