<svg xmlns="http://www.w3.org/2000/svg" viewBox="0 0 462.49 285.18"><defs><style>.cls-1{fill:#e3ffee;}.cls-2{fill:#03a89e;}.cls-3{fill:#039898;}.cls-4{fill:#03beae;}.cls-5{fill:#03aca6;}.cls-6{fill:#03d9c7;}.cls-39,.cls-7{fill:#ef4339;}.cls-8{fill:#ffdbc5;}.cls-9{fill:#924339;}.cls-10{fill:#ff9d76;}.cls-11,.cls-34,.cls-40,.cls-41{fill:#fff;}.cls-12{fill:#c1f3ff;}.cls-13{fill:#ffb6a2;}.cls-14{fill:#bd7b86;}.cls-15{fill:#037381;}.cls-16{fill:#a7e9af;}.cls-17{fill:#03525d;}.cls-18{fill:#03869e;}.cls-19{fill:#8d2b39;}.cls-20{fill:#384e72;}.cls-21{fill:#445f8c;}.cls-22{fill:#2dd4ca;}.cls-23{fill:#456b92;}.cls-24{fill:#ef7868;}.cls-25{fill:#ffbaa1;}.cls-26{fill:#efa168;}.cls-27{fill:#d35f68;}.cls-28{fill:#ff8776;}.cls-29{fill:#ef8368;}.cls-30{fill:#ffb6b6;}.cls-31{fill:#ca706e;}.cls-32{fill:#af5e6e;}.cls-33{fill:#86486e;}.cls-34{font-size:13.58px;font-family:Roboto-Bold, Roboto Bold;font-weight:700;}.cls-35{letter-spacing:0em;}.cls-36{letter-spacing:-0.02em;}.cls-37{letter-spacing:0em;}.cls-38{fill:#873539;}.cls-39{font-size:9.65px;}.cls-39,.cls-41{font-family:Roboto-BlackItalic, Roboto BlackItalic;font-weight:800;font-style:italic;}.cls-40{font-size:11.39px;font-family:Roboto-Medium, Roboto Medium;font-weight:500;}.cls-41{font-size:21.91px;}.cls-42{fill:#03797c;}.cls-43{fill:#036263;}</style></defs><g id="Layer_2" data-name="Layer 2"><g id="BACKGROUND"><path class="cls-1" d="M24.28,283.48H404.61c25.11,0,57.88-18.61,52.05-80.48-.69-7.3-1.23-15.24-6.72-20.12-7.82-7-19.64-5.6-30.11-5.95-14.36-.49-29.08-5.45-38.8-16-12.94-14.1-14.73-34.79-16.83-53.81s-6.36-40-21.88-51.2c-10.84-7.82-24.92-9.11-38.25-10-21.39-1.48-45.3-1.87-61.27,12.44C231.33,68.58,226.37,84.62,215,95c-10.43,9.58-25.21,13.28-39.37,12.94-14.85-.36-29.33-4.73-44.13-6s-31.14,1.13-41.41,11.87c-18.36,19.2-9.5,55.54-30.33,72-10.09,8-24.32,8.57-35.13,15.54-16,10.31-20.59,32.61-15.77,51C11.84,263.69,17.56,273.87,24.28,283.48Z"/><ellipse class="cls-1" cx="40.57" cy="153.74" rx="17.27" ry="11.31" transform="translate(-88.31 60.62) rotate(-39.37)"/><path class="cls-1" d="M326.05,33c2-2.36,5.52-2.77,8.64-2.66a7.49,7.49,0,0,1,3.41.71c1.47.82,2.28,2.44,2.95,4s1.26,3.25.52,4.7C338.82,45.06,318.12,42.08,326.05,33Z"/><path class="cls-1" d="M80.93,93.88a8.9,8.9,0,0,1,1.22-2.83A11.44,11.44,0,0,1,89,86.56a26.43,26.43,0,0,1,8.33-.41,4.17,4.17,0,0,1,1.82.43A3.23,3.23,0,0,1,100.53,89a8.07,8.07,0,0,1-2.26,6.26c-2.35,2.6-7.71,6.3-11.3,6.69C82.52,102.48,80,97.69,80.93,93.88Z"/><path class="cls-1" d="M397.47,158.07c-3.46-2.2-6.52-5.52-7.12-9.58s2-8.71,6.11-9.19a12,12,0,0,1,5.87,1.3c6.2,2.58,19.68,8.88,19.54,17.24C421.7,167.65,401.64,160.74,397.47,158.07Z"/></g><g id="OBJECTS"><rect class="cls-2" y="283.48" width="462.49" height="1.71"/><rect class="cls-2" x="236.1" y="146.4" width="98.26" height="31.53"/><rect class="cls-3" x="239.37" y="149.92" width="91.73" height="24.5"/><path class="cls-4" d="M288.76,160.71a3.53,3.53,0,1,1-3.53-3.52A3.53,3.53,0,0,1,288.76,160.71Z"/><rect class="cls-4" x="236.1" y="177.94" width="98.26" height="31.53"/><rect class="cls-5" x="239.37" y="181.45" width="91.73" height="24.5"/><path class="cls-6" d="M288.76,192.76a3.53,3.53,0,1,1-3.53-3.53A3.52,3.52,0,0,1,288.76,192.76Z"/><rect class="cls-2" x="236.1" y="209.47" width="98.26" height="31.53"/><rect class="cls-3" x="239.37" y="212.98" width="91.73" height="24.5"/><path class="cls-4" d="M288.76,225.23a3.53,3.53,0,1,1-3.53-3.52A3.53,3.53,0,0,1,288.76,225.23Z"/><rect class="cls-4" x="236.1" y="241" width="98.26" height="31.53"/><rect class="cls-5" x="239.37" y="244.51" width="91.73" height="24.5"/><path class="cls-6" d="M288.76,256.77a3.53,3.53,0,1,1-3.53-3.53A3.53,3.53,0,0,1,288.76,256.77Z"/><polygon class="cls-3" points="319.01 283.48 316.31 283.48 314.2 272.53 321.12 272.53 319.01 283.48"/><polygon class="cls-2" points="254.16 283.48 251.45 283.48 249.34 272.53 256.27 272.53 254.16 283.48"/><rect class="cls-6" x="273.06" y="263.51" width="24.35" height="2.18"/><rect class="cls-4" x="273.06" y="232.24" width="24.35" height="2.18"/><rect class="cls-6" x="273.06" y="200.97" width="24.35" height="2.18"/><rect class="cls-4" x="273.06" y="169.69" width="24.35" height="2.18"/><rect class="cls-7" x="279.04" y="279.45" width="35.43" height="4.03"/><rect class="cls-8" x="288.24" y="280.97" width="20.96" height="1"/><rect class="cls-9" x="282.46" y="279.45" width="2.77" height="2.34" transform="translate(567.69 561.24) rotate(180)"/><rect class="cls-10" x="275.3" y="275.42" width="35.43" height="4.03"/><rect class="cls-8" x="279.16" y="275.42" width="2.37" height="4.03" transform="translate(560.68 554.87) rotate(180)"/><rect class="cls-7" x="282.11" y="271.4" width="35.43" height="4.03"/><rect class="cls-8" x="284.23" y="272.21" width="1.76" height="2.4"/><rect class="cls-8" x="288.24" y="272.42" width="20.96" height="0.5"/><rect class="cls-8" x="288.24" y="273.9" width="20.96" height="0.5"/><rect class="cls-8" x="274.15" y="267.37" width="35.43" height="4.03"/><rect class="cls-10" x="282.4" y="268.6" width="24.09" height="0.78"/><rect class="cls-10" x="276.02" y="267.37" width="2.84" height="4.03"/><rect class="cls-10" x="279.75" y="267.37" width="1.19" height="4.03"/><path class="cls-8" d="M349.91,157.7H308.15s-6,18.9,9.84,24.52l-1.15,4.69h24.39l-1.15-4.69C355.91,176.6,349.91,157.7,349.91,157.7Z"/><path class="cls-11" d="M310.66,157.7s-4.68,16.05,6.43,22a33,33,0,0,0,23.1.39c12.11-5.65,7.21-22.43,7.21-22.43Z"/><path class="cls-12" d="M340.2,180.13c8.2-3.83,8.59-12.77,8-18.13a50.64,50.64,0,0,1-7.89-.19c-2-.27-3.88-.81-5.85-1a38.2,38.2,0,0,0-9.1.65,75.87,75.87,0,0,1-8,.76c-2.43.08-4.91-.45-7.31-.32l-.18,0c-.59,5.19-.28,13.79,7.21,17.82A31.82,31.82,0,0,0,329.14,182,32.23,32.23,0,0,0,340.2,180.13Z"/><path class="cls-13" d="M340.34,174.14c-2.4.26-4.71,1.09-7.11,1.38-5.83.69-12-1.88-17.51,0-.42.15-1.52.5-2.6.91a13.08,13.08,0,0,0,4,3.26,33,33,0,0,0,23.1.39,13,13,0,0,0,5.68-4.93A8.68,8.68,0,0,0,340.34,174.14Z"/><path class="cls-14" d="M340,175.81c0,.11-.17.2-.38.2s-.38-.09-.38-.2.17-.2.38-.2S340,175.7,340,175.81Z"/><path class="cls-7" d="M329.36,168.42c-.45-1.13-2.11-2-4.1-2-2.33,0-4.23,1.15-4.23,2.57,0,1.11,1.18,2.06,2.82,2.41l1,1.14-.12-1c.17,0,.34,0,.52,0,1.94,0,3.56-.8,4.06-1.88l2.17,1.65.15-4.41Zm-6.21.46a.6.6,0,0,1-.59-.59.59.59,0,0,1,.59-.59.58.58,0,0,1,.59.59A.59.59,0,0,1,323.15,168.88Z"/><path class="cls-14" d="M321,176c0,.22-.34.4-.76.4s-.76-.18-.76-.4.34-.4.76-.4S321,175.79,321,176Z"/><path class="cls-14" d="M325.26,179.68c0,.22-.34.4-.76.4s-.76-.18-.76-.4.34-.41.76-.41S325.26,179.45,325.26,179.68Z"/><path class="cls-14" d="M331,176.81c0,.23-.34.41-.76.41s-.76-.18-.76-.41.34-.4.76-.4S331,176.59,331,176.81Z"/><path class="cls-14" d="M337.67,178.87c0,.22-.34.4-.76.4s-.76-.18-.76-.4.34-.4.76-.4S337.67,178.65,337.67,178.87Z"/><path class="cls-14" d="M333.42,179.68c0,.11-.17.2-.38.2s-.38-.09-.38-.2.17-.2.38-.2S333.42,179.57,333.42,179.68Z"/><path class="cls-14" d="M329,178.87c0,.11-.17.2-.38.2s-.38-.09-.38-.2.17-.2.38-.2S329,178.76,329,178.87Z"/><path class="cls-14" d="M326.34,176.61c0,.11-.17.2-.38.2s-.38-.09-.38-.2.17-.2.38-.2S326.34,176.5,326.34,176.61Z"/><path class="cls-14" d="M319.51,178.87c0,.11-.17.2-.38.2s-.38-.09-.38-.2.17-.2.38-.2S319.51,178.76,319.51,178.87Z"/><path class="cls-14" d="M342.65,177.22c0,.11-.17.2-.38.2s-.38-.09-.38-.2.17-.21.38-.21S342.65,177.1,342.65,177.22Z"/><path class="cls-14" d="M340.15,166.46H338l-1,8.7h4.3Zm-1.75,1.41h1.25l.18,1.56h-1.62Zm-.38,2.82h2.08l.2,2.08h-2.49Z"/><polygon class="cls-2" points="363.24 186.91 353.15 186.91 352.1 170.64 364.29 170.64 363.24 186.91"/><polygon class="cls-15" points="364.11 173.48 368.55 173.48 368.55 182.03 363.44 184.72 363.44 182.93 366.99 181.29 367.27 174.84 364.03 174.84 364.11 173.48"/><polygon class="cls-16" points="353.01 184.72 353.15 186.91 363.24 186.91 363.38 184.72 353.01 184.72"/><polygon class="cls-17" points="365.9 181.77 363.44 182.93 363.44 184.72 365.82 183.47 365.9 181.77"/><polygon class="cls-17" points="364.03 174.84 366.24 174.84 366.31 173.48 364.11 173.48 364.03 174.84"/><polygon class="cls-2" points="415.12 218.28 378.52 218.28 371.55 283.48 422.09 283.48 415.12 218.28"/><path class="cls-11" d="M410.18,224.05a2.06,2.06,0,1,1-2.06-2.06A2.06,2.06,0,0,1,410.18,224.05Z"/><path class="cls-11" d="M387.57,224.05a2.06,2.06,0,1,1-2.06-2.06A2.06,2.06,0,0,1,387.57,224.05Z"/><path class="cls-18" d="M408.4,224.05h-.56v-14a11,11,0,0,0-22,0v13.16h-.56V210.08a11.59,11.59,0,0,1,23.17,0Z"/><circle class="cls-7" cx="378.09" cy="259.8" r="23.67"/><path class="cls-8" d="M399.79,269.24c.16-.36.29-.73.43-1.1a59.12,59.12,0,0,1-12.35-3,14.48,14.48,0,0,1,5.33-8.82,19,19,0,0,1,7.49-3.57c-.12-.37-.27-.72-.4-1.09a20.21,20.21,0,0,0-7.81,3.76,15.71,15.71,0,0,0-5.71,9.3,45,45,0,0,1-6.37-3.12,57.69,57.69,0,0,0,7.66-23.24c-.37-.17-.73-.34-1.11-.49A56.4,56.4,0,0,1,379.43,261a37.39,37.39,0,0,1-5.69-4.43,7.81,7.81,0,0,0,3.4-2.55,10,10,0,0,0,1.5-5.63,25,25,0,0,0-3-12.11c-.4,0-.8.12-1.2.18a23.83,23.83,0,0,1,3,11.91,8.5,8.5,0,0,1-1.29,5,6.94,6.94,0,0,1-3.36,2.34,34.76,34.76,0,0,1-8.64-15c-.33.24-.66.48-1,.74A35.91,35.91,0,0,0,371.6,256c-.72.19-1.43.32-2.05.42a43.4,43.4,0,0,1-14.82-.35c-.06.38-.13.75-.17,1.14a44.3,44.3,0,0,0,8.6.84,45.05,45.05,0,0,0,6.56-.49,21.49,21.49,0,0,0,2.79-.61,38.13,38.13,0,0,0,6.3,5,41,41,0,0,1-17,15c.3.29.6.57.92.84a42,42,0,0,0,17-15.24,45.22,45.22,0,0,0,6.83,3.33s0,.07,0,.11a22.59,22.59,0,0,0,1.42,8.71c.61,1.85,1.31,3.67,2.05,5.47.33-.19.67-.39,1-.6-.7-1.73-1.37-3.47-1.95-5.23a21.85,21.85,0,0,1-1.37-8.06A60.2,60.2,0,0,0,399.79,269.24Z"/><polygon class="cls-16" points="428.56 235.35 397.85 235.35 392 283.48 434.41 283.48 428.56 235.35"/><path class="cls-11" d="M406.58,240.74a2.26,2.26,0,1,1-2.26-2.26A2.26,2.26,0,0,1,406.58,240.74Z"/><path class="cls-11" d="M424.35,240.74a2.26,2.26,0,1,1-2.26-2.26A2.26,2.26,0,0,1,424.35,240.74Z"/><circle class="cls-2" cx="413.2" cy="262.83" r="12.46"/><path class="cls-11" d="M417.05,260.58c.39,0,.71-.43.71-1s-.32-1-.71-1-.71.44-.71,1S416.65,260.58,417.05,260.58Z"/><path class="cls-11" d="M409.36,260.58c.4,0,.71-.43.71-1s-.31-1-.71-1-.71.44-.71,1S409,260.58,409.36,260.58Z"/><path class="cls-11" d="M419.54,265a.51.51,0,0,0-.33-.13.5.5,0,0,0-.37.17,7.43,7.43,0,0,1-11.28,0,.48.48,0,0,0-.36-.16.51.51,0,0,0-.33.13.49.49,0,0,0,0,.7,8.4,8.4,0,0,0,12.73,0A.5.5,0,0,0,419.54,265Z"/><path class="cls-18" d="M422.38,240.74h-.58v-5a8.6,8.6,0,1,0-17.19,0v5H404v-5a9.18,9.18,0,1,1,18.36,0Z"/><polygon class="cls-9" points="330.67 283.48 326.81 283.48 329.64 278.6 333.5 278.6 330.67 283.48"/><polygon class="cls-9" points="343.34 283.48 347.2 283.48 344.37 278.6 340.51 278.6 343.34 283.48"/><path class="cls-10" d="M333.2,250.63l-9.72,6-.89-1.45a5.71,5.71,0,0,1,1.84-7.87h0a5.72,5.72,0,0,1,7.87,1.85Z"/><rect class="cls-19" x="327.83" y="253.46" width="2.31" height="2.45" transform="translate(-84.83 211.66) rotate(-31.81)"/><path class="cls-10" d="M340.81,250.63l9.72,6,.89-1.45a5.71,5.71,0,0,0-1.84-7.87h0a5.72,5.72,0,0,0-7.87,1.85Z"/><rect class="cls-19" x="343.8" y="253.53" width="2.45" height="2.31" transform="translate(-53.27 413.64) rotate(-58.19)"/><circle class="cls-7" cx="337" cy="267.17" r="14.62"/><circle class="cls-10" cx="337" cy="267.17" r="11.43" transform="translate(-84.62 351.93) rotate(-49.77)"/><path class="cls-7" d="M338.17,257.78a.86.86,0,1,1-.86-.85A.86.86,0,0,1,338.17,257.78Z"/><path class="cls-11" d="M333.32,258.46a.85.85,0,0,1-.31,1.17.86.86,0,0,1-1.18-.31.88.88,0,0,1,.32-1.18A.86.86,0,0,1,333.32,258.46Z"/><path class="cls-7" d="M329.46,261.47a.86.86,0,1,1-1.17.31A.85.85,0,0,1,329.46,261.47Z"/><path class="cls-11" d="M327.62,266a.86.86,0,0,1,0,1.72.86.86,0,0,1,0-1.72Z"/><path class="cls-7" d="M328.29,270.85a.86.86,0,0,1,1.17.32.85.85,0,1,1-1.17-.32Z"/><path class="cls-11" d="M331.3,274.72a.86.86,0,1,1,1.49.85.86.86,0,1,1-1.49-.85Z"/><path class="cls-7" d="M335.84,276.55a.86.86,0,1,1,.86.86A.85.85,0,0,1,335.84,276.55Z"/><path class="cls-11" d="M340.69,275.88a.86.86,0,1,1,1.17.31A.85.85,0,0,1,340.69,275.88Z"/><path class="cls-7" d="M344.55,272.87a.85.85,0,0,1-.31-1.17.86.86,0,1,1,1.48.86A.85.85,0,0,1,344.55,272.87Z"/><circle class="cls-11" cx="346.39" cy="267.48" r="0.86"/><path class="cls-7" d="M345.71,263.48a.85.85,0,0,1-1.17-.31.86.86,0,0,1,.32-1.17.85.85,0,1,1,.85,1.48Z"/><path class="cls-11" d="M342.71,259.62a.88.88,0,0,1-1.18.32.86.86,0,0,1-.31-1.18.85.85,0,0,1,1.17-.31A.86.86,0,0,1,342.71,259.62Z"/><polygon class="cls-9" points="337.09 267.56 333.35 265.13 333.65 264.66 336.92 266.78 340.87 260.47 341.34 260.77 337.09 267.56"/><rect class="cls-9" x="171.55" y="174.79" width="83.28" height="1.54" transform="translate(-24.63 315.95) rotate(-70.03)"/><rect class="cls-9" x="168.22" y="172.57" width="83.28" height="2.02" transform="translate(-3.15 343.28) rotate(-78.14)"/><circle class="cls-20" cx="202.58" cy="188.44" r="15.69"/><path class="cls-21" d="M202.58,188.44l-11-11.18c-.32.31-.62.64-.91,1Z"/><path class="cls-21" d="M202,188.44h.59l.73-15.65c-.25,0-.48,0-.73,0a15.72,15.72,0,0,0-4.63.7C199.09,177.44,202,188.44,202,188.44Z"/><circle class="cls-2" cx="202.58" cy="188.44" r="8.11" transform="translate(-73.92 198.44) rotate(-45)"/><path class="cls-22" d="M202.58,188.44l-5.68-5.77c-.16.16-.32.33-.47.51Z"/><path class="cls-22" d="M200,180.78c1.05,3.92,2,7.66,2,7.66h.59l.38-8.08-.38,0A8.2,8.2,0,0,0,200,180.78Z"/><circle class="cls-18" cx="202.58" cy="188.44" r="3.82"/><path class="cls-9" d="M168,160.76l-2.3.65.18.14c1.59,1.24,13.2,10.47,16.93,23.74l2.21.46C182.36,173.48,168,160.76,168,160.76Z"/><path class="cls-9" d="M186.73,155.49l2.31-.64-.08.21c-.72,1.88-5.81,15.81-2.07,29.08l-1.64,1.55C181.12,173.83,186.73,155.49,186.73,155.49Z"/><path class="cls-7" d="M192.52,212h0a3.22,3.22,0,0,1-4-2.23l-7.22-25.65,6.23-1.76L194.76,208A3.24,3.24,0,0,1,192.52,212Z"/><path class="cls-9" d="M193,144l-.15-.54-2.39.67-1.09-3.89,3.5-1-.15-.54-3.5,1-1.1-3.9,3.51-1-.16-.54-3.5,1-1.1-3.9,3.51-1-.15-.54-3.51,1-1.1-3.89,3.51-1-.15-.54-3.51,1-1.1-3.9,3.51-1-.15-.54-3.51,1-1.09-3.89,2.38-.68-.15-.53-2.39.67-1.09-3.9.83-.23-.15-.54-.83.23-.13-.45-.54.15.13.45-3.9,1.1-1.1-3.9,1.27-.36-.15-.53-1.27.35-.19-.67-.54.15.19.67-3.89,1.1-.93-3.29-.54.16.93,3.28-3.9,1.1-.92-3.29-.54.15.92,3.29-3.9,1.1-.92-3.29-.54.15.92,3.29-3.89,1.1-.93-3.29-.54.15.93,3.29-3.9,1.09-.19-.67-.54.15.19.68-1.52.42.15.54,1.52-.42,1.1,3.89L150,122l.16.54.11,0,1.09,3.9-2.48.69.15.54,2.49-.69,1.09,3.89-3.05.86.15.54,3.05-.86,1.1,3.9-4,1.13.16.54,4-1.13,1.1,3.89-4,1.14.15.54,4-1.14,1.1,3.9-4,1.14.15.53,4-1.13,1.09,3.9-3,.86.15.53,3.06-.86,1.09,3.9-2.48.7.15.54,2.48-.7.49,1.72.54-.15-.49-1.72,3.9-1.1,1.1,3.9L160,157.52l.15.54,4.55-1.28.86,3.05.54-.15-.86-3.05,3.89-1.1,1.1,3.9-6,1.67.15.54,6-1.67.49,1.71.54-.15-.49-1.72,3.9-1.09.88,3.11.54-.15-.88-3.11,3.89-1.1.88,3.12.54-.15-.88-3.12,3.9-1.1.48,1.72.54-.15-.48-1.72,2.87-.81-.15-.54-2.87.81-1.1-3.9,3.9-1.09.86,3.05.54-.15-.86-3.05,2.52-.72-.15-.53-2.52.71-1.1-3.9,3.9-1.1.48,1.72.54-.15-.48-1.72Zm-4.32-4.15L184.8,141l-1.1-3.89,3.9-1.1Zm-17.21,4.84-1.09-3.9,3.89-1.09,1.1,3.89Zm4-.56,1.1,3.9-3.9,1.1-1.1-3.9ZM169,135.85l-1.1-3.9,3.9-1.1,1.09,3.9Zm4-.56,1.1,3.9-3.9,1.09-1.09-3.89Zm-5.29-3.88-1.1-3.9,3.9-1.09,1.09,3.89Zm4.58-.71,3.9-1.09,1.1,3.89-3.9,1.1Zm-.15-.54-1.09-3.89,3.89-1.1,1.1,3.9Zm-1.25-4.43-1.09-3.9,3.89-1.1,1.1,3.9Zm-.53.15-3.9,1.1-1.1-3.9,3.9-1.1ZM166,127.13l-3.9,1.09L161,124.33l3.89-1.1Zm.15.54,1.1,3.89-3.9,1.1-1.1-3.9Zm1.25,4.43,1.1,3.9-3.9,1.1-1.1-3.9Zm1.25,4.44,1.09,3.9-3.89,1.09-1.1-3.9Zm1.25,4.43,1.09,3.9-3.89,1.1-1.1-3.9Zm5-1.4,3.9-1.09,1.09,3.89-3.89,1.1Zm-.15-.53-1.1-3.9,3.9-1.1,1.1,3.9Zm3.34-5.15,3.9-1.1,1.09,3.9-3.89,1.1Zm-.15-.54-1.1-3.9,3.9-1.09,1.09,3.89Zm-1.25-4.44-1.1-3.89,3.9-1.1,1.1,3.9Zm-1.25-4.43-1.1-3.9,3.9-1.09,1.1,3.89ZM174.12,120,173,116.15l3.89-1.1L178,119Zm-.54.15-3.89,1.1-1.1-3.9,3.9-1.09Zm-4.43,1.25-3.9,1.1-1.1-3.9,3.9-1.09Zm-4.44,1.25-3.9,1.1-1.09-3.9,3.89-1.1Zm-4.43,1.25-3.9,1.1-1.1-3.9,3.9-1.1Zm.15.54,1.09,3.9-3.89,1.09-1.1-3.89Zm1.25,4.44,1.09,3.89-3.89,1.1-1.1-3.9Zm1.24,4.43,1.1,3.9-3.9,1.09L159,134.45Zm1.25,4.44,1.1,3.89-3.9,1.1-1.09-3.9Zm1.25,4.43,1.1,3.9-3.9,1.1-1.1-3.9Zm1.25,4.44,1.09,3.9-3.89,1.09-1.1-3.9Zm.54-.15,3.89-1.1,1.1,3.9-3.9,1.09Zm5.14,3.34,1.1,3.89-3.9,1.1-1.09-3.9Zm.54-.16,3.9-1.09,1.09,3.89-3.89,1.1Zm4.44-1.24,3.89-1.1,1.1,3.9-3.9,1.09Zm-.15-.54-1.1-3.9,3.9-1.1,1.09,3.9Zm3.34-5.15,3.89-1.09,1.1,3.89-3.9,1.1Zm-.16-.54-1.09-3.89,3.89-1.1,1.1,3.9Zm7.09-6.78-3.9,1.1-1.1-3.9,3.9-1.09ZM186.2,131l-3.9,1.09-1.09-3.89,3.89-1.1ZM185,126.57l-3.9,1.1-1.09-3.9,3.89-1.1Zm-1.25-4.44-3.89,1.1-1.1-3.9,3.9-1.09Zm-2.34-8.33,1.09,3.9-3.89,1.09-1.1-3.89Zm-5.69-3.19,1.1,3.9-3.9,1.1-1.09-3.9Zm-4.43,1.25,1.09,3.9-3.89,1.09-1.1-3.89Zm-4.44,1.25,1.1,3.9L164,118.1l-1.09-3.89Zm-4.43,1.25,1.09,3.89-3.89,1.1-1.1-3.89ZM154,116.7l3.9-1.09,1.1,3.89-3.9,1.1Zm-3.18,5.69,3.89-1.1,1.1,3.9-3.9,1.09Zm1.24,4.43,3.9-1.09,1.1,3.89-3.9,1.1Zm1.25,4.44,3.9-1.1,1.1,3.9-3.9,1.1Zm1.25,4.44,3.9-1.1,1.09,3.9-3.89,1.09Zm1.25,4.43,3.9-1.1,1.09,3.9-3.89,1.1Zm1.25,4.44,3.89-1.1,1.1,3.9-3.9,1.09Zm2.34,8.33-1.09-3.9,3.89-1.09,1.1,3.89Zm5.69,3.19-1.1-3.9,3.9-1.1L169,155Zm5.68,3.19-1.1-3.9,3.9-1.1,1.1,3.9Zm4.44-1.25-1.1-3.9L178,153l1.09,3.9Zm8.33-2.35-3.9,1.1-1.09-3.9,3.89-1.09Zm3.19-5.68-3.9,1.09-1.1-3.89,3.9-1.1Zm-.71-4.59-1.1-3.9,3.9-1.09,1.09,3.89Z"/><path class="cls-7" d="M163,107.07c-11.81,3.32-17.79,18.77-13.36,34.51s17.59,25.81,29.4,22.49,17.79-18.77,13.36-34.52S174.81,103.74,163,107.07Zm15.26,54.24c-10.66,3-22.54-6.1-26.54-20.31s1.4-28.17,12.06-31.17,22.54,6.09,26.54,20.31S188.92,158.31,178.26,161.31Z"/><rect class="cls-2" x="157.88" y="154.21" width="1.79" height="53.28" transform="translate(-56.14 72.55) rotate(-21.97)"/><rect class="cls-18" x="133.37" y="165.74" width="24.34" height="1.96" transform="translate(-75.26 151.74) rotate(-45)"/><rect class="cls-23" x="161.28" y="151.85" width="1.79" height="53.28" transform="translate(-55 73.65) rotate(-21.97)"/><rect class="cls-20" x="130.79" y="160.98" width="25.82" height="1.96" transform="translate(-72.43 149.05) rotate(-45)"/><circle class="cls-2" cx="152.61" cy="153.62" r="1.7"/><path class="cls-2" d="M145.54,184h0a2.43,2.43,0,0,1-3.41-.4l-.71-.9,3.82-3,.7.9A2.43,2.43,0,0,1,145.54,184Z"/><path class="cls-2" d="M132.64,167.58h0a2.33,2.33,0,0,0-.39,3.27l.38.48a2.33,2.33,0,0,0,3.27.39h0a2.32,2.32,0,0,0,.38-3.27l-.37-.48A2.33,2.33,0,0,0,132.64,167.58Z"/><path class="cls-16" d="M149.31,176.43l-12,9.43-4.09-5.19a7.62,7.62,0,0,1,1.27-10.7h0a7.61,7.61,0,0,1,10.7,1.27Z"/><rect class="cls-2" x="154.88" y="183.27" width="36.1" height="11.7" transform="translate(-34.5 339.6) rotate(-83.52)"/><rect class="cls-16" x="158.41" y="183.29" width="29.4" height="8.5" transform="translate(-32.77 338.37) rotate(-83.52)"/><circle class="cls-2" cx="174.19" cy="178.06" r="3.03"/><rect class="cls-11" x="172.56" y="183.11" width="1.46" height="5.77" transform="translate(-31.09 337.18) rotate(-83.52)"/><rect class="cls-11" x="172.19" y="186.35" width="1.46" height="5.77" transform="translate(-34.63 339.68) rotate(-83.52)"/><rect class="cls-11" x="171.82" y="189.59" width="1.46" height="5.77" transform="translate(-38.18 342.2) rotate(-83.52)"/><rect class="cls-11" x="171.45" y="192.83" width="1.46" height="5.77" transform="translate(-41.72 344.7) rotate(-83.52)"/><path class="cls-7" d="M243.64,177.35l-.32,2.07a34.58,34.58,0,0,1-26.75,28.51l-2,.45a4.62,4.62,0,0,1-5.56-5.21l.32-2.07A34.58,34.58,0,0,1,236,172.58l2-.44A4.62,4.62,0,0,1,243.64,177.35Z"/><path class="cls-9" d="M241.6,186.1c.34-.95.65-1.92.92-2.9l-10.2-9.57a30.15,30.15,0,0,0-2.83,1.1Z"/><path class="cls-9" d="M220.3,206.89c1-.33,1.9-.7,2.83-1.11L211,194.42c-.35.94-.66,1.91-.93,2.89Z"/><rect class="cls-9" x="214.33" y="184.65" width="13.75" height="1.64" transform="translate(-65.41 219.88) rotate(-46.82)"/><rect class="cls-11" x="217.93" y="186.4" width="0.9" height="7.16" transform="translate(-69.59 219.24) rotate(-46.82)"/><rect class="cls-11" x="219.72" y="184.5" width="0.9" height="7.16" transform="translate(-67.64 219.94) rotate(-46.82)"/><rect class="cls-11" x="221.51" y="182.59" width="0.9" height="7.16" transform="translate(-65.68 220.65) rotate(-46.82)"/><rect class="cls-11" x="223.29" y="180.69" width="0.9" height="7.16" transform="translate(-63.73 221.37) rotate(-46.83)"/><rect class="cls-11" x="225.08" y="178.78" width="0.9" height="7.16" transform="translate(-61.78 222.05) rotate(-46.82)"/><rect class="cls-24" x="149.31" y="201.27" width="31.26" height="82.21"/><rect class="cls-10" x="180.57" y="201.27" width="50.68" height="82.21"/><polygon class="cls-10" points="149.31 201.27 141.51 216.91 173.19 216.91 180.57 201.27 149.31 201.27"/><polygon class="cls-25" points="231.25 201.27 180.57 201.27 187.99 219.28 238.67 219.28 231.25 201.27"/><rect class="cls-26" x="159.31" y="216.9" width="7.57" height="66.57"/><rect class="cls-8" x="207.65" y="219.28" width="7.2" height="64.2"/><rect class="cls-24" x="190.8" y="240.34" width="16.85" height="43.14"/><rect class="cls-10" x="207.65" y="240.34" width="40.41" height="43.14"/><polygon class="cls-27" points="190.8 240.34 186.76 233.33 253.81 233.33 248.06 240.34 190.8 240.34"/><polygon class="cls-28" points="207.65 240.34 211.72 233.33 253.81 233.33 248.06 240.34 207.65 240.34"/><rect class="cls-26" x="196.03" y="240.34" width="5.6" height="43.14"/><polygon class="cls-29" points="204.95 233.33 192.71 233.33 196.03 240.34 201.63 240.34 204.95 233.33"/><polygon class="cls-8" points="234.9 263.51 233.56 262.65 232.01 263.51 230.59 262.56 229.44 263.51 228.53 262.47 227.02 263.51 227.02 240.34 234.9 240.34 234.9 263.51"/><polygon class="cls-8" points="232.01 266.58 230.59 265.64 229.44 266.58 228.53 265.55 227.02 266.58 227.02 283.48 234.9 283.48 234.9 266.58 233.56 265.72 232.01 266.58"/><polygon class="cls-30" points="227.02 240.34 230.09 233.33 238.06 233.33 234.9 240.34 227.02 240.34"/><rect class="cls-10" x="210.73" y="269.06" width="11.14" height="12.89"/><rect class="cls-8" x="210.73" y="269.06" width="11.14" height="12.89"/><rect class="cls-8" x="210.73" y="264.48" width="11.14" height="1.83"/><rect class="cls-8" x="210.73" y="260.07" width="2.63" height="1.83"/><rect class="cls-8" x="214.85" y="260.07" width="7.02" height="1.83"/><rect class="cls-8" x="210.73" y="255.66" width="3.73" height="1.83"/><rect class="cls-8" x="216" y="255.66" width="5.44" height="1.83"/><polygon class="cls-10" points="144.11 263.94 77.93 263.94 55.24 162.96 121.43 162.96 144.11 263.94"/><polygon class="cls-7" points="126.15 209.12 72.09 209.12 64.42 174.98 118.48 174.98 126.15 209.12"/><polygon class="cls-31" points="55.24 162.96 41.88 259.9 77.02 259.9 55.24 162.96"/><polygon class="cls-32" points="126.48 263.94 131.17 283.48 138.94 283.48 134.24 263.94 126.48 263.94"/><polygon class="cls-32" points="83.61 263.94 88.3 283.48 96.07 283.48 91.37 263.94 83.61 263.94"/><polygon class="cls-33" points="55.8 283.48 48.92 283.48 62.07 193.33 66.23 211.89 55.8 283.48"/><polygon class="cls-8" points="135.3 241.16 111.08 223.66 113.52 234.56 79.61 234.56 82.57 247.76 116.49 247.76 118.94 258.65 135.3 241.16"/><text class="cls-34" transform="matrix(0.97, 0, 0.26, 0.97, 69.34, 190.85)">GA<tspan class="cls-35" x="17.08" y="0">R</tspan><tspan class="cls-36" x="24.46" y="0">A</tspan><tspan class="cls-37" x="32.56" y="0">GE</tspan></text><text class="cls-34" transform="matrix(0.97, 0, 0.26, 0.97, 81.68, 203.25)">SALE!</text><rect class="cls-7" x="80.65" y="217.52" width="17.01" height="6.14" transform="translate(-105.8 84.21) rotate(-33.02)"/><rect class="cls-7" x="268.84" y="84.57" width="76.24" height="47.96"/><rect class="cls-20" x="272.69" y="87.52" width="68.54" height="42.07"/><polygon class="cls-38" points="309.63 143.15 304.29 143.15 303.11 132.53 310.81 132.53 309.63 143.15"/><polygon class="cls-7" points="319.98 143.15 293.93 143.15 292.88 146.4 321.04 146.4 319.98 143.15"/><polygon class="cls-21" points="280.19 129.59 277.25 129.59 283.06 87.52 286 87.52 280.19 129.59"/><polygon class="cls-21" points="294.47 129.59 289.75 129.59 295.56 87.52 300.28 87.52 294.47 129.59"/><polygon class="cls-21" points="283.94 129.54 282.88 129.54 288.69 87.47 289.75 87.47 283.94 129.54"/><path class="cls-11" d="M306,95.21V108.5H335.9V95.21Zm6.15,3.44a1.23,1.23,0,1,1,1.23-1.23A1.23,1.23,0,0,1,312.19,98.65Zm17.56,0A1.23,1.23,0,1,1,331,97.42,1.24,1.24,0,0,1,329.75,98.65Z"/><rect class="cls-8" x="311.93" y="83.44" width="0.53" height="13.31"/><rect class="cls-8" x="329.48" y="83.44" width="0.53" height="13.31"/><text class="cls-39" transform="translate(310.39 106.29)">SALE</text><polygon class="cls-7" points="282.13 139.47 266.11 139.47 268.37 146.4 279.87 146.4 282.13 139.47"/><polygon class="cls-10" points="266.57 140.87 281.67 140.87 282.13 139.47 266.11 139.47 266.57 140.87"/><rect class="cls-38" x="265.36" y="144.9" width="17.52" height="1.51"/><path class="cls-7" d="M261.28,270.54h-9.57a17.14,17.14,0,0,0-16.61,12.94h42.79A17.13,17.13,0,0,0,261.28,270.54Z"/><rect class="cls-8" x="250.56" y="265.69" width="11.88" height="4.85"/><path class="cls-8" d="M235.1,283.48h42.79a16.91,16.91,0,0,0-1.81-4.42H236.92A16.6,16.6,0,0,0,235.1,283.48Z"/><polygon class="cls-9" points="258.12 63.7 254.87 63.7 253.81 265.69 259.18 265.69 258.12 63.7"/><path class="cls-7" d="M259.8,94.22a3.31,3.31,0,1,1-3.3-3.3A3.3,3.3,0,0,1,259.8,94.22Z"/><path class="cls-8" d="M260.64,164.86a4.15,4.15,0,1,1-4.14-4.14A4.15,4.15,0,0,1,260.64,164.86Z"/><path class="cls-7" d="M269.34,0H239.41s-2.6,32.27-20.15,63.7H289.5C272,32.27,269.34,0,269.34,0Z"/><path class="cls-8" d="M243.92,0s0,33-18.86,63.7h8.67C245.22,41.79,248,0,248,0Z"/><path class="cls-8" d="M264.84,0s0,33,18.85,63.7H275C263.54,41.79,260.72,0,260.72,0Z"/><path class="cls-8" d="M264.59,63.7C255.05,44.18,256,0,256,0h-3.83s.91,44.18-8.63,63.7Z"/><rect class="cls-7" x="252.67" y="263.16" width="7.64" height="2.53"/><rect class="cls-10" x="262.85" y="63.7" width="0.43" height="38.04"/><path class="cls-9" d="M264,102.16a1,1,0,1,1-1-1A1,1,0,0,1,264,102.16Z"/><rect class="cls-10" x="295.22" y="186.91" width="72.93" height="8.12"/><rect class="cls-8" x="295.22" y="191.51" width="72.93" height="3.52"/><rect class="cls-7" x="300.64" y="195.03" width="62.09" height="5.08"/><path class="cls-9" d="M322.71,200.11S296,231.07,296,283.48h2.82c2.32-58.41,32.88-83.37,32.88-83.37Z"/><path class="cls-9" d="M340.67,200.11s26.72,31,26.72,83.37h-2.82c-2.32-58.41-32.88-83.37-32.88-83.37Z"/><polygon class="cls-23" points="377.71 225.03 367.9 230.41 359.78 215.63 362.48 208.92 369.6 210.24 377.71 225.03"/><path class="cls-18" d="M362.46,200.11h-.58A27.42,27.42,0,0,1,364,210.88c-16.72-3.87-14.18-23.76-14.15-24h-.69c0,.21-2.5,20.77,15.05,24.55l.3.07v-.32A27.85,27.85,0,0,0,362.46,200.11Z"/><text class="cls-40" transform="translate(366.54 225.94) rotate(-29.99)">%</text><path class="cls-7" d="M134.1,66.59l8.8,31.26,70.17-19.74-8.8-31.27Zm11.37,5.48a2.1,2.1,0,1,1,1.45-2.59A2.1,2.1,0,0,1,145.47,72.07Zm52-14.63a2.09,2.09,0,1,1,1.45-2.58A2.09,2.09,0,0,1,197.43,57.44Z"/><path class="cls-11" d="M209.64,76.42,145,94.63l-7.42-26.36,64.69-18.21ZM145.29,94,209,76.08l-7.15-25.4L138.14,68.62Z"/><text class="cls-41" transform="matrix(0.96, -0.27, 0.27, 0.96, 153.23, 85.72)">SALE</text><polygon class="cls-20" points="196.61 54.83 161.86 30.68 144.8 69.41 144.12 69.11 161.54 29.55 197.03 54.21 196.61 54.83"/><polygon class="cls-42" points="254.38 146.4 246.37 146.4 246.37 137.1 255.67 137.1 254.38 146.4"/><polygon class="cls-43" points="250.38 146.4 246.37 146.4 246.37 137.1 251.67 137.1 250.38 146.4"/><polygon class="cls-7" points="249.23 146.4 241.78 146.4 239.6 127.8 251.42 127.8 249.23 146.4"/><polygon class="cls-10" points="240.08 131.9 250.94 131.9 251.42 127.8 239.6 127.8 240.08 131.9"/><path class="cls-3" d="M245.81,127.8h-2.6s-4.35-17.36,2.6-25.3C245.81,102.5,247.07,119,245.81,127.8Z"/><path class="cls-42" d="M251.78,110.93a13.2,13.2,0,0,0-5.41,5.68,81.59,81.59,0,0,1-.56,11.19h4.28C248.63,119.37,251.78,110.93,251.78,110.93Z"/><path class="cls-42" d="M230.93,109.17a112.13,112.13,0,0,0,9.8,18.63h2.48A53.83,53.83,0,0,1,242,119,18.29,18.29,0,0,0,230.93,109.17Z"/><path class="cls-16" d="M242.48,109.77a43.67,43.67,0,0,0-6.57-14.43,67.68,67.68,0,0,0,1.2,17.27A20.54,20.54,0,0,1,242,119h0A35.81,35.81,0,0,1,242.48,109.77Z"/><path class="cls-16" d="M246.37,116.61a14.06,14.06,0,0,1,2.68-3.65c.38-2.71.57-5.81.57-5.81a12,12,0,0,0-3.37,3.56c.07,2.07.12,4.36.12,6.66Z"/><path class="cls-11" d="M244.64,107.2c-.06,2.94-.19,5.88-.16,8.83s0,5.88.16,8.83a72.43,72.43,0,0,1-.44-8.83C244.28,113.08,244.35,110.13,244.64,107.2Z"/><path class="cls-11" d="M233.9,112.26a43.07,43.07,0,0,1,4.53,6,24.42,24.42,0,0,1,3,6.9,31.4,31.4,0,0,0-3.27-6.75c-.64-1.08-1.35-2.12-2.06-3.15S234.67,113.25,233.9,112.26Z"/><path class="cls-11" d="M249.62,113.76c-.26,1-.48,2-.7,3s-.42,2-.57,3.07a29.36,29.36,0,0,0-.42,6.21,20.8,20.8,0,0,1,.15-6.25A35.07,35.07,0,0,1,249.62,113.76Z"/><path class="cls-11" d="M237.07,100.13c.77,2.28,1.4,4.6,2,6.93a70.06,70.06,0,0,1,1.38,7.07C239.41,109.44,238.2,104.8,237.07,100.13Z"/><path class="cls-11" d="M248.23,109.67a13.14,13.14,0,0,1-.36,1.89,12.61,12.61,0,0,1-.62,1.82,12.12,12.12,0,0,1,.36-1.89A13,13,0,0,1,248.23,109.67Z"/><polygon class="cls-38" points="241.56 144.45 241.78 146.4 249.23 146.4 249.46 144.45 241.56 144.45"/><rect class="cls-38" x="323.5" y="145" width="8.35" height="1.4"/><rect class="cls-7" x="325.09" y="143.53" width="5.19" height="1.47"/></g></g></svg>