<svg xmlns="http://www.w3.org/2000/svg" xmlns:xlink="http://www.w3.org/1999/xlink" viewBox="0 0 443.17 358.37"><defs><style>.cls-1{isolation:isolate;}.cls-2{fill:#8a5e61;}.cls-3{fill:#d6c7c8;}.cls-14,.cls-15,.cls-26,.cls-29,.cls-3,.cls-33,.cls-34,.cls-35,.cls-38,.cls-39,.cls-41,.cls-43,.cls-47,.cls-52,.cls-54,.cls-56,.cls-62,.cls-63,.cls-9{mix-blend-mode:multiply;}.cls-4{fill:#f2bfc4;}.cls-5,.cls-65{fill:#d94856;}.cls-6{fill:#e27580;}.cls-7{fill:#f5d1d5;}.cls-8{fill:#fae5e7;}.cls-9{fill:#d2cfd3;}.cls-10{fill:#c9c855;}.cls-11{fill:#c0be37;}.cls-12{fill:#d6d57d;}.cls-13{fill:#4b3f51;}.cls-14{fill:#e4e2e5;}.cls-15{fill:#d0bfc0;}.cls-16{fill:#5d5262;}.cls-17{opacity:0.5;}.cls-18{fill:url(#Degradado_sin_nombre_4);}.cls-19{fill:url(#Degradado_sin_nombre_4-2);}.cls-20{fill:#766d7b;}.cls-21{fill:#665c6b;}.cls-22{fill:#54495a;}.cls-23{fill:#564b5b;}.cls-24{fill:#8a828e;}.cls-25{fill:#4f4354;}.cls-26{fill:#dbda8d;}.cls-27{fill:#76c2eb;}.cls-28{fill:#b1dcf4;}.cls-29,.cls-48{fill:#dbd9dc;}.cls-30{fill:#966e71;}.cls-31{fill:#9c7679;}.cls-32{fill:#ffce71;}.cls-33{fill:#ded2d3;}.cls-34,.cls-52{fill:none;stroke:#c4aeb0;stroke-miterlimit:10;}.cls-34{opacity:0.89;}.cls-35{fill:#a099a3;}.cls-36{fill:#fff;}.cls-37,.cls-38{fill:#e8dfdf;}.cls-40{fill:#c8b3b5;}.cls-41{fill:#e2d7d7;}.cls-42{fill:#98d1f0;}.cls-43{fill:#d7d5d9;}.cls-44{fill:#ffd586;}.cls-45{fill:#ffe9bf;}.cls-46{fill:#594e5f;}.cls-47{fill:#cdc9ce;}.cls-49{fill:#e16e7a;}.cls-50{fill:#f0b7bd;}.cls-51{fill:#e88f98;}.cls-52{stroke-width:0.5px;}.cls-53{fill:#fff2d9;}.cls-54{fill:#d9d7da;}.cls-55{fill:#ffe3ad;}.cls-56{fill:#ebeaec;}.cls-57{fill:#e06c78;}.cls-58{fill:#e1707b;}.cls-59{fill:#e78d96;}.cls-60,.cls-62{fill:#b5b0b8;}.cls-61{fill:#b6dff4;opacity:0.59;mix-blend-mode:overlay;}.cls-63{fill:#e2e0e3;}.cls-64{fill:#ffe7b9;}.cls-65{font-size:40.84px;font-family:Boogaloo-Regular, Boogaloo Regular;}</style><linearGradient id="Degradado_sin_nombre_4" x1="215.34" y1="32.31" x2="183.62" y2="194.52" gradientUnits="userSpaceOnUse"><stop offset="0" stop-color="#fff"/><stop offset="1" stop-color="#fff" stop-opacity="0"/></linearGradient><linearGradient id="Degradado_sin_nombre_4-2" x1="244.81" y1="38.08" x2="213.08" y2="200.28" xlink:href="#Degradado_sin_nombre_4"/></defs><g class="cls-1"><g id="Layer_2" data-name="Layer 2"><g id="OBJECTS"><rect class="cls-2" x="318.67" y="48.86" width="7.17" height="142.34"/><rect class="cls-3" x="318.67" y="48.86" width="7.17" height="38.9"/><rect class="cls-2" x="89.5" y="48.86" width="7.17" height="142.34"/><rect class="cls-3" x="89.5" y="48.86" width="7.17" height="38.9"/><path class="cls-4" d="M303.41,51.66H284.89l0,9.52c1.4,6.39,5.84,18.69,19.29,18.69,13.8,0,17.88-12.3,19.07-18.69V51.66Z"/><path class="cls-5" d="M361.6,51.66H323.28v9.52c1.4,6.39,5.84,18.69,19.29,18.69a18.8,18.8,0,0,0,16.06-9.66C362,64.38,361.6,58.15,361.6,51.66Z"/><path class="cls-4" d="M226.67,51.66H208.15l0,9.52c1.4,6.39,5.84,18.69,19.29,18.69,13.8,0,17.88-12.3,19.07-18.69V51.66Z"/><path class="cls-5" d="M284.86,51.66H246.54v9.52c1.4,6.39,5.84,18.69,19.29,18.69a18.8,18.8,0,0,0,16.06-9.66C285.28,64.38,284.86,58.15,284.86,51.66Z"/><path class="cls-4" d="M149.93,51.66H131.41l0,9.52c1.4,6.39,5.83,18.69,19.29,18.69,13.8,0,17.88-12.3,19.07-18.69V51.66Z"/><path class="cls-5" d="M208.12,51.66H169.8v9.52c1.4,6.39,5.84,18.69,19.29,18.69a18.8,18.8,0,0,0,16.06-9.66C208.54,64.38,208.12,58.15,208.12,51.66Z"/><path class="cls-5" d="M131.38,51.66H93.06v9.52c1.4,6.39,5.83,18.69,19.29,18.69a18.8,18.8,0,0,0,16.06-9.66C131.8,64.38,131.38,58.15,131.38,51.66Z"/><path class="cls-4" d="M54.69,51.66H93v9.52c-1.39,6.39-5.83,18.69-19.29,18.69a18.79,18.79,0,0,1-16-9.66C54.27,64.38,54.69,58.15,54.69,51.66Z"/><polygon class="cls-6" points="361.54 51.72 54.68 51.72 105.09 0 306.75 0 361.54 51.72"/><polygon class="cls-7" points="323.09 51.72 284.68 51.72 256.24 0 281.48 0 323.09 51.72"/><polygon class="cls-7" points="246.58 51.72 208.16 51.72 205.95 0 231.2 0 246.58 51.72"/><polygon class="cls-7" points="169.84 51.72 131.42 51.72 155.52 0 180.77 0 169.84 51.72"/><polygon class="cls-7" points="93.09 51.72 54.68 51.72 105.09 0 130.34 0 93.09 51.72"/><path class="cls-8" d="M361.83,52a1.28,1.28,0,0,0-.07-.28,1.31,1.31,0,0,0-.49-.5l-.14-.09s-.12-.1-.16-.1c-9.36-.46-18.67-.15-28-.15l-30.15,0h-60.3l-120,0c-11.28,0-22.56,0-33.84,0s-22.57-.06-33.84.41a.48.48,0,0,0,0,.95c20.06.84,40.22.4,60.3.4H295.4l33.84,0h16.62c5.32,0,10.66.08,16-.18,0,0,0-.29,0-.32Z"/><ellipse class="cls-9" cx="221.59" cy="334.37" rx="221.59" ry="24"/><path class="cls-10" d="M332.81,178.51H85.08L60.91,200.58H357Z"/><path class="cls-11" d="M60.91,200.58s4.42,35.45,4.83,64-2.9,66.62-2.9,66.62H355.39s.83-55,0-79S357,200.58,357,200.58Z"/><path class="cls-12" d="M355.53,199.26H310.62l-61.2,0q-60.87,0-121.75,0c-21.84,0-43.71-.35-65.53.21l-1.23,1.12s0,.2.07.54c19.72.53,39.47.24,59.19.24l61.19,0q60.88,0,121.76,0h53.8c0-.5.06-.78.06-.78Z"/><rect class="cls-13" x="188.36" y="177.75" width="15.1" height="2.9"/><path class="cls-14" d="M267.77,188H126.26a2.06,2.06,0,0,1-2.07-2.06h0a2.06,2.06,0,0,1,2.07-2.07H267.77a2.06,2.06,0,0,1,2.07,2.07h0A2.06,2.06,0,0,1,267.77,188Z"/><rect class="cls-15" x="188.36" y="177.75" width="15.1" height="2.9"/><path class="cls-13" d="M179.91,180.44h32a5,5,0,0,1,5,5v1.21a0,0,0,0,1,0,0h-42a0,0,0,0,1,0,0v-1.21A5,5,0,0,1,179.91,180.44Z"/><rect class="cls-16" x="125.15" y="87.75" width="141.52" height="90.62" rx="3"/><rect class="cls-13" x="155.6" y="67.3" width="80.62" height="131.52" transform="translate(328.98 -62.85) rotate(90)"/><g class="cls-17"><polygon class="cls-18" points="155.64 173.37 193.15 173.37 235.64 92.75 198.13 92.75 155.64 173.37"/><polygon class="cls-19" points="251.23 92.75 243.72 92.75 201.23 173.37 208.74 173.37 251.23 92.75"/></g><polygon class="cls-15" points="131.26 93.72 261.67 93.72 261.67 92.75 130.15 92.75 130.15 173.37 130.82 173.37 131.26 93.72"/><g class="cls-17"><polygon class="cls-20" points="155.64 173.37 193.15 173.37 235.64 92.75 198.13 92.75 155.64 173.37"/><polygon class="cls-20" points="251.23 92.75 243.72 92.75 201.23 173.37 208.74 173.37 251.23 92.75"/></g><rect class="cls-21" x="376.89" y="83.12" width="6.5" height="243.87"/><rect class="cls-22" x="379.91" y="83.12" width="3.48" height="243.87"/><path class="cls-23" d="M394.63,106.68c.14,0,.28-.1.42-.13h0l.23-.1a6.66,6.66,0,0,0,.89-.52l.27-.19.07,0-.07,0a3.92,3.92,0,0,0,.47-.38c.29-.26.58-.51.86-.78s.56-.57.82-.87H363v3.5h31A1.1,1.1,0,0,1,394.63,106.68Z"/><path class="cls-21" d="M385.81,79.37a5.68,5.68,0,1,1-5.67-5.68A5.67,5.67,0,0,1,385.81,79.37Z"/><path class="cls-22" d="M383.83,75.06a5.29,5.29,0,0,1-9.34,4.87,5.67,5.67,0,1,0,9.34-4.87Z"/><path class="cls-24" d="M381,75.45c.59,1,0,2.37-1.25,3.17s-2.8.68-3.39-.26,0-2.37,1.25-3.17S380.38,74.51,381,75.45Z"/><path class="cls-25" d="M393.24,133.78a10.61,10.61,0,0,1-8.23-4.12A13.39,13.39,0,0,1,382.72,119a16.31,16.31,0,0,1,2.22-5.65c2.72-4.29,7.27-6.91,10.45-8.51l1.8-.87a27.54,27.54,0,0,0,6.9-4.18c2.27-2.11,3.54-6.66,2.56-9.2l2.8-1.08c1.57,4.08-.49,9.85-3.33,12.48a29.75,29.75,0,0,1-7.63,4.68l-1.76.86c-2.86,1.43-6.94,3.76-9.25,7.43a13.17,13.17,0,0,0-1.81,4.6,10.52,10.52,0,0,0,1.71,8.29,7.29,7.29,0,0,0,7.27,2.78,5.46,5.46,0,0,0,4-5.79l3-.51a8.46,8.46,0,0,1-6.25,9.2A8.7,8.7,0,0,1,393.24,133.78Z"/><ellipse class="cls-21" cx="408.6" cy="89.1" rx="4.13" ry="3.41"/><path class="cls-22" d="M411.29,86.51a2.72,2.72,0,0,1,.29,1.2c0,1.76-1.73,3.18-3.86,3.18a4.12,4.12,0,0,1-3.23-1.45,3.92,3.92,0,0,0,4.11,3.07c2.28,0,4.13-1.53,4.13-3.41A3.2,3.2,0,0,0,411.29,86.51Z"/><path class="cls-24" d="M409.2,86.75c.44.57,0,1.42-.9,1.9a2.07,2.07,0,0,1-2.47-.16c-.43-.57,0-1.42.91-1.9A2,2,0,0,1,409.2,86.75Z"/><path class="cls-25" d="M367,133.78a10.62,10.62,0,0,0,8.23-4.12A13.38,13.38,0,0,0,377.46,119a15.93,15.93,0,0,0-2.22-5.65c-2.71-4.29-7.26-6.91-10.45-8.51L363,104a27.18,27.18,0,0,1-6.9-4.18c-2.27-2.11-3.54-6.66-2.57-9.2l-2.79-1.08c-1.58,4.08.49,9.85,3.32,12.48a29.92,29.92,0,0,0,7.63,4.68l1.76.86c2.86,1.43,6.94,3.76,9.26,7.43a13.37,13.37,0,0,1,1.81,4.6,10.56,10.56,0,0,1-1.72,8.29,7.28,7.28,0,0,1-7.27,2.78,5.46,5.46,0,0,1-4-5.79l-3-.51c-.68,3.94,2.19,8.15,6.26,9.2A8.7,8.7,0,0,0,367,133.78Z"/><ellipse class="cls-21" cx="351.58" cy="89.1" rx="4.13" ry="3.41"/><path class="cls-22" d="M354.27,86.51a2.72,2.72,0,0,1,.29,1.2c0,1.76-1.73,3.18-3.85,3.18a4.09,4.09,0,0,1-3.23-1.45,3.9,3.9,0,0,0,4.1,3.07c2.28,0,4.13-1.53,4.13-3.41A3.2,3.2,0,0,0,354.27,86.51Z"/><path class="cls-24" d="M352.19,86.75c.43.57,0,1.42-.91,1.9a2.07,2.07,0,0,1-2.47-.16c-.43-.57,0-1.42.91-1.9A2.05,2.05,0,0,1,352.19,86.75Z"/><ellipse class="cls-21" cx="400.43" cy="123.65" rx="4.13" ry="3.41"/><path class="cls-22" d="M403.12,121.06a2.75,2.75,0,0,1,.28,1.2c0,1.76-1.72,3.19-3.85,3.19a4.11,4.11,0,0,1-3.23-1.46,3.92,3.92,0,0,0,4.11,3.07c2.28,0,4.13-1.52,4.13-3.41A3.2,3.2,0,0,0,403.12,121.06Z"/><path class="cls-24" d="M401,121.3c.43.57,0,1.42-.9,1.9a2.07,2.07,0,0,1-2.47-.16c-.43-.57,0-1.42.9-1.9A2.07,2.07,0,0,1,401,121.3Z"/><ellipse class="cls-21" cx="359.88" cy="123.93" rx="4.13" ry="3.41"/><path class="cls-22" d="M362.56,121.34a2.59,2.59,0,0,1,.29,1.2c0,1.76-1.72,3.18-3.85,3.18a4.08,4.08,0,0,1-3.23-1.46,3.91,3.91,0,0,0,4.11,3.08c2.28,0,4.13-1.53,4.13-3.41A3.17,3.17,0,0,0,362.56,121.34Z"/><path class="cls-24" d="M360.48,121.57c.43.57,0,1.43-.9,1.91a2.07,2.07,0,0,1-2.47-.16c-.43-.57,0-1.42.9-1.91A2.07,2.07,0,0,1,360.48,121.57Z"/><path class="cls-21" d="M351.48,326.86H361l33.48.05h16.61c2,0,4.07,0,6.11,0a6,6,0,0,0-3.62-6.9c-3.63-1.69-7.64-.64-11.43-1.45-6.53-1.41-7.86-9.41-11.86-13.77-3.45-3.76-8.57-4.66-13.45-3.92a12.79,12.79,0,0,0-6.54,3c-2.3,2-3.71,4.84-5.18,7.49s-3.06,5.41-5.9,6.65c-3.74,1.62-8.05.28-11.9,1.5-3.24,1-5.83,4.08-4.81,7.48C345.45,326.69,348.5,326.86,351.48,326.86Z"/><path class="cls-22" d="M411.06,326.92c2,0,4.07,0,6.11,0a6,6,0,0,0-3.62-6.9c-3.63-1.69-7.64-.64-11.43-1.45-6.53-1.41-7.86-9.41-11.86-13.77a11.51,11.51,0,0,0-1.87-1.64c2.55,3.85,3.54,8.52,4.75,12.9a3.49,3.49,0,0,0,3.3,3.18c3.19.69,16.16,3,12.37,3.69-11,1.94-45.5.9-66.34,1.13a5.18,5.18,0,0,0,0,3c3-.3,6-.13,9-.13H361l33.48.05Z"/><path class="cls-24" d="M366.57,314.61c0,.25-.05.55.15.7a.69.69,0,0,0,.51.08,5.78,5.78,0,0,0,2-.8,27.43,27.43,0,0,0,8.54-7.61,5.52,5.52,0,0,0,1.17-2.36c.61-3.89-3.91-1.52-5.42-.55a15.77,15.77,0,0,0-5.47,6.05A14.51,14.51,0,0,0,366.57,314.61Z"/><path class="cls-14" d="M321,190.17c0,1.56-5.93,2.82-13.25,2.82s-13.24-1.26-13.24-2.82,5.93-2.83,13.24-2.83S321,188.61,321,190.17Z"/><path class="cls-26" d="M305.24,94.64q-.27,1.89-.42,3.81C305,97.19,305.15,95.91,305.24,94.64Z"/><path class="cls-11" d="M306.68,116.05c4.27-10.34,3.17-22.15,1.91-33a.13.13,0,0,0-.26,0,52.69,52.69,0,0,0-2.6,8.66,59.3,59.3,0,0,0-1,8.4A50.57,50.57,0,0,0,306.12,116a.23.23,0,0,0,.06.2c.12.42.23.84.37,1.25,0,.15.25.08.22-.06l-.18-1.18A.29.29,0,0,0,306.68,116.05Z"/><path class="cls-26" d="M306.68,116.05c4.27-10.34,3.17-22.15,1.91-33a.13.13,0,0,0-.09-.11,20.74,20.74,0,0,1,.21,4.62c-.09,2.47-.44,4.93-.66,7.39a37.6,37.6,0,0,1-3.25,13.33,41.7,41.7,0,0,0,1.32,7.67.23.23,0,0,0,.06.2c.12.42.23.84.37,1.25,0,.15.25.08.22-.06l-.18-1.18A.29.29,0,0,0,306.68,116.05Z"/><path class="cls-11" d="M311.08,143h-.17a.15.15,0,0,0,0-.07c.56-6.7-2.3-13.61-6.76-18.53-5.27-5.82-12.63-8-20-9.69-.24-.06-.5.21-.34.44,4.09,5.93,6.28,13,10.8,18.62,3.94,4.91,9.76,10.27,16.48,10C311.6,143.8,311.61,143,311.08,143Z"/><path class="cls-11" d="M328.71,110.78a.36.36,0,0,0-.68,0c-1.45,6.4-5.83,11.4-9.95,16.28-3.72,4.41-8.4,10.09-6.36,16.29,0,0,0,0,0,0a.39.39,0,0,0,0,.74c7.27,2.22,12.21-6.26,14.55-11.76A38.6,38.6,0,0,0,328.71,110.78Z"/><path class="cls-11" d="M320.92,95.37c-2.1,5.62-6.55,9.77-9.46,14.93-2.71,4.81-4.43,10.8-2.91,16.26,0,.11.23.1.21,0a1.62,1.62,0,0,0,0-.22.35.35,0,0,0,.26-.08c8.2-7.88,12.44-19.55,12.68-30.76C321.7,95,321.07,95,320.92,95.37Z"/><path class="cls-11" d="M307.13,123.57l0-.06c.79-5.39-1.2-11.06-3.84-15.68-2.94-5.13-6.2-10.1-9.27-15.16a.23.23,0,0,0-.42.11,51.59,51.59,0,0,0,3.71,17.87,41.52,41.52,0,0,0,4.12,7.8c1.52,2.22,3.17,4.39,5.73,5.41.11,0,.19-.14.08-.19Z"/><path class="cls-26" d="M311.08,143h-.17a.15.15,0,0,0,0-.07,21.49,21.49,0,0,0-.24-5.31c-2.19.32-4.79-.87-6.47-1.92a42.3,42.3,0,0,1-7.65-6.87c-2.57-2.73-4.77-5.75-7.22-8.58a27.3,27.3,0,0,0-3.51-3.62,9,9,0,0,0-1.76-1c3.9,5.83,6.1,12.64,10.51,18.15,3.94,4.91,9.76,10.27,16.48,10C311.6,143.8,311.61,143,311.08,143Z"/><path class="cls-26" d="M328.84,111.75c-.15,1.45-.34,2.89-.61,4.33a39.77,39.77,0,0,1-4.08,11.37c-2.75,5.12-6.86,11.63-12.91,13.19a10.11,10.11,0,0,0,.48,2.71s0,0,0,0a.39.39,0,0,0,0,.74c7.27,2.22,12.21-6.26,14.55-11.76A38.48,38.48,0,0,0,328.84,111.75Z"/><path class="cls-26" d="M320.76,103.86c-.45,1-.92,2-1.45,3a108.61,108.61,0,0,1-10.85,16.46,1.09,1.09,0,0,1-.42.31,15.23,15.23,0,0,0,.51,3c0,.11.23.1.21,0a1.62,1.62,0,0,0,0-.22.35.35,0,0,0,.26-.08A42.5,42.5,0,0,0,320.76,103.86Z"/><path class="cls-26" d="M307.23,119.1c-.43-.25-.85-.5-1.26-.78a12.24,12.24,0,0,1-2.92-2.78,39.34,39.34,0,0,1-3.93-7.25,78.31,78.31,0,0,1-5.38-15.68.19.19,0,0,0-.11.17,51.59,51.59,0,0,0,3.71,17.87,41.52,41.52,0,0,0,4.12,7.8c1.52,2.22,3.17,4.39,5.73,5.41.11,0,.19-.14.08-.19l-.14-.1,0-.06A18.07,18.07,0,0,0,307.23,119.1Z"/><path class="cls-2" d="M306.5,111.15c-1.62,8.2,1.28,16.35,3.16,24.25a29.41,29.41,0,0,1,.65,12.69,31,31,0,0,1-2,6.38c-.84,1.9-2,3.67-2.73,5.6-.21.55.55.87.91.54a15.57,15.57,0,0,0,3.34-5.25,32.91,32.91,0,0,0,2-6,35,35,0,0,0,.52-12.74c-1.23-8.56-5.84-16.56-5-25.4.05-.48-.75-.59-.84-.11Z"/><path class="cls-27" d="M309,151.93c-5.47,0-11,.32-16.48-.11-1.79,8.62.27,17.78,2.39,26.13,1,3.89,1.68,8.48,3.95,11.87,1,1.51,2.65,1.34,4.28,1.4,1.16,0,2.32.06,3.48.07h.52c.51,0,1,0,1.55,0h.06c1.24,0,2.48,0,3.72-.07,1.64-.06,3.29.13,4.28-1.4a34.86,34.86,0,0,0,4.66-11.7c2.07-8.75,3.46-17.65,1.69-26.25C318.44,152,313.74,151.93,309,151.93Z"/><path class="cls-28" d="M307.53,162.93c5.46-.57,11-.76,16.39-1.76,0-.54,0-1.08,0-1.62-1.63.12-3.27.12-4.78.11-3.29,0-6.58-.28-9.86-.5q-8.7-.57-17.42-.69a48.85,48.85,0,0,0,.29,5.4C297.26,164.69,302.37,163.46,307.53,162.93Z"/><path class="cls-28" d="M300.05,174.41c2.95.24,5.88.69,8.84.87a86.7,86.7,0,0,0,13.28-.4c.2-1,.4-1.95.58-2.93a66.73,66.73,0,0,1-6.87.57c-2.95.17-5.9.21-8.85.16-4.52-.08-9-.38-13.52-.83.18.83.37,1.65.56,2.47A33.08,33.08,0,0,1,300.05,174.41Z"/><path class="cls-28" d="M295.35,179.61c4.23,1.21,9,.6,13.31.77,2.91.11,5.82.38,8.74.33a23.18,23.18,0,0,0,3.48-.35c.2-.75.39-1.49.57-2.24,0-.17.07-.33.11-.49a80.85,80.85,0,0,1-12.44.41c-3-.18-5.89-.68-8.85-1a37,37,0,0,0-5.56-.08l.24,1C295.09,178.49,295.22,179.05,295.35,179.61Z"/><path class="cls-28" d="M306.79,170.07c3,0,6.06,0,9.09-.16,2.44-.13,4.88-.49,7.32-.66.28-1.89.5-3.77.62-5.66-5.44,1-11,1.35-16.52,2-4.58.52-9.95,2-14.74,1.24.13.83.27,1.65.43,2.47C297.58,169.72,302.18,170,306.79,170.07Z"/><path class="cls-29" d="M323.14,151.87l-1.67,0a59.24,59.24,0,0,1-.9,8.21c-1.28,7.28-4.39,14.41-10.12,19.28a27.3,27.3,0,0,1-13.58,6.09,18,18,0,0,0,2,4.34c1,1.51,2.65,1.34,4.28,1.4,1.16,0,2.32.06,3.48.07h.52c.51,0,1,0,1.55,0h.06c1.24,0,2.48,0,3.72-.07,1.64-.06,3.29.13,4.28-1.4a34.86,34.86,0,0,0,4.66-11.7C323.52,169.37,324.91,160.47,323.14,151.87Z"/><rect class="cls-2" x="285.2" y="323.72" width="9.5" height="23.38"/><rect class="cls-3" x="285.2" y="323.72" width="9.5" height="10.34"/><rect class="cls-2" x="355.03" y="323.72" width="9.5" height="23.38"/><rect class="cls-3" x="355.03" y="323.72" width="9.5" height="10.34"/><path class="cls-30" d="M371.43,238H278.31c-.57,0-.83-1.07-.83-1.27l4.8-7.08c0-.2.46-.37,1-.37h83.12c.57,0,1,.17,1,.37l4.63,6.82C372.08,236.66,372,238,371.43,238Z"/><rect class="cls-2" x="277.28" y="235.58" width="95.17" height="92.45" rx="2"/><path class="cls-31" d="M277.54,236.62H372.2a2,2,0,0,0-1.75-1H279.28A2,2,0,0,0,277.54,236.62Z"/><polygon class="cls-9" points="343.21 260.96 308.32 260.89 307.39 252.48 342.45 252.48 343.21 260.96"/><rect class="cls-32" x="307.39" y="252.48" width="34.97" height="6.83"/><rect class="cls-33" x="307.39" y="256.13" width="34.97" height="3.17"/><rect class="cls-31" x="285.91" y="247.31" width="77.91" height="1.03"/><rect class="cls-34" x="285.91" y="246.89" width="77.91" height="31" rx="1"/><polygon class="cls-9" points="343.21 297.96 308.32 297.89 307.39 289.48 342.45 289.48 343.21 297.96"/><rect class="cls-32" x="307.39" y="289.48" width="34.97" height="6.83"/><rect class="cls-33" x="307.39" y="293.13" width="34.97" height="3.17"/><rect class="cls-31" x="285.91" y="284.31" width="77.91" height="1.03"/><rect class="cls-34" x="285.91" y="283.89" width="77.91" height="31" rx="1"/><polygon class="cls-32" points="248.67 249.41 136.39 249.41 140.81 243.06 244.53 243.34 248.67 249.41"/><polygon class="cls-35" points="248.67 249.41 136.39 249.41 140.81 243.06 244.53 243.34 248.67 249.41"/><path class="cls-36" d="M238.68,241s10.85-9.12,18.24-11,13.86-3.12,13.05,2.77-11.31,10.63-19.75,12.25-12.58.34-12.58.34Z"/><path class="cls-36" d="M213.27,235.53s-7.08-1.37-11.43-5.37-9.59-11.08-12.45-9,.42,15.29,7.54,20a17.59,17.59,0,0,0,14.28,2.28Z"/><path class="cls-37" d="M268.58,231.83c-3.57,5-9.38,7.84-15.18,9.39a43.65,43.65,0,0,1-15.1,1.37l-.66,2.82s4.15,1.27,12.58-.34,19-6.36,19.75-12.25a4.28,4.28,0,0,0-.33-2.69A18,18,0,0,1,268.58,231.83Z"/><path class="cls-37" d="M197.67,235.47c-5.06-3.25-6.78-8.61-8.7-13.89-2.06,3,1.24,15.1,8,19.55a17.59,17.59,0,0,0,14.28,2.28l1.29-4.92A21,21,0,0,1,197.67,235.47Z"/><path class="cls-38" d="M246.6,244a29.76,29.76,0,0,0-2.67-7c-3.07,2.19-5.25,4-5.25,4l-1,4.39s3.07.93,9.27.18C246.82,245.05,246.72,244.52,246.6,244Z"/><path class="cls-38" d="M205.75,232.83l-.32.62a22.34,22.34,0,0,0-1.33,3.34,9.88,9.88,0,0,1-3.4,4.57c-.44.37-.87.75-1.3,1.13a17.59,17.59,0,0,0,11.81.92l2.06-7.88A31,31,0,0,1,205.75,232.83Z"/><path class="cls-36" d="M240.5,231.55a34.29,34.29,0,0,1,4.65,12,38.14,38.14,0,0,1-.51,12.51l-45.42-1.34a21.55,21.55,0,0,1,3.62-13A89.58,89.58,0,0,1,214,228.55Z"/><path class="cls-37" d="M245.15,243.55a34.29,34.29,0,0,0-4.65-12l-3-.34a31.78,31.78,0,0,1,1.82,9.33c.05,3.39-.93,6.8-3.78,8.86-3.76,2.72-9.25,3.29-13.74,3.4a85.63,85.63,0,0,1-15.26-1.06,38.76,38.76,0,0,1-7-1.75l-.06,0a18.16,18.16,0,0,0-.31,4.76l45.42,1.34A38.14,38.14,0,0,0,245.15,243.55Z"/><path class="cls-36" d="M244.51,195.92a4.94,4.94,0,0,1,5.88-.18,5.26,5.26,0,0,1,1.88,5.64,7.16,7.16,0,0,1-1.47,2.51,6.69,6.69,0,0,1-4.54,2.46,4.33,4.33,0,0,1-4.5-4.16,7.81,7.81,0,0,1,.74-2.82A7.11,7.11,0,0,1,244.51,195.92Z"/><path class="cls-38" d="M250.85,196.14a7.88,7.88,0,0,1,0,1.19,5.07,5.07,0,0,1-1.28,3.19,3.12,3.12,0,0,1-3.2.87c-1.13-.41-2.43-2.79-3.6-2.8-.1.26-.19.52-.28.78a7.81,7.81,0,0,0-.74,2.82,4.33,4.33,0,0,0,4.5,4.16,6.69,6.69,0,0,0,4.54-2.46,7.16,7.16,0,0,0,1.47-2.51A5.28,5.28,0,0,0,250.85,196.14Z"/><path class="cls-38" d="M247.22,203.13a36.19,36.19,0,0,0-2.55-2.86c-.61-.65-1.19-1.33-1.75-2-.15.37-.29.74-.42,1.12a7.81,7.81,0,0,0-.74,2.82,4.33,4.33,0,0,0,4.5,4.16,5.72,5.72,0,0,0,2.73-.91C248.39,204.68,247.81,203.9,247.22,203.13Z"/><path class="cls-36" d="M223.12,193a4.94,4.94,0,0,0-1-.88,4.18,4.18,0,0,0-5,.44,5,5,0,0,0-1.36,4.94,6.34,6.34,0,0,0,3.4,4,5,5,0,0,0,3.49.44,3.26,3.26,0,0,0,1.92-1.51c.4-.71.17-1.33.18-2.09A7.68,7.68,0,0,0,223.12,193Z"/><path class="cls-38" d="M224.82,198.32a9.7,9.7,0,0,0-.41-3,4.45,4.45,0,0,0-2.16,1.34,7.2,7.2,0,0,0-.87,2,2.65,2.65,0,0,1-1.35,1.67,2.07,2.07,0,0,1-.82.12,4,4,0,0,1-2.23-.8,6.7,6.7,0,0,0,2.25,1.77,4.94,4.94,0,0,0,3.49.43,3.58,3.58,0,0,0,1.09-.54c.36-.6.71-1.2,1.06-1.8C224.89,199.17,224.81,198.77,224.82,198.32Z"/><path class="cls-36" d="M217.77,236.58s-12.13-4-11.44-13.93,5.51-12.69,8.82-15.31,6.07-5.24,7-8.41,5.79-5.8,12.83-4.14,12.5,8.6,16.13,18.14c3.31,8.69,3.18,11.51.28,16.34S244.79,236.11,240,238C229.91,241.82,217.77,236.58,217.77,236.58Z"/><path class="cls-37" d="M241.05,197.74a79.76,79.76,0,0,1,4.74,6.59c1.64,2.86,1.88,4.84,2.88,8,4.78,15-8,25.63-22.28,23.44-5.58-.85-11.32-2.57-15-6.89-2.94-3.5-4.28-7.73-3.3-13.87a21.35,21.35,0,0,0-1.8,7.66c-.69,9.93,11.44,13.93,11.44,13.93S229.91,241.82,240,238c4.81-1.85,8.55-3.86,11.45-8.69s3-7.65-.28-16.34C248.64,206.32,245.24,201,241.05,197.74Z"/><g class="cls-39"><path class="cls-40" d="M222.87,196.75a4.33,4.33,0,0,0-1.32-2.29,2.22,2.22,0,0,0-2.4-.65,2.28,2.28,0,0,0-1.17,2,4,4,0,0,0,.87,2.5,5.16,5.16,0,0,0,1,1c.33.25.88.71,1.32.53a.23.23,0,0,0,.15-.28c-.1-.41-.61-.58-.93-.81a4.23,4.23,0,0,1-1-.88,2.83,2.83,0,0,1-.51-2.54,1.2,1.2,0,0,1,.66-.78,1.23,1.23,0,0,1,1.11.27A5.53,5.53,0,0,1,222.3,197c.17.33.63.09.57-.24Z"/></g><g class="cls-39"><path class="cls-40" d="M244.89,199.85a2.91,2.91,0,0,1,.56-.79,4.08,4.08,0,0,1,.82-.59,3,3,0,0,1,1.8-.62c.7.08.85.86.71,1.44a4.11,4.11,0,0,1-.93,1.7,4.58,4.58,0,0,1-.81.71c-.3.2-.71.33-.83.7a.28.28,0,0,0,.12.31c.41.18.8-.08,1.13-.3a5.75,5.75,0,0,0,.92-.78,4.64,4.64,0,0,0,1.22-2.26,1.9,1.9,0,0,0-1-2.19,2.78,2.78,0,0,0-2.42.45,4.3,4.3,0,0,0-1.75,2c-.1.24.3.41.42.18Z"/></g><path class="cls-2" d="M225.87,212.19c-.21,0-.43,0-.65,0-2.7,0-5.25,3.12-4.13,5.81a4.83,4.83,0,0,0,2,2.07,16.16,16.16,0,0,0,5.87,2.25,7,7,0,0,0,5.25-.81,4.08,4.08,0,0,0,1.65-3.91c-.4-2.3-2.72-3.42-4.73-4.06A23.43,23.43,0,0,0,225.87,212.19Z"/><path class="cls-41" d="M235.77,217.15a10,10,0,0,1-5.84,2.5,12.1,12.1,0,0,1-5.19-1.26,13.66,13.66,0,0,1-3.83-2.58,3.58,3.58,0,0,0,.18,2.16,4.83,4.83,0,0,0,2,2.07,16.16,16.16,0,0,0,5.87,2.25,7,7,0,0,0,5.25-.81,4.08,4.08,0,0,0,1.65-3.91A2.9,2.9,0,0,0,235.77,217.15Z"/><path class="cls-13" d="M237.08,211.1a1.59,1.59,0,1,1-1.21-2.07A1.7,1.7,0,0,1,237.08,211.1Z"/><ellipse class="cls-13" cx="227.26" cy="208.84" rx="1.81" ry="1.57" transform="translate(-11.52 404.4) rotate(-81.9)"/><path class="cls-2" d="M221.52,225.64a12,12,0,0,0,9,4.66,9.62,9.62,0,0,0,5-1.2c1.29-.7,2.9-2,3.06-3.54,0-.41-.51-.46-.7-.19a11.88,11.88,0,0,1-1.27,1.82,5.92,5.92,0,0,1-2,1.26,12.28,12.28,0,0,1-12.85-3c-.14-.14-.4.05-.28.22Z"/><path class="cls-5" d="M241.76,237a1.16,1.16,0,0,1,.7,1.27,16.71,16.71,0,0,1-2.84,8.91,1.38,1.38,0,0,1-.45.45,1.31,1.31,0,0,1-.68.07,19.16,19.16,0,0,1-8.39-3.27,11.82,11.82,0,0,1-3.92-3.55c-.3-.48-1.05-1.73-.69-2.3s2.22-.55,2.75-.63c4.13-.65,8.5-1.63,12.7-1.13A2.87,2.87,0,0,1,241.76,237Z"/><path class="cls-5" d="M213.76,231.29c-1.58-1.06-3.59-2.09-5.3-1.24a4,4,0,0,0-1.35,1.19,10.86,10.86,0,0,0-1.8,5.09c-.22,1.51-.2,3.33,1,4.24a4.47,4.47,0,0,0,2.87.54c4.29-.21,9.39-.7,13.34-2.49-.62-1.42-3-2.89-4.16-3.88C216.9,233.52,215.35,232.37,213.76,231.29Z"/><path class="cls-33" d="M238.48,242.75a12.24,12.24,0,0,1-7.65-.47,11.06,11.06,0,0,1-3.23-1.77c-.74-.58-1.42-1.22-2.12-1.85-.31.59.41,1.79.7,2.26a11.82,11.82,0,0,0,3.92,3.55,19.16,19.16,0,0,0,8.39,3.27,1.31,1.31,0,0,0,.68-.07,1.38,1.38,0,0,0,.45-.45,15.92,15.92,0,0,0,2.72-7.51A7,7,0,0,1,238.48,242.75Z"/><path class="cls-33" d="M218.75,238.51a29.82,29.82,0,0,1-5.82.22c-2.84-.18-5.65-.91-7.55-2.81,0,.14,0,.27-.07.41-.22,1.51-.2,3.33,1,4.24a4.47,4.47,0,0,0,2.87.54c4.29-.21,9.39-.7,13.34-2.49a3.41,3.41,0,0,0-.55-.83A16,16,0,0,1,218.75,238.51Z"/><path class="cls-5" d="M223.35,241.52a3.81,3.81,0,0,0,2.89-.85,2.69,2.69,0,0,0,.79-.95,2,2,0,0,0-.11-1.75,2.81,2.81,0,0,0-1.33-1.17C221.8,235.11,219.06,240.84,223.35,241.52Z"/><path class="cls-33" d="M226.48,239a3.45,3.45,0,0,1-4.82-1.06c-.9,1.36-.67,3.26,1.69,3.63a3.81,3.81,0,0,0,2.89-.85,2.69,2.69,0,0,0,.79-.95,2,2,0,0,0,.06-1.33A4.1,4.1,0,0,1,226.48,239Z"/><circle class="cls-27" cx="168.12" cy="246.37" r="23.17" transform="translate(-74.16 72.4) rotate(-20.01)"/><path class="cls-41" d="M191.28,246h0a23.1,23.1,0,0,0-7.07-16.29,22.8,22.8,0,0,1,.49,4.71c0,10-6.37,11.54-15.34,11.54h-19c-1.8,0-3.64.07-5.45,0,0,.14,0,.28,0,.42a23.21,23.21,0,0,0,.41,4.37.43.43,0,0,1,0,.11c.13.67.29,1.32.48,2l0,.17c.18.63.4,1.24.63,1.85,0,.06.05.13.08.19.24.6.5,1.18.79,1.75l.1.19c.29.57.6,1.12.94,1.67a.86.86,0,0,1,.1.16q.52.81,1.11,1.59l.08.1c.41.53.83,1,1.28,1.53l0,0c.46.51.95,1,1.45,1.45h0c.49.44,1,.87,1.53,1.27l.11.09c.51.38,1,.74,1.57,1.09l.19.12c.53.33,1.07.63,1.63.92l.24.12c.55.28,1.12.53,1.69.76l.27.11c.58.22,1.17.43,1.77.6l.27.08c.61.17,1.23.33,1.86.45l.23,0c.65.12,1.31.22,2,.28l.16,0c.7.06,1.4.1,2.12.1a23.17,23.17,0,0,0,23.17-23.18C191.29,246.25,191.28,246.12,191.28,246Z"/><path class="cls-42" d="M153.72,232.88a6.85,6.85,0,0,0-1.46,3.33,3.17,3.17,0,0,0,1.52,3.11,4.14,4.14,0,0,0,1.88.34c4.86,0,11.89-3.55,13.26-8.65,1.21-4.51-5.38-4.73-8.13-3.75A15.78,15.78,0,0,0,153.72,232.88Z"/><path class="cls-32" d="M252.6,345.12a2,2,0,0,1-1.94,2c-8.62.22-43.51,1.12-56.2,1.12s-47.45-.9-56.05-1.12a2,2,0,0,1-1.95-2V275.34H252.6v69.78Z"/><polygon class="cls-43" points="252.6 302.9 252.6 275.34 136.46 275.34 136.46 295.37 252.6 302.9"/><polygon class="cls-44" points="136.88 248.58 127.26 292.17 258.81 292.17 248.88 248.58 136.88 248.58"/><polygon class="cls-45" points="249.32 250.51 248.88 248.58 136.88 248.58 136.45 250.51 249.32 250.51"/><path class="cls-14" d="M114,191.92c0,1.59-7.65,2.89-17.09,2.89s-17.1-1.3-17.1-2.89S87.44,189,96.89,189,114,190.32,114,191.92Z"/><path class="cls-13" d="M105.3,130.52a19.34,19.34,0,0,0-.25,4.95c0,1.73,0,3.46,0,5.2a104.42,104.42,0,0,0,.22,10.48c0,.31.36.31.39,0a104.42,104.42,0,0,0,.22-10.48c0-1.74,0-3.47,0-5.2a19.32,19.32,0,0,0-.25-4.95.16.16,0,0,0-.31,0Z"/><path class="cls-13" d="M107,151.89a1.57,1.57,0,1,1-1.56-1.57A1.56,1.56,0,0,1,107,151.89Z"/><rect class="cls-13" x="95.77" y="134.51" width="3.03" height="49.38"/><path class="cls-13" d="M111.44,191.7c-.67-1.61-2.08-2-3.6-2.56-1.91-.67-2.8-2-3.76-3.67a11,11,0,0,0-2.59-3.47,5.59,5.59,0,0,0-3.35-1.07.46.46,0,0,0-.31-.12,7.82,7.82,0,0,0-4.88,1.3,10.17,10.17,0,0,0-2.43,3.3c-.88,1.61-1.7,3.12-3.51,3.8-1.48.56-3.14.81-3.86,2.42a.47.47,0,0,0,.4.7c4.54.17,9.09.14,13.64.09s9.09.16,13.64.08C111.2,192.49,111.61,192.09,111.44,191.7Z"/><path class="cls-46" d="M96.65,181.64a6.27,6.27,0,0,0-3.22,1c-1.12.87-1.45,2.39-2.07,3.66A7.89,7.89,0,0,1,87.67,190a.48.48,0,0,0-.25.21c-.09.24.26.4.52.41a21.35,21.35,0,0,0,5.64-.42.57.57,0,0,0,.25-.11.5.5,0,0,0,.1-.36,10.57,10.57,0,0,1,.24-2.63c.54-2,2.26-3.4,3.91-4.65C99.25,181.53,97.2,181.58,96.65,181.64Z"/><polygon class="cls-27" points="85.22 98.24 76.12 135.2 119.43 133.82 106.33 97.82 85.22 98.24"/><path class="cls-14" d="M106.33,97.82l-2.68.05a56.13,56.13,0,0,1,.43,7.25c0,7.58-2.15,15.64-7.79,21-5,4.8-12.65,6.31-19.57,6.6l-.6,2.46,43.31-1.38Z"/><polygon class="cls-27" points="73.08 133.41 72.95 139.62 121.64 137.41 121.22 131.06 73.08 133.41"/><polygon class="cls-47" points="73.08 133.41 72.95 139.62 121.64 137.41 121.22 131.06 73.08 133.41"/><ellipse class="cls-14" cx="140.29" cy="191.1" rx="17.09" ry="2.89"/><path class="cls-5" d="M133.78,123.37a47.92,47.92,0,0,1,2.08,26.27,6.49,6.49,0,0,1-1.22,3,5.62,5.62,0,0,1-3.09,1.59c-3.69.83-8.09.32-10.71,3.06a9.75,9.75,0,0,0-2.19,5.52A34.41,34.41,0,0,0,123,184.91a15.06,15.06,0,0,0,2.6,3.43c2.39,2.22,5.73,3,8.94,3.65a25.52,25.52,0,0,0,8.57.47c1-.13,2-.29,3-.47,3.2-.6,6.54-1.43,8.93-3.65a14.78,14.78,0,0,0,2.6-3.43,34.41,34.41,0,0,0,4.35-22.08,9.83,9.83,0,0,0-2.2-5.52c-2.61-2.74-7-2.23-10.71-3.06a5.56,5.56,0,0,1-3.08-1.59,6.49,6.49,0,0,1-1.22-3,47.73,47.73,0,0,1,2.08-26.27Z"/><g class="cls-39"><path class="cls-48" d="M142.89,127c.94-.06,1.87-.16,2.8-.28.33-1.12.69-2.24,1.11-3.33h-13c.37,1,.7,2,1,3A23.27,23.27,0,0,0,142.89,127Z"/></g><path class="cls-49" d="M150.94,120.13c-.87-1-2.62-.71-3.76-.71-2.91,0-5.82.06-8.73.07-1.38,0-2.79.06-4.18,0a8.56,8.56,0,0,0-3.9.21,1.74,1.74,0,0,0-.74,2.68c.85,1.25,2.71,1.51,4.09,1.62a87.59,87.59,0,0,0,12.23.13,8.26,8.26,0,0,0,4.42-1.13A2,2,0,0,0,150.94,120.13Z"/><path class="cls-14" d="M159.73,157.31c-2.61-2.74-7-2.23-10.71-3.06a5.56,5.56,0,0,1-3.08-1.59,6.49,6.49,0,0,1-1.22-3,47.86,47.86,0,0,1,.83-22.44c-2.47,6.33-3.7,19.27-3.39,25.32.12,2.18.53,4.58,2.22,6a15.27,15.27,0,0,0,3.79,1.77,10.58,10.58,0,0,1,6.1,7.92,18.41,18.41,0,0,1-.53,6.8c-1.09,5-3.22,10.07-8.23,12.27-.83.37-1.68.7-2.54,1a24.32,24.32,0,0,1-13.09.86,19.72,19.72,0,0,1-5.66-2.32,10.71,10.71,0,0,0,1.37,1.56c2.39,2.22,5.73,3,8.94,3.65a25.52,25.52,0,0,0,8.57.47c1-.13,2-.29,3-.47,3.2-.6,6.54-1.43,8.93-3.65a14.78,14.78,0,0,0,2.6-3.43,34.41,34.41,0,0,0,4.35-22.08A9.76,9.76,0,0,0,159.73,157.31Z"/><path class="cls-50" d="M127.25,157a7.54,7.54,0,0,0-4.35,2.5,9.43,9.43,0,0,0-1.62,4.35,15.49,15.49,0,0,0,.17,6.47c.25.9.91,1.94,1.83,1.77.56-.1.93-.63,1.23-1.13a23.38,23.38,0,0,1,4.12-5.7c2.16-1.92,5.21-2.93,6.66-5.44.44-.76.63-1.88-.08-2.41a8.33,8.33,0,0,0-3.25-.75A14.37,14.37,0,0,0,127.25,157Z"/><path class="cls-51" d="M141.89,187.16a1.77,1.77,0,0,0,1,1.36,4,4,0,0,0,1.71.34c4.23.06,8.79-3.1,9.73-7.35.43-1.95-1-3.75-3.1-3-1.51.52-2.43,2.6-3.58,3.63C146.29,183.35,141.75,185,141.89,187.16Z"/><path class="cls-14" d="M193.41,194.44c0,1.72-6.51,3.11-14.53,3.11s-14.54-1.39-14.54-3.11,6.51-3.1,14.54-3.1S193.41,192.73,193.41,194.44Z"/><path class="cls-2" d="M165.87,190.2s-2.21-28.67.87-35.48,15.69-8.55,21.17-1.52,3.31,36.17,3.31,36.17Z"/><rect class="cls-52" x="169.61" y="173.82" width="17.31" height="16.21" rx="1"/><path class="cls-29" d="M189.53,156.48c0,1,.05,1.91,0,2.85a41.1,41.1,0,0,1-1.88,11.8c-1.14,3.61-2.78,7.55-5.35,10.37-4.27,4.68-10.89,4.68-16.64,6.11.1,1.62.17,2.59.17,2.59l25.35-.83S192.91,166.63,189.53,156.48Z"/><circle class="cls-53" cx="178.26" cy="161.65" r="9.52" transform="translate(-62.09 173.4) rotate(-45)"/><rect class="cls-13" x="175.49" y="155.84" width="0.51" height="7.09" transform="translate(-60.54 180.79) rotate(-47.38)"/><rect class="cls-13" x="181.04" y="154.91" width="0.55" height="8.22" transform="translate(187.08 400.12) rotate(-132.62)"/><circle class="cls-52" cx="178.26" cy="161.65" r="7.45" transform="translate(-48.44 80.95) rotate(-22.61)"/><path class="cls-2" d="M167.73,190.72h2.9a0,0,0,0,1,0,0v4.17a1,1,0,0,1-1,1h-.9a1,1,0,0,1-1-1v-4.17A0,0,0,0,1,167.73,190.72Z"/><path class="cls-2" d="M186.73,190.72h2.9a0,0,0,0,1,0,0v4.17a1,1,0,0,1-1,1h-.9a1,1,0,0,1-1-1v-4.17A0,0,0,0,1,186.73,190.72Z"/><g class="cls-39"><path class="cls-48" d="M170.62,193.81v-3.09h-2.89v3.09C168.69,193.76,169.67,193.78,170.62,193.81Z"/><path class="cls-48" d="M189.62,193.88v-3.16h-2.89v3.07C187.69,193.8,188.66,193.83,189.62,193.88Z"/></g><rect class="cls-32" x="164.71" y="188.86" width="27.93" height="2.69"/><path class="cls-13" d="M178.94,161.65a.68.68,0,0,1-.68.67.67.67,0,0,1,0-1.34A.68.68,0,0,1,178.94,161.65Z"/><ellipse class="cls-14" cx="272.67" cy="194.86" rx="17.09" ry="2.89"/><rect class="cls-5" x="271.87" y="151.65" width="0.86" height="2.31"/><rect class="cls-54" x="271.87" y="151.65" width="0.86" height="2.31"/><path class="cls-55" d="M285.74,188.83c-.61-2.51-1.57-4.92-2.2-7.42-1.32-5.24-1.2-10.73-1.08-16.14H262.13c.13,5.21.25,10.49-.95,15.56-.58,2.49-1.48,4.9-2.17,7.37a6.8,6.8,0,0,0-.09,4.68c.83,1.77,2.94,2.58,4.9,2.71a97.83,97.83,0,0,0,17.54-.07c1.8-.22,3.69-1.1,4.39-2.78A6.37,6.37,0,0,0,285.74,188.83Z"/><g class="cls-39"><path class="cls-48" d="M273.45,169.12c2.16,0,4.32.08,6.47.1.81,0,1.64,0,2.47-.05,0-1.3,0-2.6.07-3.9H262.13c0,1.24.06,2.48.07,3.72C266,169,269.7,169.06,273.45,169.12Z"/></g><path class="cls-56" d="M281.36,195.52c1.8-.22,3.69-1.1,4.39-2.78a6.37,6.37,0,0,0,0-3.91c-.61-2.51-1.57-4.92-2.2-7.42-1.32-5.24-1.2-10.73-1.08-16.14h-2.54a25.53,25.53,0,0,0-.22,2.93A42.34,42.34,0,0,0,282.43,186c.5,1.28,1,2.79.3,3.95a3.37,3.37,0,0,1-1.28,1.08,15.81,15.81,0,0,1-5.5,1.61,52.57,52.57,0,0,1-17.25-.38,4.71,4.71,0,0,0,.22.59c.83,1.77,2.94,2.58,4.9,2.71A97.83,97.83,0,0,0,281.36,195.52Z"/><path class="cls-5" d="M286.17,163c-.95-1.58-3.62-1.23-5.19-1,.24,0-2.05-4.59-2.36-5-3-3.84-7.86-4.63-11.51-1.23a10.92,10.92,0,0,0-2,2.46,27.36,27.36,0,0,0-1.49,3.75c-1.57-.27-4.24-.62-5.19,1-.74,1.25.2,2.86,1.3,3.5,1.51.89,3.63,1,5.35,1.05,2,.07,3.92-.07,5.88-.1q4.45-.08,8.93-.22c1.94-.06,5.1.23,6.16-1.89A2.55,2.55,0,0,0,286.17,163Z"/><path class="cls-36" d="M267.18,178.48a1.4,1.4,0,0,0-2.18-.28,3.36,3.36,0,0,0-.68,1.84c-.1.51-.23,1-.38,1.52a26.78,26.78,0,0,1-1.13,2.92,11.15,11.15,0,0,0-1.08,3.46,2.44,2.44,0,0,0,.59,1.93,1.4,1.4,0,0,0,1.67.43c1-.55.9-1.73,1.18-2.64s.66-1.82.95-2.75.57-1.88.83-2.83S267.75,179.5,267.18,178.48Z"/><path class="cls-36" d="M267,173.92l-.12-.21a1,1,0,0,0-1.78,0l-.12.21a1.17,1.17,0,0,0,0,1.18,1.17,1.17,0,0,0,2,0,1.17,1.17,0,0,0,0-1.18Z"/><path class="cls-54" d="M281,162c.24,0-2.05-4.59-2.36-5a8.65,8.65,0,0,0-4.88-3.22c1.62,1.27,4.15,2.57,2.17,5.62-1.79,2.76-10.16,2.34-12.26,2.46,0,0,0,0,0,.07a107.68,107.68,0,0,0,11.7.68,24.24,24.24,0,0,0,5.81-.66Z"/><path class="cls-57" d="M262,163.09c3.58,1.09,7.25.88,10.95.87,2.48,0,4.86-.23,7.34-.33,1.16,0,2.3-.13,3.45-.26a2.89,2.89,0,0,0,1.9-.61,1.63,1.63,0,0,1,.22-.17c-1.12-1.14-3.45-.85-4.88-.6-5.21.66-11.41.38-17.34,0-1.23-.22-3.14-.47-4.36.2A9.67,9.67,0,0,0,262,163.09Z"/><path class="cls-5" d="M270.44,149.79a1.83,1.83,0,0,0,0,1.22,1.92,1.92,0,0,0,.82.8,2.13,2.13,0,0,0,1,.36,1.77,1.77,0,0,0,.68-.15,2.11,2.11,0,0,0,1.21-1.17,1.71,1.71,0,0,0-.19-1.65,2.49,2.49,0,0,0-1.53-.78A1.67,1.67,0,0,0,270.44,149.79Z"/><path class="cls-58" d="M267,157.36a3.07,3.07,0,0,0-.64,2.06.54.54,0,0,0,.16.35.43.43,0,0,0,.44,0,1.35,1.35,0,0,0,.37-.3,12.52,12.52,0,0,1,2.58-2,6.35,6.35,0,0,0,1.59-1.1.9.9,0,0,0,.26-.89,1.08,1.08,0,0,0-.51-.43,2,2,0,0,0-2.36.29A6.8,6.8,0,0,0,267,157.36Z"/><path class="cls-59" d="M271.39,149.06a1.4,1.4,0,0,0-.43,1,.49.49,0,0,0,.2.49.42.42,0,0,0,.36,0,2.2,2.2,0,0,0,.28-.24,2,2,0,0,1,.56-.36,4,4,0,0,0,.36-.17.48.48,0,0,0,.23-.31c0-.31-.32-.55-.58-.61A1.13,1.13,0,0,0,271.39,149.06Z"/><path class="cls-13" d="M280.79,172.65a1.4,1.4,0,0,0,2.17.08c.29-.35.5-.78.77-1.15s.75-1,1.15-1.41a3.75,3.75,0,0,1,2.89-1.49c1.17.08,1.74,1.25,2.08,2.24a16.42,16.42,0,0,1,.7,6.86c-.15,1.6-.3,4.62-2.38,4.94a1,1,0,0,1-1-.48,2.19,2.19,0,0,0-1.05-.92,2.26,2.26,0,0,0-1.56,0c-.6.21-1.22.76-1.88.65s-1.11,1-.33,1.19a2.62,2.62,0,0,0,1.63-.19c.43-.19,1.24-.75,1.65-.42.18.13.28.49.4.68a3.22,3.22,0,0,0,.43.48,2.72,2.72,0,0,0,1.4.6c2.52.39,3.82-2,4.25-4.11a18.33,18.33,0,0,0,.14-7.87c-.54-2.16-1.92-4.78-4.44-4.87a4.74,4.74,0,0,0-3.45,1.61,8,8,0,0,0-1.18,1.59,2.63,2.63,0,0,1-.73,1c-.22.15-.81.41-1.06.27a.46.46,0,0,0-.56.72Z"/><path class="cls-14" d="M246.12,187.41c0,1.17-5.63,2.12-12.58,2.12S221,188.58,221,187.41s5.64-2.13,12.59-2.13S246.12,186.23,246.12,187.41Z"/><path class="cls-32" d="M233.39,167.34c-.07,1.47-.15,2.94-.17,4.41a32.59,32.59,0,0,0,.1,4.42.66.66,0,0,0,1.32,0,32.59,32.59,0,0,0,.11-4.42c0-1.47-.11-2.94-.18-4.41a.59.59,0,0,0-1.18,0Z"/><g class="cls-39"><path class="cls-60" d="M233.39,167.34c-.07,1.47-.15,2.94-.17,4.41a32.59,32.59,0,0,0,.1,4.42.66.66,0,0,0,1.32,0,32.59,32.59,0,0,0,.11-4.42c0-1.47-.11-2.94-.18-4.41a.59.59,0,0,0-1.18,0Z"/></g><path class="cls-32" d="M216.86,100.27a47,47,0,0,0,2.09,5.82l1.17,2.82c.2.47.38.94.55,1.42a2,2,0,0,0,.64,1.15.44.44,0,0,0,.63-.26,2,2,0,0,0-.28-1.19c-.22-.49-.43-1-.62-1.49-.37-1-.73-2-1.12-2.94a45.53,45.53,0,0,0-2.43-5.6.35.35,0,0,0-.63.27Z"/><g class="cls-39"><path class="cls-60" d="M216.86,100.27a47,47,0,0,0,2.09,5.82l1.17,2.82c.2.47.38.94.55,1.42a2,2,0,0,0,.64,1.15.44.44,0,0,0,.63-.26,2,2,0,0,0-.28-1.19c-.22-.49-.43-1-.62-1.49-.37-1-.73-2-1.12-2.94a45.53,45.53,0,0,0-2.43-5.6.35.35,0,0,0-.63.27Z"/></g><circle class="cls-27" cx="232.46" cy="138.68" r="31.34"/><path class="cls-47" d="M234.28,121.76s0,0,0,0l0,0Z"/><path class="cls-47" d="M234.38,109.87c1-.57,2.34-1,2.69-2.2a32.34,32.34,0,0,0-4.54-.33,31.45,31.45,0,0,0-12.92,2.77,16.09,16.09,0,0,1,2.6.2c2,.39,2.46,2,3.28,3.61.59,1.13,1.69,2.31,3.07,2.2s2-1.3,2.47-2.39A8,8,0,0,1,234.38,109.87Z"/><path class="cls-47" d="M211.56,148.75a9.73,9.73,0,0,0-1.54,3.52,6.53,6.53,0,0,0,2.43,6.21c2,1.74,4.59,2.68,6.4,4.64a10.22,10.22,0,0,0,2.46,2.45,6.41,6.41,0,0,0,3.66,1c.88-.21.95-.88,1-1.68.18-1.81.36-3.62.49-5.43a6.78,6.78,0,0,1,.4-2.49,9.28,9.28,0,0,1,1-1.43,14.12,14.12,0,0,0,1.85-3.78c.61-1.89,1.51-5-.4-6.36a13.7,13.7,0,0,0-7.3-2.9c-1.54-.07-3.26,0-4.18-1.45a4.63,4.63,0,0,1,0-4.41c.63-1.37,1.91-2.38,2.44-3.78a6.37,6.37,0,0,0,.16-1.62c.13-1.06.79-1.14,1.28-1.89.68-1.05.23-2.43.63-3.58s1.38-2.31,1.63-3.61c.46-2.49-1.82-3.46-3.76-4.12a8.57,8.57,0,0,1-3.51-1.92c-1.25-1.32-.92-2.88-.26-4.34a31.32,31.32,0,0,0-15.27,24.66,3.64,3.64,0,0,0,2.4.52,5.7,5.7,0,0,1,1.07-.18c1.07.07,1.07.49,1.3,1.21a4.17,4.17,0,0,0,.51,1.26c.63.87,1.75.88,2.72,1,1.17.21,3.61.39,4,1.59s1.19,2.4.63,3.67A24.79,24.79,0,0,1,211.56,148.75Z"/><path class="cls-47" d="M262.38,129a12,12,0,0,1-.66,1.86c-.9,1.95-2.71-.66-3.8-1.12a2.27,2.27,0,0,0-2.25.18c-1,.84-.19,2.22-1.1,3.09a3.57,3.57,0,0,1-2.81,1.11c-.55-.14-1-.57-1.53-.66-1.44-.25-2.65,1-4,1.35a2.93,2.93,0,0,1-2.37-.21c-.54-.37-.57-.93-1-1.34-.66-.62-1.73-.33-2.5-.11a6,6,0,0,0-4.47,5,4.72,4.72,0,0,0,.61,2.91c.79,1.4,1.64,2.39,2,4a13.66,13.66,0,0,0,3.77,6.93,3.57,3.57,0,0,0,2.74,1.33,4.48,4.48,0,0,0,1.42-.47,2.82,2.82,0,0,1,2.79.19c1.56.88,3.65,3.8,5.14,1.11a6.76,6.76,0,0,0,.54-3.56,39.18,39.18,0,0,0-.46-4.46,21.77,21.77,0,0,0-1.25-4,4.41,4.41,0,0,1-.4-2.34c.24-1.19,1.34-1.54,2.32-1.93a15.22,15.22,0,0,1,4.32-1.22,6.35,6.35,0,0,1,2.34.18c.73.22,1.32.69,2,.93l.11,0A30.81,30.81,0,0,0,262.38,129Z"/><path class="cls-47" d="M248.17,128.1a15.75,15.75,0,0,0,1.4.89,18.88,18.88,0,0,0,3.19,1.41.6.6,0,0,0,.75-.57l0-2a6.26,6.26,0,0,0,1.77-.8c.64-.42,1.12-1.2,1.84-1.39.89-.23,2.28.39,3.18.61l1.15.28A31.46,31.46,0,0,0,243,109.14a5.67,5.67,0,0,0-.64,3,25.51,25.51,0,0,0,.37,5.16c.12.72.42,1.74,0,2.41s-1.53.68-2.27,1a3.23,3.23,0,0,0-1.29,1c-.54.66-1.09,2.06-2.17,1.92-.51-.07-1.15.63-1.42,1-.74,1,0,2.47.21,3.52.18.76.39,2,1.48,1.79a2.59,2.59,0,0,0,1.16-.85c.57-.58,1.15-1.15,1.71-1.73.58.28,1,.84,1.7,1s1.16,0,1.39.74a9.33,9.33,0,0,1,.19,1.29c.21,1.2,1.16,2.77,2.6,2.05a2.13,2.13,0,0,0,1-1.55,5.91,5.91,0,0,0,.08-1.33,5.83,5.83,0,0,1-.07-1.76C247.28,127.2,247.74,127.79,248.17,128.1Z"/><path class="cls-47" d="M255.57,144.55a33.44,33.44,0,0,0,1.07,3.76.48.48,0,0,0,.79.21,3.93,3.93,0,0,0,1.29-2.48c.1-.59.13-1.18.2-1.77a3.38,3.38,0,0,0,0-1.55,10.64,10.64,0,0,0-.74-1.47,1.68,1.68,0,0,0-1-.91,1.41,1.41,0,0,0-1.38.45,1.39,1.39,0,0,0-.43,1.14,1.59,1.59,0,0,0-.14.68A9.16,9.16,0,0,0,255.57,144.55Z"/><path class="cls-47" d="M233.38,121.14c.08.56.07,1.55.84,1.61a1.3,1.3,0,0,0,.8-.28.2.2,0,0,0,.19-.06,1.49,1.49,0,0,1,.18-.17,1.51,1.51,0,0,0,.26-.18,2.24,2.24,0,0,1,.73-.24,1,1,0,0,0,.66-.3,1,1,0,0,0,.19-.79,3.74,3.74,0,0,0-.74-1.39c-.35-.47-.72-.92-1.08-1.38s-.63-.91-1.14-1.08a1,1,0,0,0-1.27.7,3.81,3.81,0,0,0,.09,1.74C233.19,119.92,233.28,120.53,233.38,121.14Zm.9.62h0l0,0S234.29,121.77,234.28,121.76Z"/><path class="cls-47" d="M249.3,162.61c-1.86.36-3.33,1.84-5.18,2.11-1.67.25-3-1.28-4.69-1-1.55.28-3,1.64-4.08,2.7a6.24,6.24,0,0,0-2.06,3.56,31.33,31.33,0,0,0,19.4-7.3A7.89,7.89,0,0,0,249.3,162.61Z"/><path class="cls-29" d="M251.31,113.64a31.34,31.34,0,0,1-45.83,41,31.34,31.34,0,1,0,45.83-41Z"/><ellipse class="cls-61" cx="219.3" cy="121.87" rx="11.83" ry="6.94" transform="translate(-22.56 188.57) rotate(-44.48)"/><path class="cls-32" d="M235.22,173.22c-.91.07-1.83.12-2.76.12a34.66,34.66,0,0,1-13.53-66.57l-.45-1.82a36.52,36.52,0,0,0,14,70.25q1.64,0,3.21-.15Z"/><path class="cls-32" d="M218.45,99.84a1.61,1.61,0,1,1-1.61-1.6A1.6,1.6,0,0,1,218.45,99.84Z"/><rect class="cls-32" x="232.47" y="179.68" width="3.24" height="5.31"/><rect class="cls-62" x="232.47" y="179.68" width="3.24" height="5.31"/><path class="cls-32" d="M227.3,183.86h13.59a3,3,0,0,1,3,3v.66a0,0,0,0,1,0,0H224.3a0,0,0,0,1,0,0v-.66A3,3,0,0,1,227.3,183.86Z"/><path class="cls-47" d="M235.22,173.22c-.91.07-1.83.12-2.76.12s-1.88-.05-2.8-.12c0,.62,0,1.24,0,1.86.93.07,1.86.12,2.81.12s2.16,0,3.21-.15Z"/><rect class="cls-32" x="231.2" y="172.72" width="5.79" height="8.48"/><rect class="cls-32" x="231.2" y="172.72" width="5.79" height="8.48"/><rect class="cls-54" x="233.91" y="172.72" width="3.08" height="8.48"/><path class="cls-62" d="M216.06,106.91l.51,1c.77-.4,1.55-.77,2.36-1.12l-.45-1.82c-.94.39-1.86.83-2.76,1.29C215.84,106.46,216,106.69,216.06,106.91Z"/><rect class="cls-32" x="217.32" y="102.58" width="3.21" height="4.94" transform="translate(-23.09 85.23) rotate(-20.95)"/><rect class="cls-54" x="218.86" y="102.29" width="1.62" height="4.94" transform="translate(-22.94 85.47) rotate(-20.95)"/><path class="cls-2" d="M54.6,255.67H61a0,0,0,0,1,0,0V342a3.09,3.09,0,0,1-3.09,3.09h-.21A3.09,3.09,0,0,1,54.6,342V255.67a0,0,0,0,1,0,0Z"/><path class="cls-47" d="M57.72,267.88c1.09-.2,2.18-.39,3.27-.56V255.67H54.6v12.86C55.64,268.31,56.68,268.07,57.72,267.88Z"/><polygon class="cls-32" points="118.5 252.26 115.94 254.61 7.74 270.58 4.19 220.17 6.89 216.48 111.68 200.72 118.5 252.26"/><polygon class="cls-63" points="118.5 252.26 115.94 254.61 7.74 270.58 4.19 220.17 6.89 216.48 111.68 200.72 118.5 252.26"/><path class="cls-64" d="M118.5,252.27,10.72,268,6.89,216.48,109.61,201A2.06,2.06,0,0,1,112,202.8Z"/><text class="cls-65" transform="translate(25.56 253.36) rotate(-8.68)">SALE</text></g></g></g></svg>